<?xml version="1.0" encoding="utf-8" standalone="no"?>
<!DOCTYPE svg PUBLIC "-//W3C//DTD SVG 1.1//EN"
  "http://www.w3.org/Graphics/SVG/1.1/DTD/svg11.dtd">
<!-- Created with matplotlib (https://matplotlib.org/) -->
<svg height="370.91625pt" version="1.1" viewBox="0 0 393.732813 370.91625" width="393.732813pt" xmlns="http://www.w3.org/2000/svg" xmlns:xlink="http://www.w3.org/1999/xlink">
 <metadata>
  <rdf:RDF xmlns:cc="http://creativecommons.org/ns#" xmlns:dc="http://purl.org/dc/elements/1.1/" xmlns:rdf="http://www.w3.org/1999/02/22-rdf-syntax-ns#">
   <cc:Work>
    <dc:type rdf:resource="http://purl.org/dc/dcmitype/StillImage"/>
    <dc:date>2021-05-04T17:42:50.688018</dc:date>
    <dc:format>image/svg+xml</dc:format>
    <dc:creator>
     <cc:Agent>
      <dc:title>Matplotlib v3.3.2, https://matplotlib.org/</dc:title>
     </cc:Agent>
    </dc:creator>
   </cc:Work>
  </rdf:RDF>
 </metadata>
 <defs>
  <style type="text/css">*{stroke-linecap:butt;stroke-linejoin:round;}</style>
 </defs>
 <g id="figure_1">
  <g id="patch_1">
   <path d="M 0 370.91625 
L 393.732813 370.91625 
L 393.732813 0 
L 0 0 
z
" style="fill:none;"/>
  </g>
  <g id="axes_1">
   <g id="patch_2">
    <path d="M 43.78125 333.36 
L 378.58125 333.36 
L 378.58125 7.2 
L 43.78125 7.2 
z
" style="fill:#ffffff;"/>
   </g>
   <g id="PolyCollection_1">
    <defs>
     <path d="M 43.78125 -348.184821 
L 43.78125 -71.757093 
L 47.163068 -165.49543 
L 50.544886 -158.400423 
L 53.926705 -172.903728 
L 57.308523 -195.503215 
L 60.690341 -212.642446 
L 64.072159 -226.182278 
L 67.453977 -237.189195 
L 70.835795 -239.11898 
L 74.217614 -247.62813 
L 77.599432 -247.897856 
L 80.98125 -242.704361 
L 84.363068 -245.286647 
L 87.744886 -248.134313 
L 91.126705 -247.132092 
L 94.508523 -251.566969 
L 97.890341 -255.621902 
L 101.272159 -254.902724 
L 104.653977 -258.493346 
L 108.035795 -259.820807 
L 111.417614 -260.106039 
L 114.799432 -255.480072 
L 118.18125 -252.069593 
L 121.563068 -252.440914 
L 124.944886 -255.223375 
L 128.326705 -257.848892 
L 131.708523 -257.351031 
L 135.090341 -257.3945 
L 138.472159 -257.298389 
L 141.853977 -259.520919 
L 145.235795 -259.324179 
L 148.617614 -257.147455 
L 151.999432 -250.772776 
L 155.38125 -252.844058 
L 158.763068 -252.37486 
L 162.144886 -247.837745 
L 165.526705 -247.451741 
L 168.908523 -230.259361 
L 172.290341 -215.217859 
L 175.672159 -216.078598 
L 179.053977 -216.898641 
L 182.435795 -204.944947 
L 185.817614 -204.484627 
L 189.199432 -206.336796 
L 192.58125 -204.718756 
L 195.963068 -200.383505 
L 199.344886 -195.851474 
L 202.726705 -192.093349 
L 206.108523 -189.406444 
L 209.490341 -188.905709 
L 212.872159 -187.069352 
L 216.253977 -189.484494 
L 219.635795 -186.101346 
L 223.017614 -181.176991 
L 226.399432 -175.642177 
L 229.78125 -172.087935 
L 233.163068 -171.163811 
L 236.544886 -172.530924 
L 239.926705 -170.714215 
L 243.308523 -169.655125 
L 246.690341 -169.034482 
L 250.072159 -163.775977 
L 253.453977 -160.591155 
L 256.835795 -159.640035 
L 260.217614 -157.613741 
L 263.599432 -158.159856 
L 266.98125 -157.130697 
L 270.363068 -155.563623 
L 273.744886 -153.640491 
L 277.126705 -152.506071 
L 280.508523 -152.076737 
L 283.890341 -153.106883 
L 287.272159 -148.982089 
L 290.653977 -147.881991 
L 294.035795 -141.338063 
L 297.417614 -140.566228 
L 300.799432 -139.697591 
L 304.18125 -132.186143 
L 307.563068 -130.955005 
L 310.944886 -125.347731 
L 314.326705 -118.313825 
L 317.708523 -118.024773 
L 321.090341 -117.335283 
L 324.472159 -116.469361 
L 327.853977 -115.673638 
L 331.235795 -116.361777 
L 334.617614 -113.981673 
L 337.999432 -113.369163 
L 341.38125 -105.096731 
L 344.763068 -99.470955 
L 348.144886 -96.454076 
L 351.526705 -84.958713 
L 354.908523 -81.301699 
L 358.290341 -79.359454 
L 361.672159 -75.659922 
L 365.053977 -68.710705 
L 368.435795 -66.077761 
L 371.817614 -61.666186 
L 375.199432 -61.69635 
L 378.58125 -61.898316 
L 378.58125 -64.401582 
L 378.58125 -64.401582 
L 375.199432 -64.15121 
L 371.817614 -71.463716 
L 368.435795 -77.537401 
L 365.053977 -84.013191 
L 361.672159 -93.324113 
L 358.290341 -100.581916 
L 354.908523 -112.134697 
L 351.526705 -114.710892 
L 348.144886 -120.223917 
L 344.763068 -131.960331 
L 341.38125 -140.340896 
L 337.999432 -143.827841 
L 334.617614 -144.858838 
L 331.235795 -146.459224 
L 327.853977 -145.617589 
L 324.472159 -147.269965 
L 321.090341 -148.386741 
L 317.708523 -151.871846 
L 314.326705 -155.357569 
L 310.944886 -156.778755 
L 307.563068 -159.298425 
L 304.18125 -162.076176 
L 300.799432 -160.717344 
L 297.417614 -164.01181 
L 294.035795 -165.667966 
L 290.653977 -169.101537 
L 287.272159 -171.468485 
L 283.890341 -187.10711 
L 280.508523 -186.00967 
L 277.126705 -186.794095 
L 273.744886 -186.947982 
L 270.363068 -187.308443 
L 266.98125 -190.098265 
L 263.599432 -190.84628 
L 260.217614 -194.315332 
L 256.835795 -196.262454 
L 253.453977 -201.560534 
L 250.072159 -207.87991 
L 246.690341 -216.911634 
L 243.308523 -219.737749 
L 239.926705 -223.715868 
L 236.544886 -223.087472 
L 233.163068 -221.78032 
L 229.78125 -224.108482 
L 226.399432 -225.12375 
L 223.017614 -231.920258 
L 219.635795 -241.225693 
L 216.253977 -242.589175 
L 212.872159 -251.755246 
L 209.490341 -257.803959 
L 206.108523 -266.578749 
L 202.726705 -267.057397 
L 199.344886 -277.235436 
L 195.963068 -275.904382 
L 192.58125 -279.90149 
L 189.199432 -284.896325 
L 185.817614 -283.739789 
L 182.435795 -287.254591 
L 179.053977 -290.354094 
L 175.672159 -289.12199 
L 172.290341 -287.8641 
L 168.908523 -288.253021 
L 165.526705 -288.343645 
L 162.144886 -291.032787 
L 158.763068 -290.880576 
L 155.38125 -291.452571 
L 151.999432 -290.03933 
L 148.617614 -300.277167 
L 145.235795 -302.461072 
L 141.853977 -304.417916 
L 138.472159 -303.067468 
L 135.090341 -301.648647 
L 131.708523 -300.377439 
L 128.326705 -298.115894 
L 124.944886 -296.35821 
L 121.563068 -294.473897 
L 118.18125 -292.899512 
L 114.799432 -303.796996 
L 111.417614 -299.733076 
L 108.035795 -303.608918 
L 104.653977 -303.991133 
L 101.272159 -301.68521 
L 97.890341 -311.063566 
L 94.508523 -308.725006 
L 91.126705 -306.087522 
L 87.744886 -315.92881 
L 84.363068 -318.291936 
L 80.98125 -330.854609 
L 77.599432 -325.967074 
L 74.217614 -322.024089 
L 70.835795 -334.098269 
L 67.453977 -332.494954 
L 64.072159 -329.689366 
L 60.690341 -325.867919 
L 57.308523 -320.421957 
L 53.926705 -312.175734 
L 50.544886 -337.726598 
L 47.163068 -348.184821 
L 43.78125 -348.184821 
z
" id="m59c0c45973" style="stroke:#ef8191;stroke-opacity:0.1;"/>
    </defs>
    <g clip-path="url(#p06f6faffb9)">
     <use style="fill:#ef8191;fill-opacity:0.1;stroke:#ef8191;stroke-opacity:0.1;" x="0" xlink:href="#m59c0c45973" y="370.91625"/>
    </g>
   </g>
   <g id="PolyCollection_2">
    <defs>
     <path d="M 43.78125 -348.184821 
L 43.78125 -348.184821 
L 47.163068 -348.184821 
L 50.544886 -348.184821 
L 53.926705 -348.184821 
L 57.308523 -348.184821 
L 60.690341 -279.727154 
L 64.072159 -265.941683 
L 67.453977 -254.45933 
L 70.835795 -263.072389 
L 74.217614 -270.227782 
L 77.599432 -261.580772 
L 80.98125 -252.014412 
L 84.363068 -242.616488 
L 87.744886 -239.364722 
L 91.126705 -222.340385 
L 94.508523 -227.445966 
L 97.890341 -230.212039 
L 101.272159 -227.76681 
L 104.653977 -230.198245 
L 108.035795 -227.632716 
L 111.417614 -228.908815 
L 114.799432 -220.403307 
L 118.18125 -215.597539 
L 121.563068 -214.540224 
L 124.944886 -205.911952 
L 128.326705 -208.945733 
L 131.708523 -203.327139 
L 135.090341 -203.481438 
L 138.472159 -192.660037 
L 141.853977 -195.414426 
L 145.235795 -193.222156 
L 148.617614 -193.540747 
L 151.999432 -193.83096 
L 155.38125 -194.904624 
L 158.763068 -189.918142 
L 162.144886 -183.694534 
L 165.526705 -181.493763 
L 168.908523 -174.675157 
L 172.290341 -171.864664 
L 175.672159 -169.396351 
L 179.053977 -160.934021 
L 182.435795 -155.95865 
L 185.817614 -153.103181 
L 189.199432 -154.832398 
L 192.58125 -153.525826 
L 195.963068 -152.096692 
L 199.344886 -153.723201 
L 202.726705 -151.852984 
L 206.108523 -143.782412 
L 209.490341 -141.025629 
L 212.872159 -138.340615 
L 216.253977 -134.999661 
L 219.635795 -136.737589 
L 223.017614 -134.027433 
L 226.399432 -133.309863 
L 229.78125 -131.634197 
L 233.163068 -130.651933 
L 236.544886 -131.825011 
L 239.926705 -131.264409 
L 243.308523 -133.3118 
L 246.690341 -129.740124 
L 250.072159 -127.730315 
L 253.453977 -130.739794 
L 256.835795 -126.881823 
L 260.217614 -127.383767 
L 263.599432 -127.169294 
L 266.98125 -127.7412 
L 270.363068 -126.922022 
L 273.744886 -127.027293 
L 277.126705 -126.155686 
L 280.508523 -124.011243 
L 283.890341 -124.903002 
L 287.272159 -123.565742 
L 290.653977 -120.464136 
L 294.035795 -119.590849 
L 297.417614 -118.722524 
L 300.799432 -117.222317 
L 304.18125 -113.473289 
L 307.563068 -112.519315 
L 310.944886 -110.69657 
L 314.326705 -109.955017 
L 317.708523 -109.893407 
L 321.090341 -107.228968 
L 324.472159 -107.005941 
L 327.853977 -106.532523 
L 331.235795 -107.169263 
L 334.617614 -104.907472 
L 337.999432 -103.548042 
L 341.38125 -99.126372 
L 344.763068 -97.147225 
L 348.144886 -95.758132 
L 351.526705 -88.799411 
L 354.908523 -86.613057 
L 358.290341 -82.912903 
L 361.672159 -77.131184 
L 365.053977 -67.281477 
L 368.435795 -63.736154 
L 371.817614 -64.411837 
L 375.199432 -64.548486 
L 378.58125 -64.79975 
L 378.58125 -67.370636 
L 378.58125 -67.370636 
L 375.199432 -67.098074 
L 371.817614 -71.598909 
L 368.435795 -84.009073 
L 365.053977 -91.245231 
L 361.672159 -95.080882 
L 358.290341 -104.74642 
L 354.908523 -108.26561 
L 351.526705 -110.72371 
L 348.144886 -119.19071 
L 344.763068 -123.384752 
L 341.38125 -126.724531 
L 337.999432 -129.079788 
L 334.617614 -130.00631 
L 331.235795 -130.48311 
L 327.853977 -129.713581 
L 324.472159 -129.760168 
L 321.090341 -131.776173 
L 317.708523 -130.840289 
L 314.326705 -132.264281 
L 310.944886 -134.379989 
L 307.563068 -134.618777 
L 304.18125 -136.349314 
L 300.799432 -137.667757 
L 297.417614 -138.348161 
L 294.035795 -141.552008 
L 290.653977 -142.834705 
L 287.272159 -143.959804 
L 283.890341 -144.273635 
L 280.508523 -143.285828 
L 277.126705 -143.220759 
L 273.744886 -143.0759 
L 270.363068 -144.062649 
L 266.98125 -143.370813 
L 263.599432 -143.390978 
L 260.217614 -143.048463 
L 256.835795 -143.193091 
L 253.453977 -145.083756 
L 250.072159 -150.872932 
L 246.690341 -150.884091 
L 243.308523 -153.48074 
L 239.926705 -156.333983 
L 236.544886 -159.119891 
L 233.163068 -157.827675 
L 229.78125 -159.183993 
L 226.399432 -160.333299 
L 223.017614 -159.760887 
L 219.635795 -165.851722 
L 216.253977 -180.182257 
L 212.872159 -181.966468 
L 209.490341 -185.074239 
L 206.108523 -184.880244 
L 202.726705 -186.955846 
L 199.344886 -191.986329 
L 195.963068 -192.471132 
L 192.58125 -192.793512 
L 189.199432 -199.23415 
L 185.817614 -197.426078 
L 182.435795 -204.013719 
L 179.053977 -210.032721 
L 175.672159 -214.138796 
L 172.290341 -213.082321 
L 168.908523 -213.059792 
L 165.526705 -214.581495 
L 162.144886 -222.383821 
L 158.763068 -223.632612 
L 155.38125 -236.305191 
L 151.999432 -238.616377 
L 148.617614 -243.50305 
L 145.235795 -252.91818 
L 141.853977 -252.613482 
L 138.472159 -250.309149 
L 135.090341 -248.742805 
L 131.708523 -246.344901 
L 128.326705 -257.182765 
L 124.944886 -259.509224 
L 121.563068 -260.907852 
L 118.18125 -260.544763 
L 114.799432 -261.10335 
L 111.417614 -268.186042 
L 108.035795 -272.847643 
L 104.653977 -272.514291 
L 101.272159 -271.041204 
L 97.890341 -286.532513 
L 94.508523 -297.574052 
L 91.126705 -294.579439 
L 87.744886 -291.412205 
L 84.363068 -288.038746 
L 80.98125 -320.868152 
L 77.599432 -323.64353 
L 74.217614 -333.81472 
L 70.835795 -332.126342 
L 67.453977 -330.000356 
L 64.072159 -326.526513 
L 60.690341 -348.184821 
L 57.308523 -348.184821 
L 53.926705 -348.184821 
L 50.544886 -348.184821 
L 47.163068 -348.184821 
L 43.78125 -348.184821 
z
" id="m6523922aa4" style="stroke:#566cb3;stroke-opacity:0.1;"/>
    </defs>
    <g clip-path="url(#p06f6faffb9)">
     <use style="fill:#566cb3;fill-opacity:0.1;stroke:#566cb3;stroke-opacity:0.1;" x="0" xlink:href="#m6523922aa4" y="370.91625"/>
    </g>
   </g>
   <g id="PolyCollection_3">
    <defs>
     <path d="M 43.78125 -348.184821 
L 43.78125 -71.757093 
L 47.163068 -177.558486 
L 50.544886 -165.151959 
L 53.926705 -183.825664 
L 57.308523 -188.649332 
L 60.690341 -202.200391 
L 64.072159 -206.15465 
L 67.453977 -206.356874 
L 70.835795 -205.79614 
L 74.217614 -215.496681 
L 77.599432 -218.238674 
L 80.98125 -225.193329 
L 84.363068 -231.430252 
L 87.744886 -229.895337 
L 91.126705 -231.457455 
L 94.508523 -236.363913 
L 97.890341 -239.154844 
L 101.272159 -241.170018 
L 104.653977 -245.15352 
L 108.035795 -248.852734 
L 111.417614 -249.990994 
L 114.799432 -253.265194 
L 118.18125 -253.172223 
L 121.563068 -254.044076 
L 124.944886 -256.821531 
L 128.326705 -253.524887 
L 131.708523 -245.843718 
L 135.090341 -246.066568 
L 138.472159 -235.687554 
L 141.853977 -238.206956 
L 145.235795 -235.5011 
L 148.617614 -229.35697 
L 151.999432 -221.413281 
L 155.38125 -205.401808 
L 158.763068 -203.607062 
L 162.144886 -200.384999 
L 165.526705 -195.084252 
L 168.908523 -197.238928 
L 172.290341 -194.375386 
L 175.672159 -192.692069 
L 179.053977 -185.764881 
L 182.435795 -181.949682 
L 185.817614 -174.714378 
L 189.199432 -176.51584 
L 192.58125 -174.482188 
L 195.963068 -169.526624 
L 199.344886 -170.08674 
L 202.726705 -167.447345 
L 206.108523 -164.749211 
L 209.490341 -161.604168 
L 212.872159 -160.61098 
L 216.253977 -156.560808 
L 219.635795 -155.181068 
L 223.017614 -153.781895 
L 226.399432 -153.798988 
L 229.78125 -152.749151 
L 233.163068 -152.229889 
L 236.544886 -153.528281 
L 239.926705 -148.234056 
L 243.308523 -146.160477 
L 246.690341 -147.292333 
L 250.072159 -141.594093 
L 253.453977 -142.190352 
L 256.835795 -144.753118 
L 260.217614 -144.135505 
L 263.599432 -142.326299 
L 266.98125 -139.956283 
L 270.363068 -138.785004 
L 273.744886 -135.350536 
L 277.126705 -133.90713 
L 280.508523 -132.775267 
L 283.890341 -133.715345 
L 287.272159 -134.271185 
L 290.653977 -131.290394 
L 294.035795 -131.267555 
L 297.417614 -130.229089 
L 300.799432 -131.006692 
L 304.18125 -129.686594 
L 307.563068 -129.86648 
L 310.944886 -128.174241 
L 314.326705 -125.069265 
L 317.708523 -123.765056 
L 321.090341 -117.842434 
L 324.472159 -115.195034 
L 327.853977 -110.977093 
L 331.235795 -111.642021 
L 334.617614 -108.729133 
L 337.999432 -106.507353 
L 341.38125 -102.904806 
L 344.763068 -99.727647 
L 348.144886 -88.655373 
L 351.526705 -83.023428 
L 354.908523 -78.953135 
L 358.290341 -74.16117 
L 361.672159 -69.50131 
L 365.053977 -67.505 
L 368.435795 -67.893649 
L 371.817614 -65.252039 
L 375.199432 -61.236165 
L 378.58125 -61.459487 
L 378.58125 -70.387453 
L 378.58125 -70.387453 
L 375.199432 -70.090803 
L 371.817614 -73.250711 
L 368.435795 -75.407155 
L 365.053977 -95.933341 
L 361.672159 -102.534135 
L 358.290341 -105.921932 
L 354.908523 -116.603042 
L 351.526705 -122.26596 
L 348.144886 -129.059912 
L 344.763068 -128.193172 
L 341.38125 -129.861431 
L 337.999432 -138.7875 
L 334.617614 -141.995573 
L 331.235795 -143.914151 
L 327.853977 -143.08704 
L 324.472159 -144.841655 
L 321.090341 -146.142377 
L 317.708523 -147.861176 
L 314.326705 -148.665061 
L 310.944886 -149.708837 
L 307.563068 -149.597954 
L 304.18125 -149.039453 
L 300.799432 -151.075301 
L 297.417614 -150.932802 
L 294.035795 -150.73557 
L 290.653977 -152.816189 
L 287.272159 -153.22028 
L 283.890341 -155.312292 
L 280.508523 -154.277533 
L 277.126705 -157.13481 
L 273.744886 -158.128246 
L 270.363068 -163.921385 
L 266.98125 -170.698204 
L 263.599432 -172.607471 
L 260.217614 -175.344837 
L 256.835795 -174.934662 
L 253.453977 -183.337821 
L 250.072159 -183.444814 
L 246.690341 -187.047726 
L 243.308523 -189.509196 
L 239.926705 -189.560673 
L 236.544886 -190.965426 
L 233.163068 -189.60612 
L 229.78125 -189.167527 
L 226.399432 -191.05046 
L 223.017614 -191.575807 
L 219.635795 -196.584164 
L 216.253977 -196.820218 
L 212.872159 -200.444249 
L 209.490341 -205.606081 
L 206.108523 -206.867349 
L 202.726705 -207.223705 
L 199.344886 -210.727551 
L 195.963068 -214.497006 
L 192.58125 -221.828432 
L 189.199432 -224.182 
L 185.817614 -222.422044 
L 182.435795 -228.335286 
L 179.053977 -239.007412 
L 175.672159 -247.223609 
L 172.290341 -250.945251 
L 168.908523 -256.417312 
L 165.526705 -254.662309 
L 162.144886 -257.683742 
L 158.763068 -255.61125 
L 155.38125 -254.696357 
L 151.999432 -259.006397 
L 148.617614 -267.067279 
L 145.235795 -275.318856 
L 141.853977 -276.754777 
L 138.472159 -274.823859 
L 135.090341 -275.136833 
L 131.708523 -275.847524 
L 128.326705 -296.779874 
L 124.944886 -293.994354 
L 121.563068 -292.065796 
L 118.18125 -299.468717 
L 114.799432 -297.214995 
L 111.417614 -295.126739 
L 108.035795 -294.253965 
L 104.653977 -291.814385 
L 101.272159 -289.145574 
L 97.890341 -293.864047 
L 94.508523 -294.20951 
L 91.126705 -291.006412 
L 87.744886 -287.462642 
L 84.363068 -285.414481 
L 80.98125 -280.721402 
L 77.599432 -275.297038 
L 74.217614 -267.550017 
L 70.835795 -270.300635 
L 67.453977 -260.136021 
L 64.072159 -250.695358 
L 60.690341 -245.168353 
L 57.308523 -299.803863 
L 53.926705 -334.360617 
L 50.544886 -336.640783 
L 47.163068 -348.184821 
L 43.78125 -348.184821 
z
" id="m6916c3039f" style="stroke:#ffa500;stroke-opacity:0.1;"/>
    </defs>
    <g clip-path="url(#p06f6faffb9)">
     <use style="fill:#ffa500;fill-opacity:0.1;stroke:#ffa500;stroke-opacity:0.1;" x="0" xlink:href="#m6916c3039f" y="370.91625"/>
    </g>
   </g>
   <g id="matplotlib.axis_1">
    <g id="xtick_1">
     <g id="line2d_1">
      <defs>
       <path d="M 0 0 
L 0 3.5 
" id="m400f989d8f" style="stroke:#000000;stroke-width:0.8;"/>
      </defs>
      <g>
       <use style="stroke:#000000;stroke-width:0.8;" x="43.78125" xlink:href="#m400f989d8f" y="333.36"/>
      </g>
     </g>
     <g id="text_1">
      <!-- 0.0 -->
      <g transform="translate(35.829688 347.958438)scale(0.1 -0.1)">
       <defs>
        <path d="M 31.78125 66.40625 
Q 24.171875 66.40625 20.328125 58.90625 
Q 16.5 51.421875 16.5 36.375 
Q 16.5 21.390625 20.328125 13.890625 
Q 24.171875 6.390625 31.78125 6.390625 
Q 39.453125 6.390625 43.28125 13.890625 
Q 47.125 21.390625 47.125 36.375 
Q 47.125 51.421875 43.28125 58.90625 
Q 39.453125 66.40625 31.78125 66.40625 
z
M 31.78125 74.21875 
Q 44.046875 74.21875 50.515625 64.515625 
Q 56.984375 54.828125 56.984375 36.375 
Q 56.984375 17.96875 50.515625 8.265625 
Q 44.046875 -1.421875 31.78125 -1.421875 
Q 19.53125 -1.421875 13.0625 8.265625 
Q 6.59375 17.96875 6.59375 36.375 
Q 6.59375 54.828125 13.0625 64.515625 
Q 19.53125 74.21875 31.78125 74.21875 
z
" id="DejaVuSans-48"/>
        <path d="M 10.6875 12.40625 
L 21 12.40625 
L 21 0 
L 10.6875 0 
z
" id="DejaVuSans-46"/>
       </defs>
       <use xlink:href="#DejaVuSans-48"/>
       <use x="63.623047" xlink:href="#DejaVuSans-46"/>
       <use x="95.410156" xlink:href="#DejaVuSans-48"/>
      </g>
     </g>
    </g>
    <g id="xtick_2">
     <g id="line2d_2">
      <g>
       <use style="stroke:#000000;stroke-width:0.8;" x="110.74125" xlink:href="#m400f989d8f" y="333.36"/>
      </g>
     </g>
     <g id="text_2">
      <!-- 0.2 -->
      <g transform="translate(102.789688 347.958438)scale(0.1 -0.1)">
       <defs>
        <path d="M 19.1875 8.296875 
L 53.609375 8.296875 
L 53.609375 0 
L 7.328125 0 
L 7.328125 8.296875 
Q 12.9375 14.109375 22.625 23.890625 
Q 32.328125 33.6875 34.8125 36.53125 
Q 39.546875 41.84375 41.421875 45.53125 
Q 43.3125 49.21875 43.3125 52.78125 
Q 43.3125 58.59375 39.234375 62.25 
Q 35.15625 65.921875 28.609375 65.921875 
Q 23.96875 65.921875 18.8125 64.3125 
Q 13.671875 62.703125 7.8125 59.421875 
L 7.8125 69.390625 
Q 13.765625 71.78125 18.9375 73 
Q 24.125 74.21875 28.421875 74.21875 
Q 39.75 74.21875 46.484375 68.546875 
Q 53.21875 62.890625 53.21875 53.421875 
Q 53.21875 48.921875 51.53125 44.890625 
Q 49.859375 40.875 45.40625 35.40625 
Q 44.1875 33.984375 37.640625 27.21875 
Q 31.109375 20.453125 19.1875 8.296875 
z
" id="DejaVuSans-50"/>
       </defs>
       <use xlink:href="#DejaVuSans-48"/>
       <use x="63.623047" xlink:href="#DejaVuSans-46"/>
       <use x="95.410156" xlink:href="#DejaVuSans-50"/>
      </g>
     </g>
    </g>
    <g id="xtick_3">
     <g id="line2d_3">
      <g>
       <use style="stroke:#000000;stroke-width:0.8;" x="177.70125" xlink:href="#m400f989d8f" y="333.36"/>
      </g>
     </g>
     <g id="text_3">
      <!-- 0.4 -->
      <g transform="translate(169.749688 347.958438)scale(0.1 -0.1)">
       <defs>
        <path d="M 37.796875 64.3125 
L 12.890625 25.390625 
L 37.796875 25.390625 
z
M 35.203125 72.90625 
L 47.609375 72.90625 
L 47.609375 25.390625 
L 58.015625 25.390625 
L 58.015625 17.1875 
L 47.609375 17.1875 
L 47.609375 0 
L 37.796875 0 
L 37.796875 17.1875 
L 4.890625 17.1875 
L 4.890625 26.703125 
z
" id="DejaVuSans-52"/>
       </defs>
       <use xlink:href="#DejaVuSans-48"/>
       <use x="63.623047" xlink:href="#DejaVuSans-46"/>
       <use x="95.410156" xlink:href="#DejaVuSans-52"/>
      </g>
     </g>
    </g>
    <g id="xtick_4">
     <g id="line2d_4">
      <g>
       <use style="stroke:#000000;stroke-width:0.8;" x="244.66125" xlink:href="#m400f989d8f" y="333.36"/>
      </g>
     </g>
     <g id="text_4">
      <!-- 0.6 -->
      <g transform="translate(236.709688 347.958438)scale(0.1 -0.1)">
       <defs>
        <path d="M 33.015625 40.375 
Q 26.375 40.375 22.484375 35.828125 
Q 18.609375 31.296875 18.609375 23.390625 
Q 18.609375 15.53125 22.484375 10.953125 
Q 26.375 6.390625 33.015625 6.390625 
Q 39.65625 6.390625 43.53125 10.953125 
Q 47.40625 15.53125 47.40625 23.390625 
Q 47.40625 31.296875 43.53125 35.828125 
Q 39.65625 40.375 33.015625 40.375 
z
M 52.59375 71.296875 
L 52.59375 62.3125 
Q 48.875 64.0625 45.09375 64.984375 
Q 41.3125 65.921875 37.59375 65.921875 
Q 27.828125 65.921875 22.671875 59.328125 
Q 17.53125 52.734375 16.796875 39.40625 
Q 19.671875 43.65625 24.015625 45.921875 
Q 28.375 48.1875 33.59375 48.1875 
Q 44.578125 48.1875 50.953125 41.515625 
Q 57.328125 34.859375 57.328125 23.390625 
Q 57.328125 12.15625 50.6875 5.359375 
Q 44.046875 -1.421875 33.015625 -1.421875 
Q 20.359375 -1.421875 13.671875 8.265625 
Q 6.984375 17.96875 6.984375 36.375 
Q 6.984375 53.65625 15.1875 63.9375 
Q 23.390625 74.21875 37.203125 74.21875 
Q 40.921875 74.21875 44.703125 73.484375 
Q 48.484375 72.75 52.59375 71.296875 
z
" id="DejaVuSans-54"/>
       </defs>
       <use xlink:href="#DejaVuSans-48"/>
       <use x="63.623047" xlink:href="#DejaVuSans-46"/>
       <use x="95.410156" xlink:href="#DejaVuSans-54"/>
      </g>
     </g>
    </g>
    <g id="xtick_5">
     <g id="line2d_5">
      <g>
       <use style="stroke:#000000;stroke-width:0.8;" x="311.62125" xlink:href="#m400f989d8f" y="333.36"/>
      </g>
     </g>
     <g id="text_5">
      <!-- 0.8 -->
      <g transform="translate(303.669688 347.958438)scale(0.1 -0.1)">
       <defs>
        <path d="M 31.78125 34.625 
Q 24.75 34.625 20.71875 30.859375 
Q 16.703125 27.09375 16.703125 20.515625 
Q 16.703125 13.921875 20.71875 10.15625 
Q 24.75 6.390625 31.78125 6.390625 
Q 38.8125 6.390625 42.859375 10.171875 
Q 46.921875 13.96875 46.921875 20.515625 
Q 46.921875 27.09375 42.890625 30.859375 
Q 38.875 34.625 31.78125 34.625 
z
M 21.921875 38.8125 
Q 15.578125 40.375 12.03125 44.71875 
Q 8.5 49.078125 8.5 55.328125 
Q 8.5 64.0625 14.71875 69.140625 
Q 20.953125 74.21875 31.78125 74.21875 
Q 42.671875 74.21875 48.875 69.140625 
Q 55.078125 64.0625 55.078125 55.328125 
Q 55.078125 49.078125 51.53125 44.71875 
Q 48 40.375 41.703125 38.8125 
Q 48.828125 37.15625 52.796875 32.3125 
Q 56.78125 27.484375 56.78125 20.515625 
Q 56.78125 9.90625 50.3125 4.234375 
Q 43.84375 -1.421875 31.78125 -1.421875 
Q 19.734375 -1.421875 13.25 4.234375 
Q 6.78125 9.90625 6.78125 20.515625 
Q 6.78125 27.484375 10.78125 32.3125 
Q 14.796875 37.15625 21.921875 38.8125 
z
M 18.3125 54.390625 
Q 18.3125 48.734375 21.84375 45.5625 
Q 25.390625 42.390625 31.78125 42.390625 
Q 38.140625 42.390625 41.71875 45.5625 
Q 45.3125 48.734375 45.3125 54.390625 
Q 45.3125 60.0625 41.71875 63.234375 
Q 38.140625 66.40625 31.78125 66.40625 
Q 25.390625 66.40625 21.84375 63.234375 
Q 18.3125 60.0625 18.3125 54.390625 
z
" id="DejaVuSans-56"/>
       </defs>
       <use xlink:href="#DejaVuSans-48"/>
       <use x="63.623047" xlink:href="#DejaVuSans-46"/>
       <use x="95.410156" xlink:href="#DejaVuSans-56"/>
      </g>
     </g>
    </g>
    <g id="xtick_6">
     <g id="line2d_6">
      <g>
       <use style="stroke:#000000;stroke-width:0.8;" x="378.58125" xlink:href="#m400f989d8f" y="333.36"/>
      </g>
     </g>
     <g id="text_6">
      <!-- 1.0 -->
      <g transform="translate(370.629687 347.958438)scale(0.1 -0.1)">
       <defs>
        <path d="M 12.40625 8.296875 
L 28.515625 8.296875 
L 28.515625 63.921875 
L 10.984375 60.40625 
L 10.984375 69.390625 
L 28.421875 72.90625 
L 38.28125 72.90625 
L 38.28125 8.296875 
L 54.390625 8.296875 
L 54.390625 0 
L 12.40625 0 
z
" id="DejaVuSans-49"/>
       </defs>
       <use xlink:href="#DejaVuSans-49"/>
       <use x="63.623047" xlink:href="#DejaVuSans-46"/>
       <use x="95.410156" xlink:href="#DejaVuSans-48"/>
      </g>
     </g>
    </g>
    <g id="text_7">
     <!-- Recall -->
     <g transform="translate(196.264062 361.636562)scale(0.1 -0.1)">
      <defs>
       <path d="M 44.390625 34.1875 
Q 47.5625 33.109375 50.5625 29.59375 
Q 53.5625 26.078125 56.59375 19.921875 
L 66.609375 0 
L 56 0 
L 46.6875 18.703125 
Q 43.0625 26.03125 39.671875 28.421875 
Q 36.28125 30.8125 30.421875 30.8125 
L 19.671875 30.8125 
L 19.671875 0 
L 9.8125 0 
L 9.8125 72.90625 
L 32.078125 72.90625 
Q 44.578125 72.90625 50.734375 67.671875 
Q 56.890625 62.453125 56.890625 51.90625 
Q 56.890625 45.015625 53.6875 40.46875 
Q 50.484375 35.9375 44.390625 34.1875 
z
M 19.671875 64.796875 
L 19.671875 38.921875 
L 32.078125 38.921875 
Q 39.203125 38.921875 42.84375 42.21875 
Q 46.484375 45.515625 46.484375 51.90625 
Q 46.484375 58.296875 42.84375 61.546875 
Q 39.203125 64.796875 32.078125 64.796875 
z
" id="DejaVuSans-82"/>
       <path d="M 56.203125 29.59375 
L 56.203125 25.203125 
L 14.890625 25.203125 
Q 15.484375 15.921875 20.484375 11.0625 
Q 25.484375 6.203125 34.421875 6.203125 
Q 39.59375 6.203125 44.453125 7.46875 
Q 49.3125 8.734375 54.109375 11.28125 
L 54.109375 2.78125 
Q 49.265625 0.734375 44.1875 -0.34375 
Q 39.109375 -1.421875 33.890625 -1.421875 
Q 20.796875 -1.421875 13.15625 6.1875 
Q 5.515625 13.8125 5.515625 26.8125 
Q 5.515625 40.234375 12.765625 48.109375 
Q 20.015625 56 32.328125 56 
Q 43.359375 56 49.78125 48.890625 
Q 56.203125 41.796875 56.203125 29.59375 
z
M 47.21875 32.234375 
Q 47.125 39.59375 43.09375 43.984375 
Q 39.0625 48.390625 32.421875 48.390625 
Q 24.90625 48.390625 20.390625 44.140625 
Q 15.875 39.890625 15.1875 32.171875 
z
" id="DejaVuSans-101"/>
       <path d="M 48.78125 52.59375 
L 48.78125 44.1875 
Q 44.96875 46.296875 41.140625 47.34375 
Q 37.3125 48.390625 33.40625 48.390625 
Q 24.65625 48.390625 19.8125 42.84375 
Q 14.984375 37.3125 14.984375 27.296875 
Q 14.984375 17.28125 19.8125 11.734375 
Q 24.65625 6.203125 33.40625 6.203125 
Q 37.3125 6.203125 41.140625 7.25 
Q 44.96875 8.296875 48.78125 10.40625 
L 48.78125 2.09375 
Q 45.015625 0.34375 40.984375 -0.53125 
Q 36.96875 -1.421875 32.421875 -1.421875 
Q 20.0625 -1.421875 12.78125 6.34375 
Q 5.515625 14.109375 5.515625 27.296875 
Q 5.515625 40.671875 12.859375 48.328125 
Q 20.21875 56 33.015625 56 
Q 37.15625 56 41.109375 55.140625 
Q 45.0625 54.296875 48.78125 52.59375 
z
" id="DejaVuSans-99"/>
       <path d="M 34.28125 27.484375 
Q 23.390625 27.484375 19.1875 25 
Q 14.984375 22.515625 14.984375 16.5 
Q 14.984375 11.71875 18.140625 8.90625 
Q 21.296875 6.109375 26.703125 6.109375 
Q 34.1875 6.109375 38.703125 11.40625 
Q 43.21875 16.703125 43.21875 25.484375 
L 43.21875 27.484375 
z
M 52.203125 31.203125 
L 52.203125 0 
L 43.21875 0 
L 43.21875 8.296875 
Q 40.140625 3.328125 35.546875 0.953125 
Q 30.953125 -1.421875 24.3125 -1.421875 
Q 15.921875 -1.421875 10.953125 3.296875 
Q 6 8.015625 6 15.921875 
Q 6 25.140625 12.171875 29.828125 
Q 18.359375 34.515625 30.609375 34.515625 
L 43.21875 34.515625 
L 43.21875 35.40625 
Q 43.21875 41.609375 39.140625 45 
Q 35.0625 48.390625 27.6875 48.390625 
Q 23 48.390625 18.546875 47.265625 
Q 14.109375 46.140625 10.015625 43.890625 
L 10.015625 52.203125 
Q 14.9375 54.109375 19.578125 55.046875 
Q 24.21875 56 28.609375 56 
Q 40.484375 56 46.34375 49.84375 
Q 52.203125 43.703125 52.203125 31.203125 
z
" id="DejaVuSans-97"/>
       <path d="M 9.421875 75.984375 
L 18.40625 75.984375 
L 18.40625 0 
L 9.421875 0 
z
" id="DejaVuSans-108"/>
      </defs>
      <use xlink:href="#DejaVuSans-82"/>
      <use x="64.982422" xlink:href="#DejaVuSans-101"/>
      <use x="126.505859" xlink:href="#DejaVuSans-99"/>
      <use x="181.486328" xlink:href="#DejaVuSans-97"/>
      <use x="242.765625" xlink:href="#DejaVuSans-108"/>
      <use x="270.548828" xlink:href="#DejaVuSans-108"/>
     </g>
    </g>
   </g>
   <g id="matplotlib.axis_2">
    <g id="ytick_1">
     <g id="line2d_7">
      <defs>
       <path d="M 0 0 
L -3.5 0 
" id="m451556137d" style="stroke:#000000;stroke-width:0.8;"/>
      </defs>
      <g>
       <use style="stroke:#000000;stroke-width:0.8;" x="43.78125" xlink:href="#m451556137d" y="333.36"/>
      </g>
     </g>
     <g id="text_8">
      <!-- 0.0 -->
      <g transform="translate(20.878125 337.159219)scale(0.1 -0.1)">
       <use xlink:href="#DejaVuSans-48"/>
       <use x="63.623047" xlink:href="#DejaVuSans-46"/>
       <use x="95.410156" xlink:href="#DejaVuSans-48"/>
      </g>
     </g>
    </g>
    <g id="ytick_2">
     <g id="line2d_8">
      <g>
       <use style="stroke:#000000;stroke-width:0.8;" x="43.78125" xlink:href="#m451556137d" y="271.234286"/>
      </g>
     </g>
     <g id="text_9">
      <!-- 0.2 -->
      <g transform="translate(20.878125 275.033504)scale(0.1 -0.1)">
       <use xlink:href="#DejaVuSans-48"/>
       <use x="63.623047" xlink:href="#DejaVuSans-46"/>
       <use x="95.410156" xlink:href="#DejaVuSans-50"/>
      </g>
     </g>
    </g>
    <g id="ytick_3">
     <g id="line2d_9">
      <g>
       <use style="stroke:#000000;stroke-width:0.8;" x="43.78125" xlink:href="#m451556137d" y="209.108571"/>
      </g>
     </g>
     <g id="text_10">
      <!-- 0.4 -->
      <g transform="translate(20.878125 212.90779)scale(0.1 -0.1)">
       <use xlink:href="#DejaVuSans-48"/>
       <use x="63.623047" xlink:href="#DejaVuSans-46"/>
       <use x="95.410156" xlink:href="#DejaVuSans-52"/>
      </g>
     </g>
    </g>
    <g id="ytick_4">
     <g id="line2d_10">
      <g>
       <use style="stroke:#000000;stroke-width:0.8;" x="43.78125" xlink:href="#m451556137d" y="146.982857"/>
      </g>
     </g>
     <g id="text_11">
      <!-- 0.6 -->
      <g transform="translate(20.878125 150.782076)scale(0.1 -0.1)">
       <use xlink:href="#DejaVuSans-48"/>
       <use x="63.623047" xlink:href="#DejaVuSans-46"/>
       <use x="95.410156" xlink:href="#DejaVuSans-54"/>
      </g>
     </g>
    </g>
    <g id="ytick_5">
     <g id="line2d_11">
      <g>
       <use style="stroke:#000000;stroke-width:0.8;" x="43.78125" xlink:href="#m451556137d" y="84.857143"/>
      </g>
     </g>
     <g id="text_12">
      <!-- 0.8 -->
      <g transform="translate(20.878125 88.656362)scale(0.1 -0.1)">
       <use xlink:href="#DejaVuSans-48"/>
       <use x="63.623047" xlink:href="#DejaVuSans-46"/>
       <use x="95.410156" xlink:href="#DejaVuSans-56"/>
      </g>
     </g>
    </g>
    <g id="ytick_6">
     <g id="line2d_12">
      <g>
       <use style="stroke:#000000;stroke-width:0.8;" x="43.78125" xlink:href="#m451556137d" y="22.731429"/>
      </g>
     </g>
     <g id="text_13">
      <!-- 1.0 -->
      <g transform="translate(20.878125 26.530647)scale(0.1 -0.1)">
       <use xlink:href="#DejaVuSans-49"/>
       <use x="63.623047" xlink:href="#DejaVuSans-46"/>
       <use x="95.410156" xlink:href="#DejaVuSans-48"/>
      </g>
     </g>
    </g>
    <g id="text_14">
     <!-- Precision -->
     <g transform="translate(14.798438 192.587031)rotate(-90)scale(0.1 -0.1)">
      <defs>
       <path d="M 19.671875 64.796875 
L 19.671875 37.40625 
L 32.078125 37.40625 
Q 38.96875 37.40625 42.71875 40.96875 
Q 46.484375 44.53125 46.484375 51.125 
Q 46.484375 57.671875 42.71875 61.234375 
Q 38.96875 64.796875 32.078125 64.796875 
z
M 9.8125 72.90625 
L 32.078125 72.90625 
Q 44.34375 72.90625 50.609375 67.359375 
Q 56.890625 61.8125 56.890625 51.125 
Q 56.890625 40.328125 50.609375 34.8125 
Q 44.34375 29.296875 32.078125 29.296875 
L 19.671875 29.296875 
L 19.671875 0 
L 9.8125 0 
z
" id="DejaVuSans-80"/>
       <path d="M 41.109375 46.296875 
Q 39.59375 47.171875 37.8125 47.578125 
Q 36.03125 48 33.890625 48 
Q 26.265625 48 22.1875 43.046875 
Q 18.109375 38.09375 18.109375 28.8125 
L 18.109375 0 
L 9.078125 0 
L 9.078125 54.6875 
L 18.109375 54.6875 
L 18.109375 46.1875 
Q 20.953125 51.171875 25.484375 53.578125 
Q 30.03125 56 36.53125 56 
Q 37.453125 56 38.578125 55.875 
Q 39.703125 55.765625 41.0625 55.515625 
z
" id="DejaVuSans-114"/>
       <path d="M 9.421875 54.6875 
L 18.40625 54.6875 
L 18.40625 0 
L 9.421875 0 
z
M 9.421875 75.984375 
L 18.40625 75.984375 
L 18.40625 64.59375 
L 9.421875 64.59375 
z
" id="DejaVuSans-105"/>
       <path d="M 44.28125 53.078125 
L 44.28125 44.578125 
Q 40.484375 46.53125 36.375 47.5 
Q 32.28125 48.484375 27.875 48.484375 
Q 21.1875 48.484375 17.84375 46.4375 
Q 14.5 44.390625 14.5 40.28125 
Q 14.5 37.15625 16.890625 35.375 
Q 19.28125 33.59375 26.515625 31.984375 
L 29.59375 31.296875 
Q 39.15625 29.25 43.1875 25.515625 
Q 47.21875 21.78125 47.21875 15.09375 
Q 47.21875 7.46875 41.1875 3.015625 
Q 35.15625 -1.421875 24.609375 -1.421875 
Q 20.21875 -1.421875 15.453125 -0.5625 
Q 10.6875 0.296875 5.421875 2 
L 5.421875 11.28125 
Q 10.40625 8.6875 15.234375 7.390625 
Q 20.0625 6.109375 24.8125 6.109375 
Q 31.15625 6.109375 34.5625 8.28125 
Q 37.984375 10.453125 37.984375 14.40625 
Q 37.984375 18.0625 35.515625 20.015625 
Q 33.0625 21.96875 24.703125 23.78125 
L 21.578125 24.515625 
Q 13.234375 26.265625 9.515625 29.90625 
Q 5.8125 33.546875 5.8125 39.890625 
Q 5.8125 47.609375 11.28125 51.796875 
Q 16.75 56 26.8125 56 
Q 31.78125 56 36.171875 55.265625 
Q 40.578125 54.546875 44.28125 53.078125 
z
" id="DejaVuSans-115"/>
       <path d="M 30.609375 48.390625 
Q 23.390625 48.390625 19.1875 42.75 
Q 14.984375 37.109375 14.984375 27.296875 
Q 14.984375 17.484375 19.15625 11.84375 
Q 23.34375 6.203125 30.609375 6.203125 
Q 37.796875 6.203125 41.984375 11.859375 
Q 46.1875 17.53125 46.1875 27.296875 
Q 46.1875 37.015625 41.984375 42.703125 
Q 37.796875 48.390625 30.609375 48.390625 
z
M 30.609375 56 
Q 42.328125 56 49.015625 48.375 
Q 55.71875 40.765625 55.71875 27.296875 
Q 55.71875 13.875 49.015625 6.21875 
Q 42.328125 -1.421875 30.609375 -1.421875 
Q 18.84375 -1.421875 12.171875 6.21875 
Q 5.515625 13.875 5.515625 27.296875 
Q 5.515625 40.765625 12.171875 48.375 
Q 18.84375 56 30.609375 56 
z
" id="DejaVuSans-111"/>
       <path d="M 54.890625 33.015625 
L 54.890625 0 
L 45.90625 0 
L 45.90625 32.71875 
Q 45.90625 40.484375 42.875 44.328125 
Q 39.84375 48.1875 33.796875 48.1875 
Q 26.515625 48.1875 22.3125 43.546875 
Q 18.109375 38.921875 18.109375 30.90625 
L 18.109375 0 
L 9.078125 0 
L 9.078125 54.6875 
L 18.109375 54.6875 
L 18.109375 46.1875 
Q 21.34375 51.125 25.703125 53.5625 
Q 30.078125 56 35.796875 56 
Q 45.21875 56 50.046875 50.171875 
Q 54.890625 44.34375 54.890625 33.015625 
z
" id="DejaVuSans-110"/>
      </defs>
      <use xlink:href="#DejaVuSans-80"/>
      <use x="58.552734" xlink:href="#DejaVuSans-114"/>
      <use x="97.416016" xlink:href="#DejaVuSans-101"/>
      <use x="158.939453" xlink:href="#DejaVuSans-99"/>
      <use x="213.919922" xlink:href="#DejaVuSans-105"/>
      <use x="241.703125" xlink:href="#DejaVuSans-115"/>
      <use x="293.802734" xlink:href="#DejaVuSans-105"/>
      <use x="321.585938" xlink:href="#DejaVuSans-111"/>
      <use x="382.767578" xlink:href="#DejaVuSans-110"/>
     </g>
    </g>
   </g>
   <g id="line2d_13">
    <path clip-path="url(#p06f6faffb9)" d="M 43.78125 146.982857 
L 47.163068 103.683117 
L 50.544886 122.85274 
L 53.926705 128.376519 
L 57.308523 112.953664 
L 60.690341 101.661068 
L 64.072159 92.980428 
L 67.453977 86.074176 
L 70.835795 84.307625 
L 74.217614 86.090141 
L 77.599432 83.983785 
L 80.98125 84.136765 
L 84.363068 89.126959 
L 87.744886 88.884688 
L 91.126705 94.306443 
L 94.508523 90.770262 
L 97.890341 87.573516 
L 101.272159 92.622283 
L 104.653977 89.674011 
L 108.035795 89.201388 
L 111.417614 90.996692 
L 114.799432 91.277716 
L 118.18125 98.431697 
L 121.563068 97.458845 
L 124.944886 95.125457 
L 128.326705 92.933857 
L 131.708523 92.052015 
L 135.090341 91.394676 
L 138.472159 90.733322 
L 141.853977 88.946833 
L 145.235795 90.023625 
L 148.617614 92.203939 
L 151.999432 100.510197 
L 155.38125 98.767935 
L 158.763068 99.288532 
L 162.144886 101.480984 
L 165.526705 103.018557 
L 168.908523 111.660059 
L 172.290341 119.375271 
L 175.672159 118.315956 
L 179.053977 117.289883 
L 182.435795 124.816481 
L 185.817614 126.804042 
L 189.199432 125.29969 
L 192.58125 128.606127 
L 195.963068 132.772306 
L 199.344886 134.372795 
L 202.726705 141.340877 
L 206.108523 142.923654 
L 209.490341 147.561416 
L 212.872159 151.503951 
L 216.253977 154.879415 
L 219.635795 157.25273 
L 223.017614 164.367625 
L 226.399432 170.533286 
L 229.78125 172.818042 
L 233.163068 174.444185 
L 236.544886 173.107052 
L 239.926705 173.701209 
L 243.308523 176.219813 
L 246.690341 177.943192 
L 250.072159 185.088307 
L 253.453977 189.840406 
L 256.835795 192.965006 
L 260.217614 194.951713 
L 263.599432 196.413182 
L 266.98125 197.301769 
L 270.363068 199.480217 
L 273.744886 200.622013 
L 277.126705 201.266167 
L 280.508523 201.873047 
L 283.890341 200.809253 
L 287.272159 210.690963 
L 290.653977 212.424486 
L 294.035795 217.413235 
L 297.417614 218.627231 
L 300.799432 220.708783 
L 304.18125 223.78509 
L 307.563068 225.789535 
L 310.944886 229.853007 
L 314.326705 234.080553 
L 317.708523 235.96794 
L 321.090341 238.055238 
L 324.472159 239.046587 
L 327.853977 240.270636 
L 331.235795 239.505749 
L 334.617614 241.495994 
L 337.999432 242.317748 
L 341.38125 248.197437 
L 344.763068 255.200607 
L 348.144886 262.577253 
L 351.526705 271.081447 
L 354.908523 274.198052 
L 358.290341 280.945565 
L 361.672159 286.424232 
L 365.053977 294.554302 
L 368.435795 299.108669 
L 371.817614 304.351299 
L 375.199432 307.99247 
L 378.58125 307.766301 
" style="fill:none;stroke:#ef8191;stroke-linecap:square;stroke-width:2;"/>
   </g>
   <g id="line2d_14">
    <path clip-path="url(#p06f6faffb9)" d="M 43.78125 22.731429 
L 47.163068 22.731429 
L 50.544886 22.731429 
L 53.926705 22.731429 
L 57.308523 22.731429 
L 60.690341 52.613927 
L 64.072159 74.682152 
L 67.453977 78.686407 
L 70.835795 73.316884 
L 74.217614 68.894999 
L 77.599432 78.304099 
L 80.98125 84.474968 
L 84.363068 105.588633 
L 87.744886 105.527786 
L 91.126705 112.456338 
L 94.508523 108.406241 
L 97.890341 112.543974 
L 101.272159 121.512243 
L 104.653977 119.559982 
L 108.035795 120.67607 
L 111.417614 122.368821 
L 114.799432 130.162921 
L 118.18125 132.845099 
L 121.563068 133.192212 
L 124.944886 138.205662 
L 128.326705 137.852001 
L 131.708523 146.08023 
L 135.090341 144.804128 
L 138.472159 149.431657 
L 141.853977 146.902296 
L 145.235795 147.846082 
L 148.617614 152.394351 
L 151.999432 154.692581 
L 155.38125 155.311343 
L 158.763068 164.140873 
L 162.144886 167.877073 
L 165.526705 172.878621 
L 168.908523 177.048776 
L 172.290341 178.442758 
L 175.672159 179.148677 
L 179.053977 185.432879 
L 182.435795 190.930065 
L 185.817614 195.651621 
L 189.199432 193.882976 
L 192.58125 197.756581 
L 195.963068 198.632338 
L 199.344886 198.061485 
L 202.726705 201.511835 
L 206.108523 206.584922 
L 209.490341 207.866316 
L 212.872159 210.762709 
L 216.253977 213.325291 
L 219.635795 219.621595 
L 223.017614 224.02209 
L 226.399432 224.094669 
L 229.78125 225.507155 
L 233.163068 226.676446 
L 236.544886 225.443799 
L 239.926705 227.117054 
L 243.308523 227.51998 
L 246.690341 230.604143 
L 250.072159 231.614627 
L 253.453977 233.004475 
L 256.835795 235.878793 
L 260.217614 235.700135 
L 263.599432 235.636114 
L 266.98125 235.360244 
L 270.363068 235.423914 
L 273.744886 235.864654 
L 277.126705 236.228027 
L 280.508523 237.267714 
L 283.890341 236.327931 
L 287.272159 237.153477 
L 290.653977 239.26683 
L 294.035795 240.344821 
L 297.417614 242.380907 
L 300.799432 243.471213 
L 304.18125 246.004949 
L 307.563068 247.347204 
L 310.944886 248.377971 
L 314.326705 249.806601 
L 317.708523 250.549402 
L 321.090341 251.413679 
L 324.472159 252.533196 
L 327.853977 252.793198 
L 331.235795 252.090064 
L 334.617614 253.459359 
L 337.999432 254.602335 
L 341.38125 257.990799 
L 344.763068 260.650261 
L 348.144886 263.441829 
L 351.526705 271.154689 
L 354.908523 273.476917 
L 358.290341 277.086589 
L 361.672159 284.810217 
L 365.053977 291.652896 
L 368.435795 297.043637 
L 371.817614 302.910877 
L 375.199432 305.09297 
L 378.58125 304.831057 
" style="fill:none;stroke:#566cb3;stroke-linecap:square;stroke-width:2;"/>
   </g>
   <g id="line2d_15">
    <path clip-path="url(#p06f6faffb9)" d="M 43.78125 146.982857 
L 47.163068 98.872035 
L 50.544886 120.019879 
L 53.926705 111.823109 
L 57.308523 126.689652 
L 60.690341 147.231878 
L 64.072159 142.491246 
L 67.453977 137.669802 
L 70.835795 132.867862 
L 74.217614 129.392901 
L 77.599432 124.148394 
L 80.98125 117.958885 
L 84.363068 112.493884 
L 87.744886 112.23726 
L 91.126705 109.684317 
L 94.508523 105.629539 
L 97.890341 104.406804 
L 101.272159 105.758454 
L 104.653977 102.432298 
L 108.035795 99.362901 
L 111.417614 98.357383 
L 114.799432 95.676155 
L 118.18125 94.59578 
L 121.563068 97.861314 
L 124.944886 95.508307 
L 128.326705 95.763869 
L 131.708523 110.070629 
L 135.090341 110.31455 
L 138.472159 115.660544 
L 141.853977 113.435383 
L 145.235795 115.506272 
L 148.617614 122.704126 
L 151.999432 130.706411 
L 155.38125 140.867167 
L 158.763068 141.307094 
L 162.144886 141.881879 
L 165.526705 146.042969 
L 168.908523 144.08813 
L 172.290341 148.255932 
L 175.672159 150.958411 
L 179.053977 158.530104 
L 182.435795 165.773766 
L 185.817614 172.348039 
L 189.199432 170.56733 
L 192.58125 172.76094 
L 195.963068 178.904435 
L 199.344886 180.509105 
L 202.726705 183.580725 
L 206.108523 185.10797 
L 209.490341 187.311125 
L 212.872159 190.388636 
L 216.253977 194.225737 
L 219.635795 195.033634 
L 223.017614 198.237399 
L 226.399432 198.491526 
L 229.78125 199.957911 
L 233.163068 199.998246 
L 236.544886 198.669397 
L 239.926705 202.018886 
L 243.308523 203.081414 
L 246.690341 203.746221 
L 250.072159 208.396796 
L 253.453977 208.152163 
L 256.835795 211.07236 
L 260.217614 211.176079 
L 263.599432 213.449365 
L 266.98125 215.589006 
L 270.363068 219.563056 
L 273.744886 224.176859 
L 277.126705 225.39528 
L 280.508523 227.38985 
L 283.890341 226.402432 
L 287.272159 227.170517 
L 290.653977 228.862959 
L 294.035795 229.914687 
L 297.417614 230.335305 
L 300.799432 229.875253 
L 304.18125 231.553227 
L 307.563068 231.184033 
L 310.944886 231.974711 
L 314.326705 234.049087 
L 317.708523 235.103134 
L 321.090341 238.923845 
L 324.472159 240.897906 
L 327.853977 243.884184 
L 331.235795 243.138164 
L 334.617614 245.553897 
L 337.999432 248.268823 
L 341.38125 254.533131 
L 344.763068 256.955841 
L 348.144886 262.058608 
L 351.526705 268.271556 
L 354.908523 273.138162 
L 358.290341 280.874699 
L 361.672159 284.898528 
L 365.053977 289.19708 
L 368.435795 299.265848 
L 371.817614 301.664875 
L 375.199432 305.252766 
L 378.58125 304.99278 
" style="fill:none;stroke:#ffa500;stroke-linecap:square;stroke-width:2;"/>
   </g>
   <g id="patch_3">
    <path d="M 43.78125 333.36 
L 43.78125 7.2 
" style="fill:none;stroke:#000000;stroke-linecap:square;stroke-linejoin:miter;stroke-width:0.8;"/>
   </g>
   <g id="patch_4">
    <path d="M 378.58125 333.36 
L 378.58125 7.2 
" style="fill:none;stroke:#000000;stroke-linecap:square;stroke-linejoin:miter;stroke-width:0.8;"/>
   </g>
   <g id="patch_5">
    <path d="M 43.78125 333.36 
L 378.58125 333.36 
" style="fill:none;stroke:#000000;stroke-linecap:square;stroke-linejoin:miter;stroke-width:0.8;"/>
   </g>
   <g id="patch_6">
    <path d="M 43.78125 7.2 
L 378.58125 7.2 
" style="fill:none;stroke:#000000;stroke-linecap:square;stroke-linejoin:miter;stroke-width:0.8;"/>
   </g>
   <g id="legend_1">
    <g id="patch_7">
     <path d="M 124.15125 328.86 
L 372.28125 328.86 
Q 374.08125 328.86 374.08125 327.06 
L 374.08125 287.91 
Q 374.08125 286.11 372.28125 286.11 
L 124.15125 286.11 
Q 122.35125 286.11 122.35125 287.91 
L 122.35125 327.06 
Q 122.35125 328.86 124.15125 328.86 
z
" style="fill:#ffffff;opacity:0.8;stroke:#cccccc;stroke-linejoin:miter;"/>
    </g>
    <g id="line2d_16">
     <path d="M 125.95125 293.4 
L 143.95125 293.4 
" style="fill:none;stroke:#ef8191;stroke-linecap:square;stroke-width:2;"/>
    </g>
    <g id="line2d_17"/>
    <g id="text_15">
     <!-- BNNR (aps = 0.55 $\pm$ 0.07) -->
     <g transform="translate(151.15125 296.55)scale(0.09 -0.09)">
      <defs>
       <path d="M 19.671875 34.8125 
L 19.671875 8.109375 
L 35.5 8.109375 
Q 43.453125 8.109375 47.28125 11.40625 
Q 51.125 14.703125 51.125 21.484375 
Q 51.125 28.328125 47.28125 31.5625 
Q 43.453125 34.8125 35.5 34.8125 
z
M 19.671875 64.796875 
L 19.671875 42.828125 
L 34.28125 42.828125 
Q 41.5 42.828125 45.03125 45.53125 
Q 48.578125 48.25 48.578125 53.8125 
Q 48.578125 59.328125 45.03125 62.0625 
Q 41.5 64.796875 34.28125 64.796875 
z
M 9.8125 72.90625 
L 35.015625 72.90625 
Q 46.296875 72.90625 52.390625 68.21875 
Q 58.5 63.53125 58.5 54.890625 
Q 58.5 48.1875 55.375 44.234375 
Q 52.25 40.28125 46.1875 39.3125 
Q 53.46875 37.75 57.5 32.78125 
Q 61.53125 27.828125 61.53125 20.40625 
Q 61.53125 10.640625 54.890625 5.3125 
Q 48.25 0 35.984375 0 
L 9.8125 0 
z
" id="DejaVuSans-66"/>
       <path d="M 9.8125 72.90625 
L 23.09375 72.90625 
L 55.421875 11.921875 
L 55.421875 72.90625 
L 64.984375 72.90625 
L 64.984375 0 
L 51.703125 0 
L 19.390625 60.984375 
L 19.390625 0 
L 9.8125 0 
z
" id="DejaVuSans-78"/>
       <path id="DejaVuSans-32"/>
       <path d="M 31 75.875 
Q 24.46875 64.65625 21.28125 53.65625 
Q 18.109375 42.671875 18.109375 31.390625 
Q 18.109375 20.125 21.3125 9.0625 
Q 24.515625 -2 31 -13.1875 
L 23.1875 -13.1875 
Q 15.875 -1.703125 12.234375 9.375 
Q 8.59375 20.453125 8.59375 31.390625 
Q 8.59375 42.28125 12.203125 53.3125 
Q 15.828125 64.359375 23.1875 75.875 
z
" id="DejaVuSans-40"/>
       <path d="M 18.109375 8.203125 
L 18.109375 -20.796875 
L 9.078125 -20.796875 
L 9.078125 54.6875 
L 18.109375 54.6875 
L 18.109375 46.390625 
Q 20.953125 51.265625 25.265625 53.625 
Q 29.59375 56 35.59375 56 
Q 45.5625 56 51.78125 48.09375 
Q 58.015625 40.1875 58.015625 27.296875 
Q 58.015625 14.40625 51.78125 6.484375 
Q 45.5625 -1.421875 35.59375 -1.421875 
Q 29.59375 -1.421875 25.265625 0.953125 
Q 20.953125 3.328125 18.109375 8.203125 
z
M 48.6875 27.296875 
Q 48.6875 37.203125 44.609375 42.84375 
Q 40.53125 48.484375 33.40625 48.484375 
Q 26.265625 48.484375 22.1875 42.84375 
Q 18.109375 37.203125 18.109375 27.296875 
Q 18.109375 17.390625 22.1875 11.75 
Q 26.265625 6.109375 33.40625 6.109375 
Q 40.53125 6.109375 44.609375 11.75 
Q 48.6875 17.390625 48.6875 27.296875 
z
" id="DejaVuSans-112"/>
       <path d="M 10.59375 45.40625 
L 73.1875 45.40625 
L 73.1875 37.203125 
L 10.59375 37.203125 
z
M 10.59375 25.484375 
L 73.1875 25.484375 
L 73.1875 17.1875 
L 10.59375 17.1875 
z
" id="DejaVuSans-61"/>
       <path d="M 10.796875 72.90625 
L 49.515625 72.90625 
L 49.515625 64.59375 
L 19.828125 64.59375 
L 19.828125 46.734375 
Q 21.96875 47.46875 24.109375 47.828125 
Q 26.265625 48.1875 28.421875 48.1875 
Q 40.625 48.1875 47.75 41.5 
Q 54.890625 34.8125 54.890625 23.390625 
Q 54.890625 11.625 47.5625 5.09375 
Q 40.234375 -1.421875 26.90625 -1.421875 
Q 22.3125 -1.421875 17.546875 -0.640625 
Q 12.796875 0.140625 7.71875 1.703125 
L 7.71875 11.625 
Q 12.109375 9.234375 16.796875 8.0625 
Q 21.484375 6.890625 26.703125 6.890625 
Q 35.15625 6.890625 40.078125 11.328125 
Q 45.015625 15.765625 45.015625 23.390625 
Q 45.015625 31 40.078125 35.4375 
Q 35.15625 39.890625 26.703125 39.890625 
Q 22.75 39.890625 18.8125 39.015625 
Q 14.890625 38.140625 10.796875 36.28125 
z
" id="DejaVuSans-53"/>
       <path d="M 46 62.703125 
L 46 43.796875 
L 73.1875 43.796875 
L 73.1875 35.5 
L 46 35.5 
L 46 16.609375 
L 37.796875 16.609375 
L 37.796875 35.5 
L 10.59375 35.5 
L 10.59375 43.796875 
L 37.796875 43.796875 
L 37.796875 62.703125 
z
M 10.59375 8.296875 
L 73.1875 8.296875 
L 73.1875 0 
L 10.59375 0 
z
" id="DejaVuSans-177"/>
       <path d="M 8.203125 72.90625 
L 55.078125 72.90625 
L 55.078125 68.703125 
L 28.609375 0 
L 18.3125 0 
L 43.21875 64.59375 
L 8.203125 64.59375 
z
" id="DejaVuSans-55"/>
       <path d="M 8.015625 75.875 
L 15.828125 75.875 
Q 23.140625 64.359375 26.78125 53.3125 
Q 30.421875 42.28125 30.421875 31.390625 
Q 30.421875 20.453125 26.78125 9.375 
Q 23.140625 -1.703125 15.828125 -13.1875 
L 8.015625 -13.1875 
Q 14.5 -2 17.703125 9.0625 
Q 20.90625 20.125 20.90625 31.390625 
Q 20.90625 42.671875 17.703125 53.65625 
Q 14.5 64.65625 8.015625 75.875 
z
" id="DejaVuSans-41"/>
      </defs>
      <use transform="translate(0 0.125)" xlink:href="#DejaVuSans-66"/>
      <use transform="translate(68.603516 0.125)" xlink:href="#DejaVuSans-78"/>
      <use transform="translate(143.408203 0.125)" xlink:href="#DejaVuSans-78"/>
      <use transform="translate(214.587891 0.125)" xlink:href="#DejaVuSans-82"/>
      <use transform="translate(284.070312 0.125)" xlink:href="#DejaVuSans-32"/>
      <use transform="translate(315.857422 0.125)" xlink:href="#DejaVuSans-40"/>
      <use transform="translate(354.871094 0.125)" xlink:href="#DejaVuSans-97"/>
      <use transform="translate(416.150391 0.125)" xlink:href="#DejaVuSans-112"/>
      <use transform="translate(479.626953 0.125)" xlink:href="#DejaVuSans-115"/>
      <use transform="translate(531.726562 0.125)" xlink:href="#DejaVuSans-32"/>
      <use transform="translate(563.513672 0.125)" xlink:href="#DejaVuSans-61"/>
      <use transform="translate(647.302734 0.125)" xlink:href="#DejaVuSans-32"/>
      <use transform="translate(679.089844 0.125)" xlink:href="#DejaVuSans-48"/>
      <use transform="translate(742.712891 0.125)" xlink:href="#DejaVuSans-46"/>
      <use transform="translate(774.5 0.125)" xlink:href="#DejaVuSans-53"/>
      <use transform="translate(838.123047 0.125)" xlink:href="#DejaVuSans-53"/>
      <use transform="translate(901.746094 0.125)" xlink:href="#DejaVuSans-32"/>
      <use transform="translate(933.533203 0.125)" xlink:href="#DejaVuSans-177"/>
      <use transform="translate(1017.322266 0.125)" xlink:href="#DejaVuSans-32"/>
      <use transform="translate(1049.109375 0.125)" xlink:href="#DejaVuSans-48"/>
      <use transform="translate(1112.732422 0.125)" xlink:href="#DejaVuSans-46"/>
      <use transform="translate(1144.519531 0.125)" xlink:href="#DejaVuSans-48"/>
      <use transform="translate(1208.142578 0.125)" xlink:href="#DejaVuSans-55"/>
      <use transform="translate(1271.765625 0.125)" xlink:href="#DejaVuSans-41"/>
     </g>
    </g>
    <g id="line2d_18">
     <path d="M 125.95125 306.63 
L 143.95125 306.63 
" style="fill:none;stroke:#566cb3;stroke-linecap:square;stroke-width:2;"/>
    </g>
    <g id="line2d_19"/>
    <g id="text_16">
     <!-- SVT (aps = 0.46 $\pm$ 0.04) -->
     <g transform="translate(151.15125 309.78)scale(0.09 -0.09)">
      <defs>
       <path d="M 53.515625 70.515625 
L 53.515625 60.890625 
Q 47.90625 63.578125 42.921875 64.890625 
Q 37.9375 66.21875 33.296875 66.21875 
Q 25.25 66.21875 20.875 63.09375 
Q 16.5 59.96875 16.5 54.203125 
Q 16.5 49.359375 19.40625 46.890625 
Q 22.3125 44.4375 30.421875 42.921875 
L 36.375 41.703125 
Q 47.40625 39.59375 52.65625 34.296875 
Q 57.90625 29 57.90625 20.125 
Q 57.90625 9.515625 50.796875 4.046875 
Q 43.703125 -1.421875 29.984375 -1.421875 
Q 24.8125 -1.421875 18.96875 -0.25 
Q 13.140625 0.921875 6.890625 3.21875 
L 6.890625 13.375 
Q 12.890625 10.015625 18.65625 8.296875 
Q 24.421875 6.59375 29.984375 6.59375 
Q 38.421875 6.59375 43.015625 9.90625 
Q 47.609375 13.234375 47.609375 19.390625 
Q 47.609375 24.75 44.3125 27.78125 
Q 41.015625 30.8125 33.5 32.328125 
L 27.484375 33.5 
Q 16.453125 35.6875 11.515625 40.375 
Q 6.59375 45.0625 6.59375 53.421875 
Q 6.59375 63.09375 13.40625 68.65625 
Q 20.21875 74.21875 32.171875 74.21875 
Q 37.3125 74.21875 42.625 73.28125 
Q 47.953125 72.359375 53.515625 70.515625 
z
" id="DejaVuSans-83"/>
       <path d="M 28.609375 0 
L 0.78125 72.90625 
L 11.078125 72.90625 
L 34.1875 11.53125 
L 57.328125 72.90625 
L 67.578125 72.90625 
L 39.796875 0 
z
" id="DejaVuSans-86"/>
       <path d="M -0.296875 72.90625 
L 61.375 72.90625 
L 61.375 64.59375 
L 35.5 64.59375 
L 35.5 0 
L 25.59375 0 
L 25.59375 64.59375 
L -0.296875 64.59375 
z
" id="DejaVuSans-84"/>
      </defs>
      <use transform="translate(0 0.125)" xlink:href="#DejaVuSans-83"/>
      <use transform="translate(63.476562 0.125)" xlink:href="#DejaVuSans-86"/>
      <use transform="translate(131.884766 0.125)" xlink:href="#DejaVuSans-84"/>
      <use transform="translate(192.96875 0.125)" xlink:href="#DejaVuSans-32"/>
      <use transform="translate(224.755859 0.125)" xlink:href="#DejaVuSans-40"/>
      <use transform="translate(263.769531 0.125)" xlink:href="#DejaVuSans-97"/>
      <use transform="translate(325.048828 0.125)" xlink:href="#DejaVuSans-112"/>
      <use transform="translate(388.525391 0.125)" xlink:href="#DejaVuSans-115"/>
      <use transform="translate(440.625 0.125)" xlink:href="#DejaVuSans-32"/>
      <use transform="translate(472.412109 0.125)" xlink:href="#DejaVuSans-61"/>
      <use transform="translate(556.201172 0.125)" xlink:href="#DejaVuSans-32"/>
      <use transform="translate(587.988281 0.125)" xlink:href="#DejaVuSans-48"/>
      <use transform="translate(651.611328 0.125)" xlink:href="#DejaVuSans-46"/>
      <use transform="translate(683.398438 0.125)" xlink:href="#DejaVuSans-52"/>
      <use transform="translate(747.021484 0.125)" xlink:href="#DejaVuSans-54"/>
      <use transform="translate(810.644531 0.125)" xlink:href="#DejaVuSans-32"/>
      <use transform="translate(842.431641 0.125)" xlink:href="#DejaVuSans-177"/>
      <use transform="translate(926.220703 0.125)" xlink:href="#DejaVuSans-32"/>
      <use transform="translate(958.007812 0.125)" xlink:href="#DejaVuSans-48"/>
      <use transform="translate(1021.630859 0.125)" xlink:href="#DejaVuSans-46"/>
      <use transform="translate(1053.417969 0.125)" xlink:href="#DejaVuSans-48"/>
      <use transform="translate(1117.041016 0.125)" xlink:href="#DejaVuSans-52"/>
      <use transform="translate(1180.664062 0.125)" xlink:href="#DejaVuSans-41"/>
     </g>
    </g>
    <g id="line2d_20">
     <path d="M 125.95125 320.22 
L 143.95125 320.22 
" style="fill:none;stroke:#ffa500;stroke-linecap:square;stroke-width:2;"/>
    </g>
    <g id="line2d_21"/>
    <g id="text_17">
     <!-- Cands and Recht's method (aps = 0.49 $\pm$ 0.05) -->
     <g transform="translate(151.15125 323.37)scale(0.09 -0.09)">
      <defs>
       <path d="M 64.40625 67.28125 
L 64.40625 56.890625 
Q 59.421875 61.53125 53.78125 63.8125 
Q 48.140625 66.109375 41.796875 66.109375 
Q 29.296875 66.109375 22.65625 58.46875 
Q 16.015625 50.828125 16.015625 36.375 
Q 16.015625 21.96875 22.65625 14.328125 
Q 29.296875 6.6875 41.796875 6.6875 
Q 48.140625 6.6875 53.78125 8.984375 
Q 59.421875 11.28125 64.40625 15.921875 
L 64.40625 5.609375 
Q 59.234375 2.09375 53.4375 0.328125 
Q 47.65625 -1.421875 41.21875 -1.421875 
Q 24.65625 -1.421875 15.125 8.703125 
Q 5.609375 18.84375 5.609375 36.375 
Q 5.609375 53.953125 15.125 64.078125 
Q 24.65625 74.21875 41.21875 74.21875 
Q 47.75 74.21875 53.53125 72.484375 
Q 59.328125 70.75 64.40625 67.28125 
z
" id="DejaVuSans-67"/>
       <path d="M 45.40625 46.390625 
L 45.40625 75.984375 
L 54.390625 75.984375 
L 54.390625 0 
L 45.40625 0 
L 45.40625 8.203125 
Q 42.578125 3.328125 38.25 0.953125 
Q 33.9375 -1.421875 27.875 -1.421875 
Q 17.96875 -1.421875 11.734375 6.484375 
Q 5.515625 14.40625 5.515625 27.296875 
Q 5.515625 40.1875 11.734375 48.09375 
Q 17.96875 56 27.875 56 
Q 33.9375 56 38.25 53.625 
Q 42.578125 51.265625 45.40625 46.390625 
z
M 14.796875 27.296875 
Q 14.796875 17.390625 18.875 11.75 
Q 22.953125 6.109375 30.078125 6.109375 
Q 37.203125 6.109375 41.296875 11.75 
Q 45.40625 17.390625 45.40625 27.296875 
Q 45.40625 37.203125 41.296875 42.84375 
Q 37.203125 48.484375 30.078125 48.484375 
Q 22.953125 48.484375 18.875 42.84375 
Q 14.796875 37.203125 14.796875 27.296875 
z
" id="DejaVuSans-100"/>
       <path d="M 56.203125 29.59375 
L 56.203125 25.203125 
L 14.890625 25.203125 
Q 15.484375 15.921875 20.484375 11.0625 
Q 25.484375 6.203125 34.421875 6.203125 
Q 39.59375 6.203125 44.453125 7.46875 
Q 49.3125 8.734375 54.109375 11.28125 
L 54.109375 2.78125 
Q 49.265625 0.734375 44.1875 -0.34375 
Q 39.109375 -1.421875 33.890625 -1.421875 
Q 20.796875 -1.421875 13.15625 6.1875 
Q 5.515625 13.8125 5.515625 26.8125 
Q 5.515625 40.234375 12.765625 48.109375 
Q 20.015625 56 32.328125 56 
Q 43.359375 56 49.78125 48.890625 
Q 56.203125 41.796875 56.203125 29.59375 
z
M 47.21875 32.234375 
Q 47.125 39.59375 43.09375 43.984375 
Q 39.0625 48.390625 32.421875 48.390625 
Q 24.90625 48.390625 20.390625 44.140625 
Q 15.875 39.890625 15.1875 32.171875 
z
M 24.703125 79.984375 
L 38.484375 61.71875 
L 31 61.71875 
L 15.09375 79.984375 
z
" id="DejaVuSans-232"/>
       <path d="M 54.890625 33.015625 
L 54.890625 0 
L 45.90625 0 
L 45.90625 32.71875 
Q 45.90625 40.484375 42.875 44.328125 
Q 39.84375 48.1875 33.796875 48.1875 
Q 26.515625 48.1875 22.3125 43.546875 
Q 18.109375 38.921875 18.109375 30.90625 
L 18.109375 0 
L 9.078125 0 
L 9.078125 75.984375 
L 18.109375 75.984375 
L 18.109375 46.1875 
Q 21.34375 51.125 25.703125 53.5625 
Q 30.078125 56 35.796875 56 
Q 45.21875 56 50.046875 50.171875 
Q 54.890625 44.34375 54.890625 33.015625 
z
" id="DejaVuSans-104"/>
       <path d="M 18.3125 70.21875 
L 18.3125 54.6875 
L 36.8125 54.6875 
L 36.8125 47.703125 
L 18.3125 47.703125 
L 18.3125 18.015625 
Q 18.3125 11.328125 20.140625 9.421875 
Q 21.96875 7.515625 27.59375 7.515625 
L 36.8125 7.515625 
L 36.8125 0 
L 27.59375 0 
Q 17.1875 0 13.234375 3.875 
Q 9.28125 7.765625 9.28125 18.015625 
L 9.28125 47.703125 
L 2.6875 47.703125 
L 2.6875 54.6875 
L 9.28125 54.6875 
L 9.28125 70.21875 
z
" id="DejaVuSans-116"/>
       <path d="M 17.921875 72.90625 
L 17.921875 45.796875 
L 9.625 45.796875 
L 9.625 72.90625 
z
" id="DejaVuSans-39"/>
       <path d="M 52 44.1875 
Q 55.375 50.25 60.0625 53.125 
Q 64.75 56 71.09375 56 
Q 79.640625 56 84.28125 50.015625 
Q 88.921875 44.046875 88.921875 33.015625 
L 88.921875 0 
L 79.890625 0 
L 79.890625 32.71875 
Q 79.890625 40.578125 77.09375 44.375 
Q 74.3125 48.1875 68.609375 48.1875 
Q 61.625 48.1875 57.5625 43.546875 
Q 53.515625 38.921875 53.515625 30.90625 
L 53.515625 0 
L 44.484375 0 
L 44.484375 32.71875 
Q 44.484375 40.625 41.703125 44.40625 
Q 38.921875 48.1875 33.109375 48.1875 
Q 26.21875 48.1875 22.15625 43.53125 
Q 18.109375 38.875 18.109375 30.90625 
L 18.109375 0 
L 9.078125 0 
L 9.078125 54.6875 
L 18.109375 54.6875 
L 18.109375 46.1875 
Q 21.1875 51.21875 25.484375 53.609375 
Q 29.78125 56 35.6875 56 
Q 41.65625 56 45.828125 52.96875 
Q 50 49.953125 52 44.1875 
z
" id="DejaVuSans-109"/>
       <path d="M 10.984375 1.515625 
L 10.984375 10.5 
Q 14.703125 8.734375 18.5 7.8125 
Q 22.3125 6.890625 25.984375 6.890625 
Q 35.75 6.890625 40.890625 13.453125 
Q 46.046875 20.015625 46.78125 33.40625 
Q 43.953125 29.203125 39.59375 26.953125 
Q 35.25 24.703125 29.984375 24.703125 
Q 19.046875 24.703125 12.671875 31.3125 
Q 6.296875 37.9375 6.296875 49.421875 
Q 6.296875 60.640625 12.9375 67.421875 
Q 19.578125 74.21875 30.609375 74.21875 
Q 43.265625 74.21875 49.921875 64.515625 
Q 56.59375 54.828125 56.59375 36.375 
Q 56.59375 19.140625 48.40625 8.859375 
Q 40.234375 -1.421875 26.421875 -1.421875 
Q 22.703125 -1.421875 18.890625 -0.6875 
Q 15.09375 0.046875 10.984375 1.515625 
z
M 30.609375 32.421875 
Q 37.25 32.421875 41.125 36.953125 
Q 45.015625 41.5 45.015625 49.421875 
Q 45.015625 57.28125 41.125 61.84375 
Q 37.25 66.40625 30.609375 66.40625 
Q 23.96875 66.40625 20.09375 61.84375 
Q 16.21875 57.28125 16.21875 49.421875 
Q 16.21875 41.5 20.09375 36.953125 
Q 23.96875 32.421875 30.609375 32.421875 
z
" id="DejaVuSans-57"/>
      </defs>
      <use transform="translate(0 0.015625)" xlink:href="#DejaVuSans-67"/>
      <use transform="translate(69.824219 0.015625)" xlink:href="#DejaVuSans-97"/>
      <use transform="translate(131.103516 0.015625)" xlink:href="#DejaVuSans-110"/>
      <use transform="translate(194.482422 0.015625)" xlink:href="#DejaVuSans-100"/>
      <use transform="translate(257.958984 0.015625)" xlink:href="#DejaVuSans-232"/>
      <use transform="translate(319.482422 0.015625)" xlink:href="#DejaVuSans-115"/>
      <use transform="translate(371.582031 0.015625)" xlink:href="#DejaVuSans-32"/>
      <use transform="translate(403.369141 0.015625)" xlink:href="#DejaVuSans-97"/>
      <use transform="translate(464.648438 0.015625)" xlink:href="#DejaVuSans-110"/>
      <use transform="translate(528.027344 0.015625)" xlink:href="#DejaVuSans-100"/>
      <use transform="translate(591.503906 0.015625)" xlink:href="#DejaVuSans-32"/>
      <use transform="translate(623.291016 0.015625)" xlink:href="#DejaVuSans-82"/>
      <use transform="translate(692.773438 0.015625)" xlink:href="#DejaVuSans-101"/>
      <use transform="translate(754.296875 0.015625)" xlink:href="#DejaVuSans-99"/>
      <use transform="translate(809.277344 0.015625)" xlink:href="#DejaVuSans-104"/>
      <use transform="translate(872.65625 0.015625)" xlink:href="#DejaVuSans-116"/>
      <use transform="translate(911.865234 0.015625)" xlink:href="#DejaVuSans-39"/>
      <use transform="translate(939.355469 0.015625)" xlink:href="#DejaVuSans-115"/>
      <use transform="translate(991.455078 0.015625)" xlink:href="#DejaVuSans-32"/>
      <use transform="translate(1023.242188 0.015625)" xlink:href="#DejaVuSans-109"/>
      <use transform="translate(1120.654297 0.015625)" xlink:href="#DejaVuSans-101"/>
      <use transform="translate(1182.177734 0.015625)" xlink:href="#DejaVuSans-116"/>
      <use transform="translate(1221.386719 0.015625)" xlink:href="#DejaVuSans-104"/>
      <use transform="translate(1284.765625 0.015625)" xlink:href="#DejaVuSans-111"/>
      <use transform="translate(1345.947266 0.015625)" xlink:href="#DejaVuSans-100"/>
      <use transform="translate(1409.423828 0.015625)" xlink:href="#DejaVuSans-32"/>
      <use transform="translate(1441.210938 0.015625)" xlink:href="#DejaVuSans-40"/>
      <use transform="translate(1480.224609 0.015625)" xlink:href="#DejaVuSans-97"/>
      <use transform="translate(1541.503906 0.015625)" xlink:href="#DejaVuSans-112"/>
      <use transform="translate(1604.980469 0.015625)" xlink:href="#DejaVuSans-115"/>
      <use transform="translate(1657.080078 0.015625)" xlink:href="#DejaVuSans-32"/>
      <use transform="translate(1688.867188 0.015625)" xlink:href="#DejaVuSans-61"/>
      <use transform="translate(1772.65625 0.015625)" xlink:href="#DejaVuSans-32"/>
      <use transform="translate(1804.443359 0.015625)" xlink:href="#DejaVuSans-48"/>
      <use transform="translate(1868.066406 0.015625)" xlink:href="#DejaVuSans-46"/>
      <use transform="translate(1899.853516 0.015625)" xlink:href="#DejaVuSans-52"/>
      <use transform="translate(1963.476562 0.015625)" xlink:href="#DejaVuSans-57"/>
      <use transform="translate(2027.099609 0.015625)" xlink:href="#DejaVuSans-32"/>
      <use transform="translate(2058.886719 0.015625)" xlink:href="#DejaVuSans-177"/>
      <use transform="translate(2142.675781 0.015625)" xlink:href="#DejaVuSans-32"/>
      <use transform="translate(2174.462891 0.015625)" xlink:href="#DejaVuSans-48"/>
      <use transform="translate(2238.085938 0.015625)" xlink:href="#DejaVuSans-46"/>
      <use transform="translate(2269.873047 0.015625)" xlink:href="#DejaVuSans-48"/>
      <use transform="translate(2333.496094 0.015625)" xlink:href="#DejaVuSans-53"/>
      <use transform="translate(2397.119141 0.015625)" xlink:href="#DejaVuSans-41"/>
     </g>
    </g>
   </g>
  </g>
 </g>
 <defs>
  <clipPath id="p06f6faffb9">
   <rect height="326.16" width="334.8" x="43.78125" y="7.2"/>
  </clipPath>
 </defs>
</svg>
