<?xml version="1.0" encoding="utf-8" standalone="no"?>
<!DOCTYPE svg PUBLIC "-//W3C//DTD SVG 1.1//EN"
  "http://www.w3.org/Graphics/SVG/1.1/DTD/svg11.dtd">
<!-- Created with matplotlib (https://matplotlib.org/) -->
<svg height="263.63625pt" version="1.1" viewBox="0 0 365.878125 263.63625" width="365.878125pt" xmlns="http://www.w3.org/2000/svg" xmlns:xlink="http://www.w3.org/1999/xlink">
 <metadata>
  <rdf:RDF xmlns:cc="http://creativecommons.org/ns#" xmlns:dc="http://purl.org/dc/elements/1.1/" xmlns:rdf="http://www.w3.org/1999/02/22-rdf-syntax-ns#">
   <cc:Work>
    <dc:type rdf:resource="http://purl.org/dc/dcmitype/StillImage"/>
    <dc:date>2021-05-04T17:42:53.405692</dc:date>
    <dc:format>image/svg+xml</dc:format>
    <dc:creator>
     <cc:Agent>
      <dc:title>Matplotlib v3.3.2, https://matplotlib.org/</dc:title>
     </cc:Agent>
    </dc:creator>
   </cc:Work>
  </rdf:RDF>
 </metadata>
 <defs>
  <style type="text/css">*{stroke-linecap:butt;stroke-linejoin:round;}</style>
 </defs>
 <g id="figure_1">
  <g id="patch_1">
   <path d="M -0 263.63625 
L 365.878125 263.63625 
L 365.878125 0 
L -0 0 
z
" style="fill:none;"/>
  </g>
  <g id="axes_1">
   <g id="patch_2">
    <path d="M 23.878125 121.154489 
L 176.059943 121.154489 
L 176.059943 22.318125 
L 23.878125 22.318125 
z
" style="fill:#ffffff;"/>
   </g>
   <g id="QuadMesh_1">
    <path clip-path="url(#p0064fe82c9)" d="M 23.878125 22.318125 
L 61.92358 22.318125 
L 61.92358 47.027216 
L 23.878125 47.027216 
L 23.878125 22.318125 
" style="fill:#ae5463;"/>
    <path clip-path="url(#p0064fe82c9)" d="M 61.92358 22.318125 
L 99.969034 22.318125 
L 99.969034 47.027216 
L 61.92358 47.027216 
L 61.92358 22.318125 
" style="fill:#ae5463;"/>
    <path clip-path="url(#p0064fe82c9)" d="M 99.969034 22.318125 
L 138.014489 22.318125 
L 138.014489 47.027216 
L 99.969034 47.027216 
L 99.969034 22.318125 
" style="fill:#ae5463;"/>
    <path clip-path="url(#p0064fe82c9)" d="M 138.014489 22.318125 
L 176.059943 22.318125 
L 176.059943 47.027216 
L 138.014489 47.027216 
L 138.014489 22.318125 
" style="fill:#ae5463;"/>
    <path clip-path="url(#p0064fe82c9)" d="M 23.878125 47.027216 
L 61.92358 47.027216 
L 61.92358 71.736307 
L 23.878125 71.736307 
L 23.878125 47.027216 
" style="fill:#a24857;"/>
    <path clip-path="url(#p0064fe82c9)" d="M 61.92358 47.027216 
L 99.969034 47.027216 
L 99.969034 71.736307 
L 61.92358 71.736307 
L 61.92358 47.027216 
" style="fill:#9d4352;"/>
    <path clip-path="url(#p0064fe82c9)" d="M 99.969034 47.027216 
L 138.014489 47.027216 
L 138.014489 71.736307 
L 99.969034 71.736307 
L 99.969034 47.027216 
" style="fill:#933847;"/>
    <path clip-path="url(#p0064fe82c9)" d="M 138.014489 47.027216 
L 176.059943 47.027216 
L 176.059943 71.736307 
L 138.014489 71.736307 
L 138.014489 47.027216 
" style="fill:#8d3342;"/>
    <path clip-path="url(#p0064fe82c9)" d="M 23.878125 71.736307 
L 61.92358 71.736307 
L 61.92358 96.445398 
L 23.878125 96.445398 
L 23.878125 71.736307 
" style="fill:#ac5362;"/>
    <path clip-path="url(#p0064fe82c9)" d="M 61.92358 71.736307 
L 99.969034 71.736307 
L 99.969034 96.445398 
L 61.92358 96.445398 
L 61.92358 71.736307 
" style="fill:#7f2433;"/>
    <path clip-path="url(#p0064fe82c9)" d="M 99.969034 71.736307 
L 138.014489 71.736307 
L 138.014489 96.445398 
L 99.969034 96.445398 
L 99.969034 71.736307 
" style="fill:#8a2f3e;"/>
    <path clip-path="url(#p0064fe82c9)" d="M 138.014489 71.736307 
L 176.059943 71.736307 
L 176.059943 96.445398 
L 138.014489 96.445398 
L 138.014489 71.736307 
" style="fill:#7a1f2e;"/>
    <path clip-path="url(#p0064fe82c9)" d="M 23.878125 96.445398 
L 61.92358 96.445398 
L 61.92358 121.154489 
L 23.878125 121.154489 
L 23.878125 96.445398 
" style="fill:#af5665;"/>
    <path clip-path="url(#p0064fe82c9)" d="M 61.92358 96.445398 
L 99.969034 96.445398 
L 99.969034 121.154489 
L 61.92358 121.154489 
L 61.92358 96.445398 
" style="fill:#9f4655;"/>
    <path clip-path="url(#p0064fe82c9)" d="M 99.969034 96.445398 
L 138.014489 96.445398 
L 138.014489 121.154489 
L 99.969034 121.154489 
L 99.969034 96.445398 
" style="fill:#7a1f2e;"/>
    <path clip-path="url(#p0064fe82c9)" d="M 138.014489 96.445398 
L 176.059943 96.445398 
L 176.059943 121.154489 
L 138.014489 121.154489 
L 138.014489 96.445398 
" style="fill:#7a1f2e;"/>
   </g>
   <g id="matplotlib.axis_1">
    <g id="ytick_1">
     <g id="line2d_1">
      <defs>
       <path d="M 0 0 
L -3.5 0 
" id="mb2b74f933f" style="stroke:#000000;stroke-width:0.8;"/>
      </defs>
      <g>
       <use style="stroke:#000000;stroke-width:0.8;" x="23.878125" xlink:href="#mb2b74f933f" y="34.67267"/>
      </g>
     </g>
     <g id="text_1">
      <!-- 20 -->
      <g transform="translate(14.798438 43.598452)rotate(-90)scale(0.1 -0.1)">
       <defs>
        <path d="M 19.1875 8.296875 
L 53.609375 8.296875 
L 53.609375 0 
L 7.328125 0 
L 7.328125 8.296875 
Q 12.9375 14.109375 22.625 23.890625 
Q 32.328125 33.6875 34.8125 36.53125 
Q 39.546875 41.84375 41.421875 45.53125 
Q 43.3125 49.21875 43.3125 52.78125 
Q 43.3125 58.59375 39.234375 62.25 
Q 35.15625 65.921875 28.609375 65.921875 
Q 23.96875 65.921875 18.8125 64.3125 
Q 13.671875 62.703125 7.8125 59.421875 
L 7.8125 69.390625 
Q 13.765625 71.78125 18.9375 73 
Q 24.125 74.21875 28.421875 74.21875 
Q 39.75 74.21875 46.484375 68.546875 
Q 53.21875 62.890625 53.21875 53.421875 
Q 53.21875 48.921875 51.53125 44.890625 
Q 49.859375 40.875 45.40625 35.40625 
Q 44.1875 33.984375 37.640625 27.21875 
Q 31.109375 20.453125 19.1875 8.296875 
z
" id="DejaVuSans-50"/>
        <path d="M 31.78125 66.40625 
Q 24.171875 66.40625 20.328125 58.90625 
Q 16.5 51.421875 16.5 36.375 
Q 16.5 21.390625 20.328125 13.890625 
Q 24.171875 6.390625 31.78125 6.390625 
Q 39.453125 6.390625 43.28125 13.890625 
Q 47.125 21.390625 47.125 36.375 
Q 47.125 51.421875 43.28125 58.90625 
Q 39.453125 66.40625 31.78125 66.40625 
z
M 31.78125 74.21875 
Q 44.046875 74.21875 50.515625 64.515625 
Q 56.984375 54.828125 56.984375 36.375 
Q 56.984375 17.96875 50.515625 8.265625 
Q 44.046875 -1.421875 31.78125 -1.421875 
Q 19.53125 -1.421875 13.0625 8.265625 
Q 6.59375 17.96875 6.59375 36.375 
Q 6.59375 54.828125 13.0625 64.515625 
Q 19.53125 74.21875 31.78125 74.21875 
z
" id="DejaVuSans-48"/>
       </defs>
       <use xlink:href="#DejaVuSans-50"/>
       <use x="63.623047" xlink:href="#DejaVuSans-48"/>
      </g>
     </g>
    </g>
    <g id="ytick_2">
     <g id="line2d_2">
      <g>
       <use style="stroke:#000000;stroke-width:0.8;" x="23.878125" xlink:href="#mb2b74f933f" y="59.381761"/>
      </g>
     </g>
     <g id="text_2">
      <!-- 200 -->
      <g transform="translate(14.798437 74.670043)rotate(-90)scale(0.1 -0.1)">
       <use xlink:href="#DejaVuSans-50"/>
       <use x="63.623047" xlink:href="#DejaVuSans-48"/>
       <use x="127.246094" xlink:href="#DejaVuSans-48"/>
      </g>
     </g>
    </g>
    <g id="ytick_3">
     <g id="line2d_3">
      <g>
       <use style="stroke:#000000;stroke-width:0.8;" x="23.878125" xlink:href="#mb2b74f933f" y="84.090852"/>
      </g>
     </g>
     <g id="text_3">
      <!-- 750 -->
      <g transform="translate(14.798437 99.379134)rotate(-90)scale(0.1 -0.1)">
       <defs>
        <path d="M 8.203125 72.90625 
L 55.078125 72.90625 
L 55.078125 68.703125 
L 28.609375 0 
L 18.3125 0 
L 43.21875 64.59375 
L 8.203125 64.59375 
z
" id="DejaVuSans-55"/>
        <path d="M 10.796875 72.90625 
L 49.515625 72.90625 
L 49.515625 64.59375 
L 19.828125 64.59375 
L 19.828125 46.734375 
Q 21.96875 47.46875 24.109375 47.828125 
Q 26.265625 48.1875 28.421875 48.1875 
Q 40.625 48.1875 47.75 41.5 
Q 54.890625 34.8125 54.890625 23.390625 
Q 54.890625 11.625 47.5625 5.09375 
Q 40.234375 -1.421875 26.90625 -1.421875 
Q 22.3125 -1.421875 17.546875 -0.640625 
Q 12.796875 0.140625 7.71875 1.703125 
L 7.71875 11.625 
Q 12.109375 9.234375 16.796875 8.0625 
Q 21.484375 6.890625 26.703125 6.890625 
Q 35.15625 6.890625 40.078125 11.328125 
Q 45.015625 15.765625 45.015625 23.390625 
Q 45.015625 31 40.078125 35.4375 
Q 35.15625 39.890625 26.703125 39.890625 
Q 22.75 39.890625 18.8125 39.015625 
Q 14.890625 38.140625 10.796875 36.28125 
z
" id="DejaVuSans-53"/>
       </defs>
       <use xlink:href="#DejaVuSans-55"/>
       <use x="63.623047" xlink:href="#DejaVuSans-53"/>
       <use x="127.246094" xlink:href="#DejaVuSans-48"/>
      </g>
     </g>
    </g>
    <g id="ytick_4">
     <g id="line2d_4">
      <g>
       <use style="stroke:#000000;stroke-width:0.8;" x="23.878125" xlink:href="#mb2b74f933f" y="108.799943"/>
      </g>
     </g>
     <g id="text_4">
      <!-- 1000 -->
      <g transform="translate(14.798437 130.450724)rotate(-90)scale(0.1 -0.1)">
       <defs>
        <path d="M 12.40625 8.296875 
L 28.515625 8.296875 
L 28.515625 63.921875 
L 10.984375 60.40625 
L 10.984375 69.390625 
L 28.421875 72.90625 
L 38.28125 72.90625 
L 38.28125 8.296875 
L 54.390625 8.296875 
L 54.390625 0 
L 12.40625 0 
z
" id="DejaVuSans-49"/>
       </defs>
       <use xlink:href="#DejaVuSans-49"/>
       <use x="63.623047" xlink:href="#DejaVuSans-48"/>
       <use x="127.246094" xlink:href="#DejaVuSans-48"/>
       <use x="190.869141" xlink:href="#DejaVuSans-48"/>
      </g>
     </g>
    </g>
   </g>
   <g id="text_5">
    <!-- 0.88 -->
    <g style="fill:#ffffff;" transform="translate(31.76804 37.432045)scale(0.1 -0.1)">
     <defs>
      <path d="M 10.6875 12.40625 
L 21 12.40625 
L 21 0 
L 10.6875 0 
z
" id="DejaVuSans-46"/>
      <path d="M 31.78125 34.625 
Q 24.75 34.625 20.71875 30.859375 
Q 16.703125 27.09375 16.703125 20.515625 
Q 16.703125 13.921875 20.71875 10.15625 
Q 24.75 6.390625 31.78125 6.390625 
Q 38.8125 6.390625 42.859375 10.171875 
Q 46.921875 13.96875 46.921875 20.515625 
Q 46.921875 27.09375 42.890625 30.859375 
Q 38.875 34.625 31.78125 34.625 
z
M 21.921875 38.8125 
Q 15.578125 40.375 12.03125 44.71875 
Q 8.5 49.078125 8.5 55.328125 
Q 8.5 64.0625 14.71875 69.140625 
Q 20.953125 74.21875 31.78125 74.21875 
Q 42.671875 74.21875 48.875 69.140625 
Q 55.078125 64.0625 55.078125 55.328125 
Q 55.078125 49.078125 51.53125 44.71875 
Q 48 40.375 41.703125 38.8125 
Q 48.828125 37.15625 52.796875 32.3125 
Q 56.78125 27.484375 56.78125 20.515625 
Q 56.78125 9.90625 50.3125 4.234375 
Q 43.84375 -1.421875 31.78125 -1.421875 
Q 19.734375 -1.421875 13.25 4.234375 
Q 6.78125 9.90625 6.78125 20.515625 
Q 6.78125 27.484375 10.78125 32.3125 
Q 14.796875 37.15625 21.921875 38.8125 
z
M 18.3125 54.390625 
Q 18.3125 48.734375 21.84375 45.5625 
Q 25.390625 42.390625 31.78125 42.390625 
Q 38.140625 42.390625 41.71875 45.5625 
Q 45.3125 48.734375 45.3125 54.390625 
Q 45.3125 60.0625 41.71875 63.234375 
Q 38.140625 66.40625 31.78125 66.40625 
Q 25.390625 66.40625 21.84375 63.234375 
Q 18.3125 60.0625 18.3125 54.390625 
z
" id="DejaVuSans-56"/>
     </defs>
     <use xlink:href="#DejaVuSans-48"/>
     <use x="63.623047" xlink:href="#DejaVuSans-46"/>
     <use x="95.410156" xlink:href="#DejaVuSans-56"/>
     <use x="159.033203" xlink:href="#DejaVuSans-56"/>
    </g>
   </g>
   <g id="text_6">
    <!-- 0.88 -->
    <g style="fill:#ffffff;" transform="translate(69.813494 37.432045)scale(0.1 -0.1)">
     <use xlink:href="#DejaVuSans-48"/>
     <use x="63.623047" xlink:href="#DejaVuSans-46"/>
     <use x="95.410156" xlink:href="#DejaVuSans-56"/>
     <use x="159.033203" xlink:href="#DejaVuSans-56"/>
    </g>
   </g>
   <g id="text_7">
    <!-- 0.88 -->
    <g style="fill:#ffffff;" transform="translate(107.858949 37.432045)scale(0.1 -0.1)">
     <use xlink:href="#DejaVuSans-48"/>
     <use x="63.623047" xlink:href="#DejaVuSans-46"/>
     <use x="95.410156" xlink:href="#DejaVuSans-56"/>
     <use x="159.033203" xlink:href="#DejaVuSans-56"/>
    </g>
   </g>
   <g id="text_8">
    <!-- 0.88 -->
    <g style="fill:#ffffff;" transform="translate(145.904403 37.432045)scale(0.1 -0.1)">
     <use xlink:href="#DejaVuSans-48"/>
     <use x="63.623047" xlink:href="#DejaVuSans-46"/>
     <use x="95.410156" xlink:href="#DejaVuSans-56"/>
     <use x="159.033203" xlink:href="#DejaVuSans-56"/>
    </g>
   </g>
   <g id="text_9">
    <!-- 0.86 -->
    <g style="fill:#ffffff;" transform="translate(31.76804 62.141136)scale(0.1 -0.1)">
     <defs>
      <path d="M 33.015625 40.375 
Q 26.375 40.375 22.484375 35.828125 
Q 18.609375 31.296875 18.609375 23.390625 
Q 18.609375 15.53125 22.484375 10.953125 
Q 26.375 6.390625 33.015625 6.390625 
Q 39.65625 6.390625 43.53125 10.953125 
Q 47.40625 15.53125 47.40625 23.390625 
Q 47.40625 31.296875 43.53125 35.828125 
Q 39.65625 40.375 33.015625 40.375 
z
M 52.59375 71.296875 
L 52.59375 62.3125 
Q 48.875 64.0625 45.09375 64.984375 
Q 41.3125 65.921875 37.59375 65.921875 
Q 27.828125 65.921875 22.671875 59.328125 
Q 17.53125 52.734375 16.796875 39.40625 
Q 19.671875 43.65625 24.015625 45.921875 
Q 28.375 48.1875 33.59375 48.1875 
Q 44.578125 48.1875 50.953125 41.515625 
Q 57.328125 34.859375 57.328125 23.390625 
Q 57.328125 12.15625 50.6875 5.359375 
Q 44.046875 -1.421875 33.015625 -1.421875 
Q 20.359375 -1.421875 13.671875 8.265625 
Q 6.984375 17.96875 6.984375 36.375 
Q 6.984375 53.65625 15.1875 63.9375 
Q 23.390625 74.21875 37.203125 74.21875 
Q 40.921875 74.21875 44.703125 73.484375 
Q 48.484375 72.75 52.59375 71.296875 
z
" id="DejaVuSans-54"/>
     </defs>
     <use xlink:href="#DejaVuSans-48"/>
     <use x="63.623047" xlink:href="#DejaVuSans-46"/>
     <use x="95.410156" xlink:href="#DejaVuSans-56"/>
     <use x="159.033203" xlink:href="#DejaVuSans-54"/>
    </g>
   </g>
   <g id="text_10">
    <!-- 0.85 -->
    <g style="fill:#ffffff;" transform="translate(69.813494 62.141136)scale(0.1 -0.1)">
     <use xlink:href="#DejaVuSans-48"/>
     <use x="63.623047" xlink:href="#DejaVuSans-46"/>
     <use x="95.410156" xlink:href="#DejaVuSans-56"/>
     <use x="159.033203" xlink:href="#DejaVuSans-53"/>
    </g>
   </g>
   <g id="text_11">
    <!-- 0.84 -->
    <g style="fill:#ffffff;" transform="translate(107.858949 62.141136)scale(0.1 -0.1)">
     <defs>
      <path d="M 37.796875 64.3125 
L 12.890625 25.390625 
L 37.796875 25.390625 
z
M 35.203125 72.90625 
L 47.609375 72.90625 
L 47.609375 25.390625 
L 58.015625 25.390625 
L 58.015625 17.1875 
L 47.609375 17.1875 
L 47.609375 0 
L 37.796875 0 
L 37.796875 17.1875 
L 4.890625 17.1875 
L 4.890625 26.703125 
z
" id="DejaVuSans-52"/>
     </defs>
     <use xlink:href="#DejaVuSans-48"/>
     <use x="63.623047" xlink:href="#DejaVuSans-46"/>
     <use x="95.410156" xlink:href="#DejaVuSans-56"/>
     <use x="159.033203" xlink:href="#DejaVuSans-52"/>
    </g>
   </g>
   <g id="text_12">
    <!-- 0.83 -->
    <g style="fill:#ffffff;" transform="translate(145.904403 62.141136)scale(0.1 -0.1)">
     <defs>
      <path d="M 40.578125 39.3125 
Q 47.65625 37.796875 51.625 33 
Q 55.609375 28.21875 55.609375 21.1875 
Q 55.609375 10.40625 48.1875 4.484375 
Q 40.765625 -1.421875 27.09375 -1.421875 
Q 22.515625 -1.421875 17.65625 -0.515625 
Q 12.796875 0.390625 7.625 2.203125 
L 7.625 11.71875 
Q 11.71875 9.328125 16.59375 8.109375 
Q 21.484375 6.890625 26.8125 6.890625 
Q 36.078125 6.890625 40.9375 10.546875 
Q 45.796875 14.203125 45.796875 21.1875 
Q 45.796875 27.640625 41.28125 31.265625 
Q 36.765625 34.90625 28.71875 34.90625 
L 20.21875 34.90625 
L 20.21875 43.015625 
L 29.109375 43.015625 
Q 36.375 43.015625 40.234375 45.921875 
Q 44.09375 48.828125 44.09375 54.296875 
Q 44.09375 59.90625 40.109375 62.90625 
Q 36.140625 65.921875 28.71875 65.921875 
Q 24.65625 65.921875 20.015625 65.03125 
Q 15.375 64.15625 9.8125 62.3125 
L 9.8125 71.09375 
Q 15.4375 72.65625 20.34375 73.4375 
Q 25.25 74.21875 29.59375 74.21875 
Q 40.828125 74.21875 47.359375 69.109375 
Q 53.90625 64.015625 53.90625 55.328125 
Q 53.90625 49.265625 50.4375 45.09375 
Q 46.96875 40.921875 40.578125 39.3125 
z
" id="DejaVuSans-51"/>
     </defs>
     <use xlink:href="#DejaVuSans-48"/>
     <use x="63.623047" xlink:href="#DejaVuSans-46"/>
     <use x="95.410156" xlink:href="#DejaVuSans-56"/>
     <use x="159.033203" xlink:href="#DejaVuSans-51"/>
    </g>
   </g>
   <g id="text_13">
    <!-- 0.88 -->
    <g style="fill:#ffffff;" transform="translate(31.76804 86.850227)scale(0.1 -0.1)">
     <use xlink:href="#DejaVuSans-48"/>
     <use x="63.623047" xlink:href="#DejaVuSans-46"/>
     <use x="95.410156" xlink:href="#DejaVuSans-56"/>
     <use x="159.033203" xlink:href="#DejaVuSans-56"/>
    </g>
   </g>
   <g id="text_14">
    <!-- 0.81 -->
    <g style="fill:#ffffff;" transform="translate(69.813494 86.850227)scale(0.1 -0.1)">
     <use xlink:href="#DejaVuSans-48"/>
     <use x="63.623047" xlink:href="#DejaVuSans-46"/>
     <use x="95.410156" xlink:href="#DejaVuSans-56"/>
     <use x="159.033203" xlink:href="#DejaVuSans-49"/>
    </g>
   </g>
   <g id="text_15">
    <!-- 0.82 -->
    <g style="fill:#ffffff;" transform="translate(107.858949 86.850227)scale(0.1 -0.1)">
     <use xlink:href="#DejaVuSans-48"/>
     <use x="63.623047" xlink:href="#DejaVuSans-46"/>
     <use x="95.410156" xlink:href="#DejaVuSans-56"/>
     <use x="159.033203" xlink:href="#DejaVuSans-50"/>
    </g>
   </g>
   <g id="text_16">
    <!-- 0.8 -->
    <g style="fill:#ffffff;" transform="translate(149.085653 86.850227)scale(0.1 -0.1)">
     <use xlink:href="#DejaVuSans-48"/>
     <use x="63.623047" xlink:href="#DejaVuSans-46"/>
     <use x="95.410156" xlink:href="#DejaVuSans-56"/>
    </g>
   </g>
   <g id="text_17">
    <!-- 0.88 -->
    <g style="fill:#ffffff;" transform="translate(31.76804 111.559318)scale(0.1 -0.1)">
     <use xlink:href="#DejaVuSans-48"/>
     <use x="63.623047" xlink:href="#DejaVuSans-46"/>
     <use x="95.410156" xlink:href="#DejaVuSans-56"/>
     <use x="159.033203" xlink:href="#DejaVuSans-56"/>
    </g>
   </g>
   <g id="text_18">
    <!-- 0.86 -->
    <g style="fill:#ffffff;" transform="translate(69.813494 111.559318)scale(0.1 -0.1)">
     <use xlink:href="#DejaVuSans-48"/>
     <use x="63.623047" xlink:href="#DejaVuSans-46"/>
     <use x="95.410156" xlink:href="#DejaVuSans-56"/>
     <use x="159.033203" xlink:href="#DejaVuSans-54"/>
    </g>
   </g>
   <g id="text_19">
    <!-- 0.8 -->
    <g style="fill:#ffffff;" transform="translate(111.040199 111.559318)scale(0.1 -0.1)">
     <use xlink:href="#DejaVuSans-48"/>
     <use x="63.623047" xlink:href="#DejaVuSans-46"/>
     <use x="95.410156" xlink:href="#DejaVuSans-56"/>
    </g>
   </g>
   <g id="text_20">
    <!-- 0.78 -->
    <g style="fill:#ffffff;" transform="translate(145.904403 111.559318)scale(0.1 -0.1)">
     <use xlink:href="#DejaVuSans-48"/>
     <use x="63.623047" xlink:href="#DejaVuSans-46"/>
     <use x="95.410156" xlink:href="#DejaVuSans-55"/>
     <use x="159.033203" xlink:href="#DejaVuSans-56"/>
    </g>
   </g>
   <g id="text_21">
    <!-- AUC -->
    <g transform="translate(87.283722 16.318125)scale(0.12 -0.12)">
     <defs>
      <path d="M 34.1875 63.1875 
L 20.796875 26.90625 
L 47.609375 26.90625 
z
M 28.609375 72.90625 
L 39.796875 72.90625 
L 67.578125 0 
L 57.328125 0 
L 50.6875 18.703125 
L 17.828125 18.703125 
L 11.1875 0 
L 0.78125 0 
z
" id="DejaVuSans-65"/>
      <path d="M 8.6875 72.90625 
L 18.609375 72.90625 
L 18.609375 28.609375 
Q 18.609375 16.890625 22.84375 11.734375 
Q 27.09375 6.59375 36.625 6.59375 
Q 46.09375 6.59375 50.34375 11.734375 
Q 54.59375 16.890625 54.59375 28.609375 
L 54.59375 72.90625 
L 64.5 72.90625 
L 64.5 27.390625 
Q 64.5 13.140625 57.4375 5.859375 
Q 50.390625 -1.421875 36.625 -1.421875 
Q 22.796875 -1.421875 15.734375 5.859375 
Q 8.6875 13.140625 8.6875 27.390625 
z
" id="DejaVuSans-85"/>
      <path d="M 64.40625 67.28125 
L 64.40625 56.890625 
Q 59.421875 61.53125 53.78125 63.8125 
Q 48.140625 66.109375 41.796875 66.109375 
Q 29.296875 66.109375 22.65625 58.46875 
Q 16.015625 50.828125 16.015625 36.375 
Q 16.015625 21.96875 22.65625 14.328125 
Q 29.296875 6.6875 41.796875 6.6875 
Q 48.140625 6.6875 53.78125 8.984375 
Q 59.421875 11.28125 64.40625 15.921875 
L 64.40625 5.609375 
Q 59.234375 2.09375 53.4375 0.328125 
Q 47.65625 -1.421875 41.21875 -1.421875 
Q 24.65625 -1.421875 15.125 8.703125 
Q 5.609375 18.84375 5.609375 36.375 
Q 5.609375 53.953125 15.125 64.078125 
Q 24.65625 74.21875 41.21875 74.21875 
Q 47.75 74.21875 53.53125 72.484375 
Q 59.328125 70.75 64.40625 67.28125 
z
" id="DejaVuSans-67"/>
     </defs>
     <use xlink:href="#DejaVuSans-65"/>
     <use x="68.408203" xlink:href="#DejaVuSans-85"/>
     <use x="141.601562" xlink:href="#DejaVuSans-67"/>
    </g>
   </g>
  </g>
  <g id="axes_2">
   <g id="QuadMesh_2">
    <path clip-path="url(#p3ad130fc77)" d="M 206.496307 22.318125 
L 244.541761 22.318125 
L 244.541761 47.027216 
L 206.496307 47.027216 
L 206.496307 22.318125 
" style="fill:#8a2f3e;"/>
    <path clip-path="url(#p3ad130fc77)" d="M 244.541761 22.318125 
L 282.587216 22.318125 
L 282.587216 47.027216 
L 244.541761 47.027216 
L 244.541761 22.318125 
" style="fill:#8a2f3e;"/>
    <path clip-path="url(#p3ad130fc77)" d="M 282.587216 22.318125 
L 320.63267 22.318125 
L 320.63267 47.027216 
L 282.587216 47.027216 
L 282.587216 22.318125 
" style="fill:#8a2f3e;"/>
    <path clip-path="url(#p3ad130fc77)" d="M 320.63267 22.318125 
L 358.678125 22.318125 
L 358.678125 47.027216 
L 320.63267 47.027216 
L 320.63267 22.318125 
" style="fill:#8c3241;"/>
    <path clip-path="url(#p3ad130fc77)" d="M 206.496307 47.027216 
L 244.541761 47.027216 
L 244.541761 71.736307 
L 206.496307 71.736307 
L 206.496307 47.027216 
" style="fill:#7a1f2e;"/>
    <path clip-path="url(#p3ad130fc77)" d="M 244.541761 47.027216 
L 282.587216 47.027216 
L 282.587216 71.736307 
L 244.541761 71.736307 
L 244.541761 47.027216 
" style="fill:#7a1f2e;"/>
    <path clip-path="url(#p3ad130fc77)" d="M 282.587216 47.027216 
L 320.63267 47.027216 
L 320.63267 71.736307 
L 282.587216 71.736307 
L 282.587216 47.027216 
" style="fill:#7a1f2e;"/>
    <path clip-path="url(#p3ad130fc77)" d="M 320.63267 47.027216 
L 358.678125 47.027216 
L 358.678125 71.736307 
L 320.63267 71.736307 
L 320.63267 47.027216 
" style="fill:#7a1f2e;"/>
    <path clip-path="url(#p3ad130fc77)" d="M 206.496307 71.736307 
L 244.541761 71.736307 
L 244.541761 96.445398 
L 206.496307 96.445398 
L 206.496307 71.736307 
" style="fill:#7a1f2e;"/>
    <path clip-path="url(#p3ad130fc77)" d="M 244.541761 71.736307 
L 282.587216 71.736307 
L 282.587216 96.445398 
L 244.541761 96.445398 
L 244.541761 71.736307 
" style="fill:#7a1f2e;"/>
    <path clip-path="url(#p3ad130fc77)" d="M 282.587216 71.736307 
L 320.63267 71.736307 
L 320.63267 96.445398 
L 282.587216 96.445398 
L 282.587216 71.736307 
" style="fill:#7a1f2e;"/>
    <path clip-path="url(#p3ad130fc77)" d="M 320.63267 71.736307 
L 358.678125 71.736307 
L 358.678125 96.445398 
L 320.63267 96.445398 
L 320.63267 71.736307 
" style="fill:#7a1f2e;"/>
    <path clip-path="url(#p3ad130fc77)" d="M 206.496307 96.445398 
L 244.541761 96.445398 
L 244.541761 121.154489 
L 206.496307 121.154489 
L 206.496307 96.445398 
" style="fill:#7a1f2e;"/>
    <path clip-path="url(#p3ad130fc77)" d="M 244.541761 96.445398 
L 282.587216 96.445398 
L 282.587216 121.154489 
L 244.541761 121.154489 
L 244.541761 96.445398 
" style="fill:#7a1f2e;"/>
    <path clip-path="url(#p3ad130fc77)" d="M 282.587216 96.445398 
L 320.63267 96.445398 
L 320.63267 121.154489 
L 282.587216 121.154489 
L 282.587216 96.445398 
" style="fill:#7b202f;"/>
    <path clip-path="url(#p3ad130fc77)" d="M 320.63267 96.445398 
L 358.678125 96.445398 
L 358.678125 121.154489 
L 320.63267 121.154489 
L 320.63267 96.445398 
" style="fill:#7a1f2e;"/>
   </g>
   <g id="text_22">
    <!-- 0.82 -->
    <g style="fill:#ffffff;" transform="translate(214.386222 37.432045)scale(0.1 -0.1)">
     <use xlink:href="#DejaVuSans-48"/>
     <use x="63.623047" xlink:href="#DejaVuSans-46"/>
     <use x="95.410156" xlink:href="#DejaVuSans-56"/>
     <use x="159.033203" xlink:href="#DejaVuSans-50"/>
    </g>
   </g>
   <g id="text_23">
    <!-- 0.82 -->
    <g style="fill:#ffffff;" transform="translate(252.431676 37.432045)scale(0.1 -0.1)">
     <use xlink:href="#DejaVuSans-48"/>
     <use x="63.623047" xlink:href="#DejaVuSans-46"/>
     <use x="95.410156" xlink:href="#DejaVuSans-56"/>
     <use x="159.033203" xlink:href="#DejaVuSans-50"/>
    </g>
   </g>
   <g id="text_24">
    <!-- 0.82 -->
    <g style="fill:#ffffff;" transform="translate(290.477131 37.432045)scale(0.1 -0.1)">
     <use xlink:href="#DejaVuSans-48"/>
     <use x="63.623047" xlink:href="#DejaVuSans-46"/>
     <use x="95.410156" xlink:href="#DejaVuSans-56"/>
     <use x="159.033203" xlink:href="#DejaVuSans-50"/>
    </g>
   </g>
   <g id="text_25">
    <!-- 0.83 -->
    <g style="fill:#ffffff;" transform="translate(328.522585 37.432045)scale(0.1 -0.1)">
     <use xlink:href="#DejaVuSans-48"/>
     <use x="63.623047" xlink:href="#DejaVuSans-46"/>
     <use x="95.410156" xlink:href="#DejaVuSans-56"/>
     <use x="159.033203" xlink:href="#DejaVuSans-51"/>
    </g>
   </g>
   <g id="text_26">
    <!-- 0.8 -->
    <g style="fill:#ffffff;" transform="translate(217.567472 62.141136)scale(0.1 -0.1)">
     <use xlink:href="#DejaVuSans-48"/>
     <use x="63.623047" xlink:href="#DejaVuSans-46"/>
     <use x="95.410156" xlink:href="#DejaVuSans-56"/>
    </g>
   </g>
   <g id="text_27">
    <!-- 0.76 -->
    <g style="fill:#ffffff;" transform="translate(252.431676 62.141136)scale(0.1 -0.1)">
     <use xlink:href="#DejaVuSans-48"/>
     <use x="63.623047" xlink:href="#DejaVuSans-46"/>
     <use x="95.410156" xlink:href="#DejaVuSans-55"/>
     <use x="159.033203" xlink:href="#DejaVuSans-54"/>
    </g>
   </g>
   <g id="text_28">
    <!-- 0.78 -->
    <g style="fill:#ffffff;" transform="translate(290.477131 62.141136)scale(0.1 -0.1)">
     <use xlink:href="#DejaVuSans-48"/>
     <use x="63.623047" xlink:href="#DejaVuSans-46"/>
     <use x="95.410156" xlink:href="#DejaVuSans-55"/>
     <use x="159.033203" xlink:href="#DejaVuSans-56"/>
    </g>
   </g>
   <g id="text_29">
    <!-- 0.78 -->
    <g style="fill:#ffffff;" transform="translate(328.522585 62.141136)scale(0.1 -0.1)">
     <use xlink:href="#DejaVuSans-48"/>
     <use x="63.623047" xlink:href="#DejaVuSans-46"/>
     <use x="95.410156" xlink:href="#DejaVuSans-55"/>
     <use x="159.033203" xlink:href="#DejaVuSans-56"/>
    </g>
   </g>
   <g id="text_30">
    <!-- 0.74 -->
    <g style="fill:#ffffff;" transform="translate(214.386222 86.850227)scale(0.1 -0.1)">
     <use xlink:href="#DejaVuSans-48"/>
     <use x="63.623047" xlink:href="#DejaVuSans-46"/>
     <use x="95.410156" xlink:href="#DejaVuSans-55"/>
     <use x="159.033203" xlink:href="#DejaVuSans-52"/>
    </g>
   </g>
   <g id="text_31">
    <!-- 0.73 -->
    <g style="fill:#ffffff;" transform="translate(252.431676 86.850227)scale(0.1 -0.1)">
     <use xlink:href="#DejaVuSans-48"/>
     <use x="63.623047" xlink:href="#DejaVuSans-46"/>
     <use x="95.410156" xlink:href="#DejaVuSans-55"/>
     <use x="159.033203" xlink:href="#DejaVuSans-51"/>
    </g>
   </g>
   <g id="text_32">
    <!-- 0.8 -->
    <g style="fill:#ffffff;" transform="translate(293.658381 86.850227)scale(0.1 -0.1)">
     <use xlink:href="#DejaVuSans-48"/>
     <use x="63.623047" xlink:href="#DejaVuSans-46"/>
     <use x="95.410156" xlink:href="#DejaVuSans-56"/>
    </g>
   </g>
   <g id="text_33">
    <!-- 0.74 -->
    <g style="fill:#ffffff;" transform="translate(328.522585 86.850227)scale(0.1 -0.1)">
     <use xlink:href="#DejaVuSans-48"/>
     <use x="63.623047" xlink:href="#DejaVuSans-46"/>
     <use x="95.410156" xlink:href="#DejaVuSans-55"/>
     <use x="159.033203" xlink:href="#DejaVuSans-52"/>
    </g>
   </g>
   <g id="text_34">
    <!-- 0.78 -->
    <g style="fill:#ffffff;" transform="translate(214.386222 111.559318)scale(0.1 -0.1)">
     <use xlink:href="#DejaVuSans-48"/>
     <use x="63.623047" xlink:href="#DejaVuSans-46"/>
     <use x="95.410156" xlink:href="#DejaVuSans-55"/>
     <use x="159.033203" xlink:href="#DejaVuSans-56"/>
    </g>
   </g>
   <g id="text_35">
    <!-- 0.79 -->
    <g style="fill:#ffffff;" transform="translate(252.431676 111.559318)scale(0.1 -0.1)">
     <defs>
      <path d="M 10.984375 1.515625 
L 10.984375 10.5 
Q 14.703125 8.734375 18.5 7.8125 
Q 22.3125 6.890625 25.984375 6.890625 
Q 35.75 6.890625 40.890625 13.453125 
Q 46.046875 20.015625 46.78125 33.40625 
Q 43.953125 29.203125 39.59375 26.953125 
Q 35.25 24.703125 29.984375 24.703125 
Q 19.046875 24.703125 12.671875 31.3125 
Q 6.296875 37.9375 6.296875 49.421875 
Q 6.296875 60.640625 12.9375 67.421875 
Q 19.578125 74.21875 30.609375 74.21875 
Q 43.265625 74.21875 49.921875 64.515625 
Q 56.59375 54.828125 56.59375 36.375 
Q 56.59375 19.140625 48.40625 8.859375 
Q 40.234375 -1.421875 26.421875 -1.421875 
Q 22.703125 -1.421875 18.890625 -0.6875 
Q 15.09375 0.046875 10.984375 1.515625 
z
M 30.609375 32.421875 
Q 37.25 32.421875 41.125 36.953125 
Q 45.015625 41.5 45.015625 49.421875 
Q 45.015625 57.28125 41.125 61.84375 
Q 37.25 66.40625 30.609375 66.40625 
Q 23.96875 66.40625 20.09375 61.84375 
Q 16.21875 57.28125 16.21875 49.421875 
Q 16.21875 41.5 20.09375 36.953125 
Q 23.96875 32.421875 30.609375 32.421875 
z
" id="DejaVuSans-57"/>
     </defs>
     <use xlink:href="#DejaVuSans-48"/>
     <use x="63.623047" xlink:href="#DejaVuSans-46"/>
     <use x="95.410156" xlink:href="#DejaVuSans-55"/>
     <use x="159.033203" xlink:href="#DejaVuSans-57"/>
    </g>
   </g>
   <g id="text_36">
    <!-- 0.8 -->
    <g style="fill:#ffffff;" transform="translate(293.658381 111.559318)scale(0.1 -0.1)">
     <use xlink:href="#DejaVuSans-48"/>
     <use x="63.623047" xlink:href="#DejaVuSans-46"/>
     <use x="95.410156" xlink:href="#DejaVuSans-56"/>
    </g>
   </g>
   <g id="text_37">
    <!-- 0.72 -->
    <g style="fill:#ffffff;" transform="translate(328.522585 111.559318)scale(0.1 -0.1)">
     <use xlink:href="#DejaVuSans-48"/>
     <use x="63.623047" xlink:href="#DejaVuSans-46"/>
     <use x="95.410156" xlink:href="#DejaVuSans-55"/>
     <use x="159.033203" xlink:href="#DejaVuSans-50"/>
    </g>
   </g>
   <g id="text_38">
    <!-- Specificity -->
    <g transform="translate(251.662841 16.318125)scale(0.12 -0.12)">
     <defs>
      <path d="M 53.515625 70.515625 
L 53.515625 60.890625 
Q 47.90625 63.578125 42.921875 64.890625 
Q 37.9375 66.21875 33.296875 66.21875 
Q 25.25 66.21875 20.875 63.09375 
Q 16.5 59.96875 16.5 54.203125 
Q 16.5 49.359375 19.40625 46.890625 
Q 22.3125 44.4375 30.421875 42.921875 
L 36.375 41.703125 
Q 47.40625 39.59375 52.65625 34.296875 
Q 57.90625 29 57.90625 20.125 
Q 57.90625 9.515625 50.796875 4.046875 
Q 43.703125 -1.421875 29.984375 -1.421875 
Q 24.8125 -1.421875 18.96875 -0.25 
Q 13.140625 0.921875 6.890625 3.21875 
L 6.890625 13.375 
Q 12.890625 10.015625 18.65625 8.296875 
Q 24.421875 6.59375 29.984375 6.59375 
Q 38.421875 6.59375 43.015625 9.90625 
Q 47.609375 13.234375 47.609375 19.390625 
Q 47.609375 24.75 44.3125 27.78125 
Q 41.015625 30.8125 33.5 32.328125 
L 27.484375 33.5 
Q 16.453125 35.6875 11.515625 40.375 
Q 6.59375 45.0625 6.59375 53.421875 
Q 6.59375 63.09375 13.40625 68.65625 
Q 20.21875 74.21875 32.171875 74.21875 
Q 37.3125 74.21875 42.625 73.28125 
Q 47.953125 72.359375 53.515625 70.515625 
z
" id="DejaVuSans-83"/>
      <path d="M 18.109375 8.203125 
L 18.109375 -20.796875 
L 9.078125 -20.796875 
L 9.078125 54.6875 
L 18.109375 54.6875 
L 18.109375 46.390625 
Q 20.953125 51.265625 25.265625 53.625 
Q 29.59375 56 35.59375 56 
Q 45.5625 56 51.78125 48.09375 
Q 58.015625 40.1875 58.015625 27.296875 
Q 58.015625 14.40625 51.78125 6.484375 
Q 45.5625 -1.421875 35.59375 -1.421875 
Q 29.59375 -1.421875 25.265625 0.953125 
Q 20.953125 3.328125 18.109375 8.203125 
z
M 48.6875 27.296875 
Q 48.6875 37.203125 44.609375 42.84375 
Q 40.53125 48.484375 33.40625 48.484375 
Q 26.265625 48.484375 22.1875 42.84375 
Q 18.109375 37.203125 18.109375 27.296875 
Q 18.109375 17.390625 22.1875 11.75 
Q 26.265625 6.109375 33.40625 6.109375 
Q 40.53125 6.109375 44.609375 11.75 
Q 48.6875 17.390625 48.6875 27.296875 
z
" id="DejaVuSans-112"/>
      <path d="M 56.203125 29.59375 
L 56.203125 25.203125 
L 14.890625 25.203125 
Q 15.484375 15.921875 20.484375 11.0625 
Q 25.484375 6.203125 34.421875 6.203125 
Q 39.59375 6.203125 44.453125 7.46875 
Q 49.3125 8.734375 54.109375 11.28125 
L 54.109375 2.78125 
Q 49.265625 0.734375 44.1875 -0.34375 
Q 39.109375 -1.421875 33.890625 -1.421875 
Q 20.796875 -1.421875 13.15625 6.1875 
Q 5.515625 13.8125 5.515625 26.8125 
Q 5.515625 40.234375 12.765625 48.109375 
Q 20.015625 56 32.328125 56 
Q 43.359375 56 49.78125 48.890625 
Q 56.203125 41.796875 56.203125 29.59375 
z
M 47.21875 32.234375 
Q 47.125 39.59375 43.09375 43.984375 
Q 39.0625 48.390625 32.421875 48.390625 
Q 24.90625 48.390625 20.390625 44.140625 
Q 15.875 39.890625 15.1875 32.171875 
z
" id="DejaVuSans-101"/>
      <path d="M 48.78125 52.59375 
L 48.78125 44.1875 
Q 44.96875 46.296875 41.140625 47.34375 
Q 37.3125 48.390625 33.40625 48.390625 
Q 24.65625 48.390625 19.8125 42.84375 
Q 14.984375 37.3125 14.984375 27.296875 
Q 14.984375 17.28125 19.8125 11.734375 
Q 24.65625 6.203125 33.40625 6.203125 
Q 37.3125 6.203125 41.140625 7.25 
Q 44.96875 8.296875 48.78125 10.40625 
L 48.78125 2.09375 
Q 45.015625 0.34375 40.984375 -0.53125 
Q 36.96875 -1.421875 32.421875 -1.421875 
Q 20.0625 -1.421875 12.78125 6.34375 
Q 5.515625 14.109375 5.515625 27.296875 
Q 5.515625 40.671875 12.859375 48.328125 
Q 20.21875 56 33.015625 56 
Q 37.15625 56 41.109375 55.140625 
Q 45.0625 54.296875 48.78125 52.59375 
z
" id="DejaVuSans-99"/>
      <path d="M 9.421875 54.6875 
L 18.40625 54.6875 
L 18.40625 0 
L 9.421875 0 
z
M 9.421875 75.984375 
L 18.40625 75.984375 
L 18.40625 64.59375 
L 9.421875 64.59375 
z
" id="DejaVuSans-105"/>
      <path d="M 37.109375 75.984375 
L 37.109375 68.5 
L 28.515625 68.5 
Q 23.6875 68.5 21.796875 66.546875 
Q 19.921875 64.59375 19.921875 59.515625 
L 19.921875 54.6875 
L 34.71875 54.6875 
L 34.71875 47.703125 
L 19.921875 47.703125 
L 19.921875 0 
L 10.890625 0 
L 10.890625 47.703125 
L 2.296875 47.703125 
L 2.296875 54.6875 
L 10.890625 54.6875 
L 10.890625 58.5 
Q 10.890625 67.625 15.140625 71.796875 
Q 19.390625 75.984375 28.609375 75.984375 
z
" id="DejaVuSans-102"/>
      <path d="M 18.3125 70.21875 
L 18.3125 54.6875 
L 36.8125 54.6875 
L 36.8125 47.703125 
L 18.3125 47.703125 
L 18.3125 18.015625 
Q 18.3125 11.328125 20.140625 9.421875 
Q 21.96875 7.515625 27.59375 7.515625 
L 36.8125 7.515625 
L 36.8125 0 
L 27.59375 0 
Q 17.1875 0 13.234375 3.875 
Q 9.28125 7.765625 9.28125 18.015625 
L 9.28125 47.703125 
L 2.6875 47.703125 
L 2.6875 54.6875 
L 9.28125 54.6875 
L 9.28125 70.21875 
z
" id="DejaVuSans-116"/>
      <path d="M 32.171875 -5.078125 
Q 28.375 -14.84375 24.75 -17.8125 
Q 21.140625 -20.796875 15.09375 -20.796875 
L 7.90625 -20.796875 
L 7.90625 -13.28125 
L 13.1875 -13.28125 
Q 16.890625 -13.28125 18.9375 -11.515625 
Q 21 -9.765625 23.484375 -3.21875 
L 25.09375 0.875 
L 2.984375 54.6875 
L 12.5 54.6875 
L 29.59375 11.921875 
L 46.6875 54.6875 
L 56.203125 54.6875 
z
" id="DejaVuSans-121"/>
     </defs>
     <use xlink:href="#DejaVuSans-83"/>
     <use x="63.476562" xlink:href="#DejaVuSans-112"/>
     <use x="126.953125" xlink:href="#DejaVuSans-101"/>
     <use x="188.476562" xlink:href="#DejaVuSans-99"/>
     <use x="243.457031" xlink:href="#DejaVuSans-105"/>
     <use x="271.240234" xlink:href="#DejaVuSans-102"/>
     <use x="306.445312" xlink:href="#DejaVuSans-105"/>
     <use x="334.228516" xlink:href="#DejaVuSans-99"/>
     <use x="389.208984" xlink:href="#DejaVuSans-105"/>
     <use x="416.992188" xlink:href="#DejaVuSans-116"/>
     <use x="456.201172" xlink:href="#DejaVuSans-121"/>
    </g>
   </g>
  </g>
  <g id="axes_3">
   <g id="patch_3">
    <path d="M 23.878125 239.758125 
L 176.059943 239.758125 
L 176.059943 140.921761 
L 23.878125 140.921761 
z
" style="fill:#ffffff;"/>
   </g>
   <g id="QuadMesh_3">
    <path clip-path="url(#pb30b13bf66)" d="M 23.878125 140.921761 
L 61.92358 140.921761 
L 61.92358 165.630852 
L 23.878125 165.630852 
L 23.878125 140.921761 
" style="fill:#802635;"/>
    <path clip-path="url(#pb30b13bf66)" d="M 61.92358 140.921761 
L 99.969034 140.921761 
L 99.969034 165.630852 
L 61.92358 165.630852 
L 61.92358 140.921761 
" style="fill:#802635;"/>
    <path clip-path="url(#pb30b13bf66)" d="M 99.969034 140.921761 
L 138.014489 140.921761 
L 138.014489 165.630852 
L 99.969034 165.630852 
L 99.969034 140.921761 
" style="fill:#802635;"/>
    <path clip-path="url(#pb30b13bf66)" d="M 138.014489 140.921761 
L 176.059943 140.921761 
L 176.059943 165.630852 
L 138.014489 165.630852 
L 138.014489 140.921761 
" style="fill:#7e2332;"/>
    <path clip-path="url(#pb30b13bf66)" d="M 23.878125 165.630852 
L 61.92358 165.630852 
L 61.92358 190.339943 
L 23.878125 190.339943 
L 23.878125 165.630852 
" style="fill:#7d2231;"/>
    <path clip-path="url(#pb30b13bf66)" d="M 61.92358 165.630852 
L 99.969034 165.630852 
L 99.969034 190.339943 
L 61.92358 190.339943 
L 61.92358 165.630852 
" style="fill:#943a49;"/>
    <path clip-path="url(#pb30b13bf66)" d="M 99.969034 165.630852 
L 138.014489 165.630852 
L 138.014489 190.339943 
L 99.969034 190.339943 
L 99.969034 165.630852 
" style="fill:#7a1f2e;"/>
    <path clip-path="url(#pb30b13bf66)" d="M 138.014489 165.630852 
L 176.059943 165.630852 
L 176.059943 190.339943 
L 138.014489 190.339943 
L 138.014489 165.630852 
" style="fill:#7a1f2e;"/>
    <path clip-path="url(#pb30b13bf66)" d="M 23.878125 190.339943 
L 61.92358 190.339943 
L 61.92358 215.049034 
L 23.878125 215.049034 
L 23.878125 190.339943 
" style="fill:#bb6271;"/>
    <path clip-path="url(#pb30b13bf66)" d="M 61.92358 190.339943 
L 99.969034 190.339943 
L 99.969034 215.049034 
L 61.92358 215.049034 
L 61.92358 190.339943 
" style="fill:#7a1f2e;"/>
    <path clip-path="url(#pb30b13bf66)" d="M 99.969034 190.339943 
L 138.014489 190.339943 
L 138.014489 215.049034 
L 99.969034 215.049034 
L 99.969034 190.339943 
" style="fill:#7a1f2e;"/>
    <path clip-path="url(#pb30b13bf66)" d="M 138.014489 190.339943 
L 176.059943 190.339943 
L 176.059943 215.049034 
L 138.014489 215.049034 
L 138.014489 190.339943 
" style="fill:#7a1f2e;"/>
    <path clip-path="url(#pb30b13bf66)" d="M 23.878125 215.049034 
L 61.92358 215.049034 
L 61.92358 239.758125 
L 23.878125 239.758125 
L 23.878125 215.049034 
" style="fill:#af5665;"/>
    <path clip-path="url(#pb30b13bf66)" d="M 61.92358 215.049034 
L 99.969034 215.049034 
L 99.969034 239.758125 
L 61.92358 239.758125 
L 61.92358 215.049034 
" style="fill:#872c3b;"/>
    <path clip-path="url(#pb30b13bf66)" d="M 99.969034 215.049034 
L 138.014489 215.049034 
L 138.014489 239.758125 
L 99.969034 239.758125 
L 99.969034 215.049034 
" style="fill:#7a1f2e;"/>
    <path clip-path="url(#pb30b13bf66)" d="M 138.014489 215.049034 
L 176.059943 215.049034 
L 176.059943 239.758125 
L 138.014489 239.758125 
L 138.014489 215.049034 
" style="fill:#7a1f2e;"/>
   </g>
   <g id="matplotlib.axis_2">
    <g id="xtick_1">
     <g id="line2d_5">
      <defs>
       <path d="M 0 0 
L 0 3.5 
" id="ma6967ce898" style="stroke:#000000;stroke-width:0.8;"/>
      </defs>
      <g>
       <use style="stroke:#000000;stroke-width:0.8;" x="42.900852" xlink:href="#ma6967ce898" y="239.758125"/>
      </g>
     </g>
     <g id="text_39">
      <!-- 0.4 -->
      <g transform="translate(34.94929 254.356562)scale(0.1 -0.1)">
       <use xlink:href="#DejaVuSans-48"/>
       <use x="63.623047" xlink:href="#DejaVuSans-46"/>
       <use x="95.410156" xlink:href="#DejaVuSans-52"/>
      </g>
     </g>
    </g>
    <g id="xtick_2">
     <g id="line2d_6">
      <g>
       <use style="stroke:#000000;stroke-width:0.8;" x="80.946307" xlink:href="#ma6967ce898" y="239.758125"/>
      </g>
     </g>
     <g id="text_40">
      <!-- 0.9 -->
      <g transform="translate(72.994744 254.356562)scale(0.1 -0.1)">
       <use xlink:href="#DejaVuSans-48"/>
       <use x="63.623047" xlink:href="#DejaVuSans-46"/>
       <use x="95.410156" xlink:href="#DejaVuSans-57"/>
      </g>
     </g>
    </g>
    <g id="xtick_3">
     <g id="line2d_7">
      <g>
       <use style="stroke:#000000;stroke-width:0.8;" x="118.991761" xlink:href="#ma6967ce898" y="239.758125"/>
      </g>
     </g>
     <g id="text_41">
      <!-- 1.4 -->
      <g transform="translate(111.040199 254.356562)scale(0.1 -0.1)">
       <use xlink:href="#DejaVuSans-49"/>
       <use x="63.623047" xlink:href="#DejaVuSans-46"/>
       <use x="95.410156" xlink:href="#DejaVuSans-52"/>
      </g>
     </g>
    </g>
    <g id="xtick_4">
     <g id="line2d_8">
      <g>
       <use style="stroke:#000000;stroke-width:0.8;" x="157.037216" xlink:href="#ma6967ce898" y="239.758125"/>
      </g>
     </g>
     <g id="text_42">
      <!-- 1.8 -->
      <g transform="translate(149.085653 254.356562)scale(0.1 -0.1)">
       <use xlink:href="#DejaVuSans-49"/>
       <use x="63.623047" xlink:href="#DejaVuSans-46"/>
       <use x="95.410156" xlink:href="#DejaVuSans-56"/>
      </g>
     </g>
    </g>
   </g>
   <g id="matplotlib.axis_3">
    <g id="ytick_5">
     <g id="line2d_9">
      <g>
       <use style="stroke:#000000;stroke-width:0.8;" x="23.878125" xlink:href="#mb2b74f933f" y="153.276307"/>
      </g>
     </g>
     <g id="text_43">
      <!-- 20 -->
      <g transform="translate(14.798438 162.202088)rotate(-90)scale(0.1 -0.1)">
       <use xlink:href="#DejaVuSans-50"/>
       <use x="63.623047" xlink:href="#DejaVuSans-48"/>
      </g>
     </g>
    </g>
    <g id="ytick_6">
     <g id="line2d_10">
      <g>
       <use style="stroke:#000000;stroke-width:0.8;" x="23.878125" xlink:href="#mb2b74f933f" y="177.985398"/>
      </g>
     </g>
     <g id="text_44">
      <!-- 200 -->
      <g transform="translate(14.798437 193.273679)rotate(-90)scale(0.1 -0.1)">
       <use xlink:href="#DejaVuSans-50"/>
       <use x="63.623047" xlink:href="#DejaVuSans-48"/>
       <use x="127.246094" xlink:href="#DejaVuSans-48"/>
      </g>
     </g>
    </g>
    <g id="ytick_7">
     <g id="line2d_11">
      <g>
       <use style="stroke:#000000;stroke-width:0.8;" x="23.878125" xlink:href="#mb2b74f933f" y="202.694489"/>
      </g>
     </g>
     <g id="text_45">
      <!-- 750 -->
      <g transform="translate(14.798437 217.98277)rotate(-90)scale(0.1 -0.1)">
       <use xlink:href="#DejaVuSans-55"/>
       <use x="63.623047" xlink:href="#DejaVuSans-53"/>
       <use x="127.246094" xlink:href="#DejaVuSans-48"/>
      </g>
     </g>
    </g>
    <g id="ytick_8">
     <g id="line2d_12">
      <g>
       <use style="stroke:#000000;stroke-width:0.8;" x="23.878125" xlink:href="#mb2b74f933f" y="227.40358"/>
      </g>
     </g>
     <g id="text_46">
      <!-- 1000 -->
      <g transform="translate(14.798437 249.054361)rotate(-90)scale(0.1 -0.1)">
       <use xlink:href="#DejaVuSans-49"/>
       <use x="63.623047" xlink:href="#DejaVuSans-48"/>
       <use x="127.246094" xlink:href="#DejaVuSans-48"/>
       <use x="190.869141" xlink:href="#DejaVuSans-48"/>
      </g>
     </g>
    </g>
   </g>
   <g id="text_47">
    <!-- 0.81 -->
    <g style="fill:#ffffff;" transform="translate(31.76804 156.035682)scale(0.1 -0.1)">
     <use xlink:href="#DejaVuSans-48"/>
     <use x="63.623047" xlink:href="#DejaVuSans-46"/>
     <use x="95.410156" xlink:href="#DejaVuSans-56"/>
     <use x="159.033203" xlink:href="#DejaVuSans-49"/>
    </g>
   </g>
   <g id="text_48">
    <!-- 0.81 -->
    <g style="fill:#ffffff;" transform="translate(69.813494 156.035682)scale(0.1 -0.1)">
     <use xlink:href="#DejaVuSans-48"/>
     <use x="63.623047" xlink:href="#DejaVuSans-46"/>
     <use x="95.410156" xlink:href="#DejaVuSans-56"/>
     <use x="159.033203" xlink:href="#DejaVuSans-49"/>
    </g>
   </g>
   <g id="text_49">
    <!-- 0.81 -->
    <g style="fill:#ffffff;" transform="translate(107.858949 156.035682)scale(0.1 -0.1)">
     <use xlink:href="#DejaVuSans-48"/>
     <use x="63.623047" xlink:href="#DejaVuSans-46"/>
     <use x="95.410156" xlink:href="#DejaVuSans-56"/>
     <use x="159.033203" xlink:href="#DejaVuSans-49"/>
    </g>
   </g>
   <g id="text_50">
    <!-- 0.81 -->
    <g style="fill:#ffffff;" transform="translate(145.904403 156.035682)scale(0.1 -0.1)">
     <use xlink:href="#DejaVuSans-48"/>
     <use x="63.623047" xlink:href="#DejaVuSans-46"/>
     <use x="95.410156" xlink:href="#DejaVuSans-56"/>
     <use x="159.033203" xlink:href="#DejaVuSans-49"/>
    </g>
   </g>
   <g id="text_51">
    <!-- 0.8 -->
    <g style="fill:#ffffff;" transform="translate(34.94929 180.744773)scale(0.1 -0.1)">
     <use xlink:href="#DejaVuSans-48"/>
     <use x="63.623047" xlink:href="#DejaVuSans-46"/>
     <use x="95.410156" xlink:href="#DejaVuSans-56"/>
    </g>
   </g>
   <g id="text_52">
    <!-- 0.84 -->
    <g style="fill:#ffffff;" transform="translate(69.813494 180.744773)scale(0.1 -0.1)">
     <use xlink:href="#DejaVuSans-48"/>
     <use x="63.623047" xlink:href="#DejaVuSans-46"/>
     <use x="95.410156" xlink:href="#DejaVuSans-56"/>
     <use x="159.033203" xlink:href="#DejaVuSans-52"/>
    </g>
   </g>
   <g id="text_53">
    <!-- 0.78 -->
    <g style="fill:#ffffff;" transform="translate(107.858949 180.744773)scale(0.1 -0.1)">
     <use xlink:href="#DejaVuSans-48"/>
     <use x="63.623047" xlink:href="#DejaVuSans-46"/>
     <use x="95.410156" xlink:href="#DejaVuSans-55"/>
     <use x="159.033203" xlink:href="#DejaVuSans-56"/>
    </g>
   </g>
   <g id="text_54">
    <!-- 0.79 -->
    <g style="fill:#ffffff;" transform="translate(145.904403 180.744773)scale(0.1 -0.1)">
     <use xlink:href="#DejaVuSans-48"/>
     <use x="63.623047" xlink:href="#DejaVuSans-46"/>
     <use x="95.410156" xlink:href="#DejaVuSans-55"/>
     <use x="159.033203" xlink:href="#DejaVuSans-57"/>
    </g>
   </g>
   <g id="text_55">
    <!-- 0.9 -->
    <g style="fill:#ffffff;" transform="translate(34.94929 205.453864)scale(0.1 -0.1)">
     <use xlink:href="#DejaVuSans-48"/>
     <use x="63.623047" xlink:href="#DejaVuSans-46"/>
     <use x="95.410156" xlink:href="#DejaVuSans-57"/>
    </g>
   </g>
   <g id="text_56">
    <!-- 0.79 -->
    <g style="fill:#ffffff;" transform="translate(69.813494 205.453864)scale(0.1 -0.1)">
     <use xlink:href="#DejaVuSans-48"/>
     <use x="63.623047" xlink:href="#DejaVuSans-46"/>
     <use x="95.410156" xlink:href="#DejaVuSans-55"/>
     <use x="159.033203" xlink:href="#DejaVuSans-57"/>
    </g>
   </g>
   <g id="text_57">
    <!-- 0.74 -->
    <g style="fill:#ffffff;" transform="translate(107.858949 205.453864)scale(0.1 -0.1)">
     <use xlink:href="#DejaVuSans-48"/>
     <use x="63.623047" xlink:href="#DejaVuSans-46"/>
     <use x="95.410156" xlink:href="#DejaVuSans-55"/>
     <use x="159.033203" xlink:href="#DejaVuSans-52"/>
    </g>
   </g>
   <g id="text_58">
    <!-- 0.76 -->
    <g style="fill:#ffffff;" transform="translate(145.904403 205.453864)scale(0.1 -0.1)">
     <use xlink:href="#DejaVuSans-48"/>
     <use x="63.623047" xlink:href="#DejaVuSans-46"/>
     <use x="95.410156" xlink:href="#DejaVuSans-55"/>
     <use x="159.033203" xlink:href="#DejaVuSans-54"/>
    </g>
   </g>
   <g id="text_59">
    <!-- 0.88 -->
    <g style="fill:#ffffff;" transform="translate(31.76804 230.162955)scale(0.1 -0.1)">
     <use xlink:href="#DejaVuSans-48"/>
     <use x="63.623047" xlink:href="#DejaVuSans-46"/>
     <use x="95.410156" xlink:href="#DejaVuSans-56"/>
     <use x="159.033203" xlink:href="#DejaVuSans-56"/>
    </g>
   </g>
   <g id="text_60">
    <!-- 0.82 -->
    <g style="fill:#ffffff;" transform="translate(69.813494 230.162955)scale(0.1 -0.1)">
     <use xlink:href="#DejaVuSans-48"/>
     <use x="63.623047" xlink:href="#DejaVuSans-46"/>
     <use x="95.410156" xlink:href="#DejaVuSans-56"/>
     <use x="159.033203" xlink:href="#DejaVuSans-50"/>
    </g>
   </g>
   <g id="text_61">
    <!-- 0.7 -->
    <g style="fill:#ffffff;" transform="translate(111.040199 230.162955)scale(0.1 -0.1)">
     <use xlink:href="#DejaVuSans-48"/>
     <use x="63.623047" xlink:href="#DejaVuSans-46"/>
     <use x="95.410156" xlink:href="#DejaVuSans-55"/>
    </g>
   </g>
   <g id="text_62">
    <!-- 0.75 -->
    <g style="fill:#ffffff;" transform="translate(145.904403 230.162955)scale(0.1 -0.1)">
     <use xlink:href="#DejaVuSans-48"/>
     <use x="63.623047" xlink:href="#DejaVuSans-46"/>
     <use x="95.410156" xlink:href="#DejaVuSans-55"/>
     <use x="159.033203" xlink:href="#DejaVuSans-53"/>
    </g>
   </g>
   <g id="text_63">
    <!-- Sensitivity -->
    <g transform="translate(68.732472 134.921761)scale(0.12 -0.12)">
     <defs>
      <path d="M 54.890625 33.015625 
L 54.890625 0 
L 45.90625 0 
L 45.90625 32.71875 
Q 45.90625 40.484375 42.875 44.328125 
Q 39.84375 48.1875 33.796875 48.1875 
Q 26.515625 48.1875 22.3125 43.546875 
Q 18.109375 38.921875 18.109375 30.90625 
L 18.109375 0 
L 9.078125 0 
L 9.078125 54.6875 
L 18.109375 54.6875 
L 18.109375 46.1875 
Q 21.34375 51.125 25.703125 53.5625 
Q 30.078125 56 35.796875 56 
Q 45.21875 56 50.046875 50.171875 
Q 54.890625 44.34375 54.890625 33.015625 
z
" id="DejaVuSans-110"/>
      <path d="M 44.28125 53.078125 
L 44.28125 44.578125 
Q 40.484375 46.53125 36.375 47.5 
Q 32.28125 48.484375 27.875 48.484375 
Q 21.1875 48.484375 17.84375 46.4375 
Q 14.5 44.390625 14.5 40.28125 
Q 14.5 37.15625 16.890625 35.375 
Q 19.28125 33.59375 26.515625 31.984375 
L 29.59375 31.296875 
Q 39.15625 29.25 43.1875 25.515625 
Q 47.21875 21.78125 47.21875 15.09375 
Q 47.21875 7.46875 41.1875 3.015625 
Q 35.15625 -1.421875 24.609375 -1.421875 
Q 20.21875 -1.421875 15.453125 -0.5625 
Q 10.6875 0.296875 5.421875 2 
L 5.421875 11.28125 
Q 10.40625 8.6875 15.234375 7.390625 
Q 20.0625 6.109375 24.8125 6.109375 
Q 31.15625 6.109375 34.5625 8.28125 
Q 37.984375 10.453125 37.984375 14.40625 
Q 37.984375 18.0625 35.515625 20.015625 
Q 33.0625 21.96875 24.703125 23.78125 
L 21.578125 24.515625 
Q 13.234375 26.265625 9.515625 29.90625 
Q 5.8125 33.546875 5.8125 39.890625 
Q 5.8125 47.609375 11.28125 51.796875 
Q 16.75 56 26.8125 56 
Q 31.78125 56 36.171875 55.265625 
Q 40.578125 54.546875 44.28125 53.078125 
z
" id="DejaVuSans-115"/>
      <path d="M 2.984375 54.6875 
L 12.5 54.6875 
L 29.59375 8.796875 
L 46.6875 54.6875 
L 56.203125 54.6875 
L 35.6875 0 
L 23.484375 0 
z
" id="DejaVuSans-118"/>
     </defs>
     <use xlink:href="#DejaVuSans-83"/>
     <use x="63.476562" xlink:href="#DejaVuSans-101"/>
     <use x="125" xlink:href="#DejaVuSans-110"/>
     <use x="188.378906" xlink:href="#DejaVuSans-115"/>
     <use x="240.478516" xlink:href="#DejaVuSans-105"/>
     <use x="268.261719" xlink:href="#DejaVuSans-116"/>
     <use x="307.470703" xlink:href="#DejaVuSans-105"/>
     <use x="335.253906" xlink:href="#DejaVuSans-118"/>
     <use x="394.433594" xlink:href="#DejaVuSans-105"/>
     <use x="422.216797" xlink:href="#DejaVuSans-116"/>
     <use x="461.425781" xlink:href="#DejaVuSans-121"/>
    </g>
   </g>
  </g>
  <g id="axes_4">
   <g id="patch_4">
    <path d="M 206.496307 239.758125 
L 358.678125 239.758125 
L 358.678125 140.921761 
L 206.496307 140.921761 
z
" style="fill:#ffffff;"/>
   </g>
   <g id="QuadMesh_4">
    <path clip-path="url(#pa4f15fc9ac)" d="M 206.496307 140.921761 
L 244.541761 140.921761 
L 244.541761 165.630852 
L 206.496307 165.630852 
L 206.496307 140.921761 
" style="fill:#882e3d;"/>
    <path clip-path="url(#pa4f15fc9ac)" d="M 244.541761 140.921761 
L 282.587216 140.921761 
L 282.587216 165.630852 
L 244.541761 165.630852 
L 244.541761 140.921761 
" style="fill:#882e3d;"/>
    <path clip-path="url(#pa4f15fc9ac)" d="M 282.587216 140.921761 
L 320.63267 140.921761 
L 320.63267 165.630852 
L 282.587216 165.630852 
L 282.587216 140.921761 
" style="fill:#882e3d;"/>
    <path clip-path="url(#pa4f15fc9ac)" d="M 320.63267 140.921761 
L 358.678125 140.921761 
L 358.678125 165.630852 
L 320.63267 165.630852 
L 320.63267 140.921761 
" style="fill:#8c3241;"/>
    <path clip-path="url(#pa4f15fc9ac)" d="M 206.496307 165.630852 
L 244.541761 165.630852 
L 244.541761 190.339943 
L 206.496307 190.339943 
L 206.496307 165.630852 
" style="fill:#7a1f2e;"/>
    <path clip-path="url(#pa4f15fc9ac)" d="M 244.541761 165.630852 
L 282.587216 165.630852 
L 282.587216 190.339943 
L 244.541761 190.339943 
L 244.541761 165.630852 
" style="fill:#7a1f2e;"/>
    <path clip-path="url(#pa4f15fc9ac)" d="M 282.587216 165.630852 
L 320.63267 165.630852 
L 320.63267 190.339943 
L 282.587216 190.339943 
L 282.587216 165.630852 
" style="fill:#7a1f2e;"/>
    <path clip-path="url(#pa4f15fc9ac)" d="M 320.63267 165.630852 
L 358.678125 165.630852 
L 358.678125 190.339943 
L 320.63267 190.339943 
L 320.63267 165.630852 
" style="fill:#7a1f2e;"/>
    <path clip-path="url(#pa4f15fc9ac)" d="M 206.496307 190.339943 
L 244.541761 190.339943 
L 244.541761 215.049034 
L 206.496307 215.049034 
L 206.496307 190.339943 
" style="fill:#7a1f2e;"/>
    <path clip-path="url(#pa4f15fc9ac)" d="M 244.541761 190.339943 
L 282.587216 190.339943 
L 282.587216 215.049034 
L 244.541761 215.049034 
L 244.541761 190.339943 
" style="fill:#7a1f2e;"/>
    <path clip-path="url(#pa4f15fc9ac)" d="M 282.587216 190.339943 
L 320.63267 190.339943 
L 320.63267 215.049034 
L 282.587216 215.049034 
L 282.587216 190.339943 
" style="fill:#7a1f2e;"/>
    <path clip-path="url(#pa4f15fc9ac)" d="M 320.63267 190.339943 
L 358.678125 190.339943 
L 358.678125 215.049034 
L 320.63267 215.049034 
L 320.63267 190.339943 
" style="fill:#7a1f2e;"/>
    <path clip-path="url(#pa4f15fc9ac)" d="M 206.496307 215.049034 
L 244.541761 215.049034 
L 244.541761 239.758125 
L 206.496307 239.758125 
L 206.496307 215.049034 
" style="fill:#7a1f2e;"/>
    <path clip-path="url(#pa4f15fc9ac)" d="M 244.541761 215.049034 
L 282.587216 215.049034 
L 282.587216 239.758125 
L 244.541761 239.758125 
L 244.541761 215.049034 
" style="fill:#7a1f2e;"/>
    <path clip-path="url(#pa4f15fc9ac)" d="M 282.587216 215.049034 
L 320.63267 215.049034 
L 320.63267 239.758125 
L 282.587216 239.758125 
L 282.587216 215.049034 
" style="fill:#7a1f2e;"/>
    <path clip-path="url(#pa4f15fc9ac)" d="M 320.63267 215.049034 
L 358.678125 215.049034 
L 358.678125 239.758125 
L 320.63267 239.758125 
L 320.63267 215.049034 
" style="fill:#7a1f2e;"/>
   </g>
   <g id="matplotlib.axis_4">
    <g id="xtick_5">
     <g id="line2d_13">
      <g>
       <use style="stroke:#000000;stroke-width:0.8;" x="225.519034" xlink:href="#ma6967ce898" y="239.758125"/>
      </g>
     </g>
     <g id="text_64">
      <!-- 0.4 -->
      <g transform="translate(217.567472 254.356562)scale(0.1 -0.1)">
       <use xlink:href="#DejaVuSans-48"/>
       <use x="63.623047" xlink:href="#DejaVuSans-46"/>
       <use x="95.410156" xlink:href="#DejaVuSans-52"/>
      </g>
     </g>
    </g>
    <g id="xtick_6">
     <g id="line2d_14">
      <g>
       <use style="stroke:#000000;stroke-width:0.8;" x="263.564489" xlink:href="#ma6967ce898" y="239.758125"/>
      </g>
     </g>
     <g id="text_65">
      <!-- 0.9 -->
      <g transform="translate(255.612926 254.356562)scale(0.1 -0.1)">
       <use xlink:href="#DejaVuSans-48"/>
       <use x="63.623047" xlink:href="#DejaVuSans-46"/>
       <use x="95.410156" xlink:href="#DejaVuSans-57"/>
      </g>
     </g>
    </g>
    <g id="xtick_7">
     <g id="line2d_15">
      <g>
       <use style="stroke:#000000;stroke-width:0.8;" x="301.609943" xlink:href="#ma6967ce898" y="239.758125"/>
      </g>
     </g>
     <g id="text_66">
      <!-- 1.4 -->
      <g transform="translate(293.658381 254.356562)scale(0.1 -0.1)">
       <use xlink:href="#DejaVuSans-49"/>
       <use x="63.623047" xlink:href="#DejaVuSans-46"/>
       <use x="95.410156" xlink:href="#DejaVuSans-52"/>
      </g>
     </g>
    </g>
    <g id="xtick_8">
     <g id="line2d_16">
      <g>
       <use style="stroke:#000000;stroke-width:0.8;" x="339.655398" xlink:href="#ma6967ce898" y="239.758125"/>
      </g>
     </g>
     <g id="text_67">
      <!-- 1.8 -->
      <g transform="translate(331.703835 254.356562)scale(0.1 -0.1)">
       <use xlink:href="#DejaVuSans-49"/>
       <use x="63.623047" xlink:href="#DejaVuSans-46"/>
       <use x="95.410156" xlink:href="#DejaVuSans-56"/>
      </g>
     </g>
    </g>
   </g>
   <g id="text_68">
    <!-- 0.82 -->
    <g style="fill:#ffffff;" transform="translate(214.386222 156.035682)scale(0.1 -0.1)">
     <use xlink:href="#DejaVuSans-48"/>
     <use x="63.623047" xlink:href="#DejaVuSans-46"/>
     <use x="95.410156" xlink:href="#DejaVuSans-56"/>
     <use x="159.033203" xlink:href="#DejaVuSans-50"/>
    </g>
   </g>
   <g id="text_69">
    <!-- 0.82 -->
    <g style="fill:#ffffff;" transform="translate(252.431676 156.035682)scale(0.1 -0.1)">
     <use xlink:href="#DejaVuSans-48"/>
     <use x="63.623047" xlink:href="#DejaVuSans-46"/>
     <use x="95.410156" xlink:href="#DejaVuSans-56"/>
     <use x="159.033203" xlink:href="#DejaVuSans-50"/>
    </g>
   </g>
   <g id="text_70">
    <!-- 0.82 -->
    <g style="fill:#ffffff;" transform="translate(290.477131 156.035682)scale(0.1 -0.1)">
     <use xlink:href="#DejaVuSans-48"/>
     <use x="63.623047" xlink:href="#DejaVuSans-46"/>
     <use x="95.410156" xlink:href="#DejaVuSans-56"/>
     <use x="159.033203" xlink:href="#DejaVuSans-50"/>
    </g>
   </g>
   <g id="text_71">
    <!-- 0.83 -->
    <g style="fill:#ffffff;" transform="translate(328.522585 156.035682)scale(0.1 -0.1)">
     <use xlink:href="#DejaVuSans-48"/>
     <use x="63.623047" xlink:href="#DejaVuSans-46"/>
     <use x="95.410156" xlink:href="#DejaVuSans-56"/>
     <use x="159.033203" xlink:href="#DejaVuSans-51"/>
    </g>
   </g>
   <g id="text_72">
    <!-- 0.8 -->
    <g style="fill:#ffffff;" transform="translate(217.567472 180.744773)scale(0.1 -0.1)">
     <use xlink:href="#DejaVuSans-48"/>
     <use x="63.623047" xlink:href="#DejaVuSans-46"/>
     <use x="95.410156" xlink:href="#DejaVuSans-56"/>
    </g>
   </g>
   <g id="text_73">
    <!-- 0.76 -->
    <g style="fill:#ffffff;" transform="translate(252.431676 180.744773)scale(0.1 -0.1)">
     <use xlink:href="#DejaVuSans-48"/>
     <use x="63.623047" xlink:href="#DejaVuSans-46"/>
     <use x="95.410156" xlink:href="#DejaVuSans-55"/>
     <use x="159.033203" xlink:href="#DejaVuSans-54"/>
    </g>
   </g>
   <g id="text_74">
    <!-- 0.78 -->
    <g style="fill:#ffffff;" transform="translate(290.477131 180.744773)scale(0.1 -0.1)">
     <use xlink:href="#DejaVuSans-48"/>
     <use x="63.623047" xlink:href="#DejaVuSans-46"/>
     <use x="95.410156" xlink:href="#DejaVuSans-55"/>
     <use x="159.033203" xlink:href="#DejaVuSans-56"/>
    </g>
   </g>
   <g id="text_75">
    <!-- 0.78 -->
    <g style="fill:#ffffff;" transform="translate(328.522585 180.744773)scale(0.1 -0.1)">
     <use xlink:href="#DejaVuSans-48"/>
     <use x="63.623047" xlink:href="#DejaVuSans-46"/>
     <use x="95.410156" xlink:href="#DejaVuSans-55"/>
     <use x="159.033203" xlink:href="#DejaVuSans-56"/>
    </g>
   </g>
   <g id="text_76">
    <!-- 0.75 -->
    <g style="fill:#ffffff;" transform="translate(214.386222 205.453864)scale(0.1 -0.1)">
     <use xlink:href="#DejaVuSans-48"/>
     <use x="63.623047" xlink:href="#DejaVuSans-46"/>
     <use x="95.410156" xlink:href="#DejaVuSans-55"/>
     <use x="159.033203" xlink:href="#DejaVuSans-53"/>
    </g>
   </g>
   <g id="text_77">
    <!-- 0.74 -->
    <g style="fill:#ffffff;" transform="translate(252.431676 205.453864)scale(0.1 -0.1)">
     <use xlink:href="#DejaVuSans-48"/>
     <use x="63.623047" xlink:href="#DejaVuSans-46"/>
     <use x="95.410156" xlink:href="#DejaVuSans-55"/>
     <use x="159.033203" xlink:href="#DejaVuSans-52"/>
    </g>
   </g>
   <g id="text_78">
    <!-- 0.79 -->
    <g style="fill:#ffffff;" transform="translate(290.477131 205.453864)scale(0.1 -0.1)">
     <use xlink:href="#DejaVuSans-48"/>
     <use x="63.623047" xlink:href="#DejaVuSans-46"/>
     <use x="95.410156" xlink:href="#DejaVuSans-55"/>
     <use x="159.033203" xlink:href="#DejaVuSans-57"/>
    </g>
   </g>
   <g id="text_79">
    <!-- 0.74 -->
    <g style="fill:#ffffff;" transform="translate(328.522585 205.453864)scale(0.1 -0.1)">
     <use xlink:href="#DejaVuSans-48"/>
     <use x="63.623047" xlink:href="#DejaVuSans-46"/>
     <use x="95.410156" xlink:href="#DejaVuSans-55"/>
     <use x="159.033203" xlink:href="#DejaVuSans-52"/>
    </g>
   </g>
   <g id="text_80">
    <!-- 0.79 -->
    <g style="fill:#ffffff;" transform="translate(214.386222 230.162955)scale(0.1 -0.1)">
     <use xlink:href="#DejaVuSans-48"/>
     <use x="63.623047" xlink:href="#DejaVuSans-46"/>
     <use x="95.410156" xlink:href="#DejaVuSans-55"/>
     <use x="159.033203" xlink:href="#DejaVuSans-57"/>
    </g>
   </g>
   <g id="text_81">
    <!-- 0.8 -->
    <g style="fill:#ffffff;" transform="translate(255.612926 230.162955)scale(0.1 -0.1)">
     <use xlink:href="#DejaVuSans-48"/>
     <use x="63.623047" xlink:href="#DejaVuSans-46"/>
     <use x="95.410156" xlink:href="#DejaVuSans-56"/>
    </g>
   </g>
   <g id="text_82">
    <!-- 0.8 -->
    <g style="fill:#ffffff;" transform="translate(293.658381 230.162955)scale(0.1 -0.1)">
     <use xlink:href="#DejaVuSans-48"/>
     <use x="63.623047" xlink:href="#DejaVuSans-46"/>
     <use x="95.410156" xlink:href="#DejaVuSans-56"/>
    </g>
   </g>
   <g id="text_83">
    <!-- 0.73 -->
    <g style="fill:#ffffff;" transform="translate(328.522585 230.162955)scale(0.1 -0.1)">
     <use xlink:href="#DejaVuSans-48"/>
     <use x="63.623047" xlink:href="#DejaVuSans-46"/>
     <use x="95.410156" xlink:href="#DejaVuSans-55"/>
     <use x="159.033203" xlink:href="#DejaVuSans-51"/>
    </g>
   </g>
   <g id="text_84">
    <!-- Accuracy -->
    <g transform="translate(255.193466 134.921761)scale(0.12 -0.12)">
     <defs>
      <path d="M 8.5 21.578125 
L 8.5 54.6875 
L 17.484375 54.6875 
L 17.484375 21.921875 
Q 17.484375 14.15625 20.5 10.265625 
Q 23.53125 6.390625 29.59375 6.390625 
Q 36.859375 6.390625 41.078125 11.03125 
Q 45.3125 15.671875 45.3125 23.6875 
L 45.3125 54.6875 
L 54.296875 54.6875 
L 54.296875 0 
L 45.3125 0 
L 45.3125 8.40625 
Q 42.046875 3.421875 37.71875 1 
Q 33.40625 -1.421875 27.6875 -1.421875 
Q 18.265625 -1.421875 13.375 4.4375 
Q 8.5 10.296875 8.5 21.578125 
z
M 31.109375 56 
z
" id="DejaVuSans-117"/>
      <path d="M 41.109375 46.296875 
Q 39.59375 47.171875 37.8125 47.578125 
Q 36.03125 48 33.890625 48 
Q 26.265625 48 22.1875 43.046875 
Q 18.109375 38.09375 18.109375 28.8125 
L 18.109375 0 
L 9.078125 0 
L 9.078125 54.6875 
L 18.109375 54.6875 
L 18.109375 46.1875 
Q 20.953125 51.171875 25.484375 53.578125 
Q 30.03125 56 36.53125 56 
Q 37.453125 56 38.578125 55.875 
Q 39.703125 55.765625 41.0625 55.515625 
z
" id="DejaVuSans-114"/>
      <path d="M 34.28125 27.484375 
Q 23.390625 27.484375 19.1875 25 
Q 14.984375 22.515625 14.984375 16.5 
Q 14.984375 11.71875 18.140625 8.90625 
Q 21.296875 6.109375 26.703125 6.109375 
Q 34.1875 6.109375 38.703125 11.40625 
Q 43.21875 16.703125 43.21875 25.484375 
L 43.21875 27.484375 
z
M 52.203125 31.203125 
L 52.203125 0 
L 43.21875 0 
L 43.21875 8.296875 
Q 40.140625 3.328125 35.546875 0.953125 
Q 30.953125 -1.421875 24.3125 -1.421875 
Q 15.921875 -1.421875 10.953125 3.296875 
Q 6 8.015625 6 15.921875 
Q 6 25.140625 12.171875 29.828125 
Q 18.359375 34.515625 30.609375 34.515625 
L 43.21875 34.515625 
L 43.21875 35.40625 
Q 43.21875 41.609375 39.140625 45 
Q 35.0625 48.390625 27.6875 48.390625 
Q 23 48.390625 18.546875 47.265625 
Q 14.109375 46.140625 10.015625 43.890625 
L 10.015625 52.203125 
Q 14.9375 54.109375 19.578125 55.046875 
Q 24.21875 56 28.609375 56 
Q 40.484375 56 46.34375 49.84375 
Q 52.203125 43.703125 52.203125 31.203125 
z
" id="DejaVuSans-97"/>
     </defs>
     <use xlink:href="#DejaVuSans-65"/>
     <use x="66.658203" xlink:href="#DejaVuSans-99"/>
     <use x="121.638672" xlink:href="#DejaVuSans-99"/>
     <use x="176.619141" xlink:href="#DejaVuSans-117"/>
     <use x="239.998047" xlink:href="#DejaVuSans-114"/>
     <use x="281.111328" xlink:href="#DejaVuSans-97"/>
     <use x="342.390625" xlink:href="#DejaVuSans-99"/>
     <use x="397.371094" xlink:href="#DejaVuSans-121"/>
    </g>
   </g>
  </g>
 </g>
 <defs>
  <clipPath id="p0064fe82c9">
   <rect height="98.836364" width="152.181818" x="23.878125" y="22.318125"/>
  </clipPath>
  <clipPath id="p3ad130fc77">
   <rect height="98.836364" width="152.181818" x="206.496307" y="22.318125"/>
  </clipPath>
  <clipPath id="pb30b13bf66">
   <rect height="98.836364" width="152.181818" x="23.878125" y="140.921761"/>
  </clipPath>
  <clipPath id="pa4f15fc9ac">
   <rect height="98.836364" width="152.181818" x="206.496307" y="140.921761"/>
  </clipPath>
 </defs>
</svg>
