<?xml version="1.0" encoding="utf-8" standalone="no"?>
<!DOCTYPE svg PUBLIC "-//W3C//DTD SVG 1.1//EN"
  "http://www.w3.org/Graphics/SVG/1.1/DTD/svg11.dtd">
<!-- Created with matplotlib (https://matplotlib.org/) -->
<svg height="370.91625pt" version="1.1" viewBox="0 0 393.732813 370.91625" width="393.732813pt" xmlns="http://www.w3.org/2000/svg" xmlns:xlink="http://www.w3.org/1999/xlink">
 <metadata>
  <rdf:RDF xmlns:cc="http://creativecommons.org/ns#" xmlns:dc="http://purl.org/dc/elements/1.1/" xmlns:rdf="http://www.w3.org/1999/02/22-rdf-syntax-ns#">
   <cc:Work>
    <dc:type rdf:resource="http://purl.org/dc/dcmitype/StillImage"/>
    <dc:date>2021-05-04T17:42:50.408408</dc:date>
    <dc:format>image/svg+xml</dc:format>
    <dc:creator>
     <cc:Agent>
      <dc:title>Matplotlib v3.3.2, https://matplotlib.org/</dc:title>
     </cc:Agent>
    </dc:creator>
   </cc:Work>
  </rdf:RDF>
 </metadata>
 <defs>
  <style type="text/css">*{stroke-linecap:butt;stroke-linejoin:round;}</style>
 </defs>
 <g id="figure_1">
  <g id="patch_1">
   <path d="M 0 370.91625 
L 393.732813 370.91625 
L 393.732813 0 
L 0 0 
z
" style="fill:none;"/>
  </g>
  <g id="axes_1">
   <g id="patch_2">
    <path d="M 43.78125 333.36 
L 378.58125 333.36 
L 378.58125 7.2 
L 43.78125 7.2 
z
" style="fill:#ffffff;"/>
   </g>
   <g id="PolyCollection_1">
    <defs>
     <path d="M 43.78125 -55.090983 
L 43.78125 -37.55625 
L 47.163068 -121.950114 
L 50.544886 -153.326527 
L 53.926705 -170.640841 
L 57.308523 -189.292755 
L 60.690341 -201.370204 
L 64.072159 -216.709132 
L 67.453977 -225.806543 
L 70.835795 -236.8767 
L 74.217614 -245.148528 
L 77.599432 -255.063948 
L 80.98125 -262.16048 
L 84.363068 -270.103104 
L 87.744886 -273.330471 
L 91.126705 -278.869485 
L 94.508523 -282.317614 
L 97.890341 -287.751635 
L 101.272159 -288.680061 
L 104.653977 -293.756567 
L 108.035795 -296.764699 
L 111.417614 -296.826121 
L 114.799432 -298.59291 
L 118.18125 -298.660444 
L 121.563068 -300.509362 
L 124.944886 -304.179726 
L 128.326705 -306.072844 
L 131.708523 -311.272758 
L 135.090341 -313.951284 
L 138.472159 -313.951284 
L 141.853977 -314.638909 
L 145.235795 -315.571772 
L 148.617614 -315.571772 
L 151.999432 -317.31253 
L 155.38125 -319.823082 
L 158.763068 -320.688927 
L 162.144886 -322.288886 
L 165.526705 -322.288886 
L 168.908523 -323.151489 
L 172.290341 -323.790999 
L 175.672159 -323.790999 
L 179.053977 -323.790999 
L 182.435795 -323.790999 
L 185.817614 -324.898946 
L 189.199432 -324.81858 
L 192.58125 -324.81858 
L 195.963068 -324.81858 
L 199.344886 -325.26295 
L 202.726705 -325.431036 
L 206.108523 -326.391108 
L 209.490341 -326.391108 
L 212.872159 -326.376244 
L 216.253977 -326.376244 
L 219.635795 -326.376244 
L 223.017614 -326.376244 
L 226.399432 -329.904284 
L 229.78125 -329.904284 
L 233.163068 -330.875213 
L 236.544886 -333.261807 
L 239.926705 -332.901052 
L 243.308523 -332.901052 
L 246.690341 -334.356971 
L 250.072159 -334.356971 
L 253.453977 -334.793386 
L 256.835795 -334.793386 
L 260.217614 -334.793386 
L 263.599432 -335.354511 
L 266.98125 -335.354511 
L 270.363068 -335.354511 
L 273.744886 -336.638204 
L 277.126705 -336.638204 
L 280.508523 -336.638204 
L 283.890341 -336.638204 
L 287.272159 -336.638204 
L 290.653977 -336.638204 
L 294.035795 -336.638204 
L 297.417614 -337.448566 
L 300.799432 -337.448566 
L 304.18125 -337.448566 
L 307.563068 -337.448566 
L 310.944886 -337.448566 
L 314.326705 -339.580641 
L 317.708523 -339.580641 
L 321.090341 -339.580641 
L 324.472159 -339.580641 
L 327.853977 -339.580641 
L 331.235795 -339.339322 
L 334.617614 -341.60648 
L 337.999432 -342.673003 
L 341.38125 -342.673003 
L 344.763068 -342.673003 
L 348.144886 -342.673003 
L 351.526705 -342.957039 
L 354.908523 -342.957039 
L 358.290341 -342.957039 
L 361.672159 -342.957039 
L 365.053977 -343.457865 
L 368.435795 -344.133144 
L 371.817614 -346.158983 
L 375.199432 -346.158983 
L 378.58125 -348.184821 
L 378.58125 -348.184821 
L 378.58125 -348.184821 
L 375.199432 -348.184821 
L 371.817614 -348.184821 
L 368.435795 -348.184821 
L 365.053977 -348.184821 
L 361.672159 -348.010368 
L 358.290341 -348.010368 
L 354.908523 -348.010368 
L 351.526705 -348.010368 
L 348.144886 -346.943845 
L 344.763068 -346.943845 
L 341.38125 -346.943845 
L 337.999432 -346.943845 
L 334.617614 -346.659809 
L 331.235795 -346.225849 
L 327.853977 -344.63397 
L 324.472159 -344.63397 
L 321.090341 -344.63397 
L 317.708523 -344.63397 
L 314.326705 -344.63397 
L 310.944886 -344.064927 
L 307.563068 -344.064927 
L 304.18125 -344.064927 
L 300.799432 -344.064927 
L 297.417614 -344.064927 
L 294.035795 -343.524731 
L 290.653977 -343.524731 
L 287.272159 -343.524731 
L 283.890341 -343.524731 
L 280.508523 -343.524731 
L 277.126705 -343.524731 
L 273.744886 -343.524731 
L 270.363068 -343.457865 
L 266.98125 -343.457865 
L 263.599432 -343.457865 
L 260.217614 -342.668431 
L 256.835795 -342.668431 
L 253.453977 -342.668431 
L 250.072159 -341.754287 
L 246.690341 -341.754287 
L 243.308523 -341.859647 
L 239.926705 -341.859647 
L 236.544886 -340.148333 
L 233.163068 -339.833808 
L 229.78125 -339.454179 
L 226.399432 -339.454179 
L 223.017614 -340.2811 
L 219.635795 -340.2811 
L 216.253977 -340.2811 
L 212.872159 -340.2811 
L 209.490341 -338.915677 
L 206.108523 -338.915677 
L 202.726705 -338.525191 
L 199.344886 -337.342717 
L 195.963068 -336.436528 
L 192.58125 -336.436528 
L 189.199432 -336.436528 
L 185.817614 -335.005604 
L 182.435795 -334.762992 
L 179.053977 -334.762992 
L 175.672159 -334.762992 
L 172.290341 -334.762992 
L 168.908523 -332.701383 
L 165.526705 -332.213427 
L 162.144886 -332.213427 
L 158.763068 -332.462828 
L 155.38125 -330.627554 
L 151.999432 -329.08643 
L 148.617614 -329.476628 
L 145.235795 -329.476628 
L 141.853977 -329.058933 
L 138.472159 -327.045439 
L 135.090341 -327.045439 
L 131.708523 -327.022847 
L 128.326705 -326.820525 
L 124.944886 -324.661967 
L 121.563068 -325.631212 
L 118.18125 -324.779012 
L 114.799432 -323.495988 
L 111.417614 -321.211099 
L 108.035795 -319.921962 
L 104.653977 -318.878417 
L 101.272159 -317.202128 
L 97.890341 -314.078877 
L 94.508523 -311.409545 
L 91.126705 -305.40376 
L 87.744886 -300.138302 
L 84.363068 -289.860079 
L 80.98125 -288.34879 
L 77.599432 -281.939733 
L 74.217614 -275.648444 
L 70.835795 -265.012446 
L 67.453977 -255.824217 
L 64.072159 -250.065479 
L 60.690341 -234.341551 
L 57.308523 -223.459496 
L 53.926705 -212.399112 
L 50.544886 -195.949451 
L 47.163068 -178.70574 
L 43.78125 -55.090983 
z
" id="mee47d18e35" style="stroke:#ef8191;stroke-opacity:0.2;"/>
    </defs>
    <g clip-path="url(#p3e47a117be)">
     <use style="fill:#ef8191;fill-opacity:0.2;stroke:#ef8191;stroke-opacity:0.2;" x="0" xlink:href="#mee47d18e35" y="370.91625"/>
    </g>
   </g>
   <g id="PolyCollection_2">
    <defs>
     <path d="M 43.78125 -62.051081 
L 43.78125 -49.526512 
L 47.163068 -98.673869 
L 50.544886 -127.863742 
L 53.926705 -142.819689 
L 57.308523 -152.421429 
L 60.690341 -161.084247 
L 64.072159 -173.733736 
L 67.453977 -184.956229 
L 70.835795 -190.743782 
L 74.217614 -198.656549 
L 77.599432 -206.868366 
L 80.98125 -218.114464 
L 84.363068 -226.003334 
L 87.744886 -241.57128 
L 91.126705 -250.38229 
L 94.508523 -258.49765 
L 97.890341 -264.874161 
L 101.272159 -269.040078 
L 104.653977 -276.217973 
L 108.035795 -278.349758 
L 111.417614 -281.211947 
L 114.799432 -285.642414 
L 118.18125 -287.16208 
L 121.563068 -295.034729 
L 124.944886 -296.640532 
L 128.326705 -300.01693 
L 131.708523 -306.188577 
L 135.090341 -308.992676 
L 138.472159 -311.122715 
L 141.853977 -311.519131 
L 145.235795 -314.499112 
L 148.617614 -315.745471 
L 151.999432 -317.121964 
L 155.38125 -320.52912 
L 158.763068 -320.52912 
L 162.144886 -320.52912 
L 165.526705 -320.52912 
L 168.908523 -322.054638 
L 172.290341 -322.999847 
L 175.672159 -322.999847 
L 179.053977 -322.999847 
L 182.435795 -325.431036 
L 185.817614 -326.037032 
L 189.199432 -326.037032 
L 192.58125 -326.037032 
L 195.963068 -327.842676 
L 199.344886 -328.194978 
L 202.726705 -328.194978 
L 206.108523 -329.904284 
L 209.490341 -329.904284 
L 212.872159 -329.904284 
L 216.253977 -330.875213 
L 219.635795 -330.875213 
L 223.017614 -330.875213 
L 226.399432 -330.875213 
L 229.78125 -330.875213 
L 233.163068 -330.875213 
L 236.544886 -332.586527 
L 239.926705 -333.261807 
L 243.308523 -335.035687 
L 246.690341 -334.793386 
L 250.072159 -334.793386 
L 253.453977 -334.793386 
L 256.835795 -334.793386 
L 260.217614 -334.793386 
L 263.599432 -335.962925 
L 266.98125 -335.962925 
L 270.363068 -335.962925 
L 273.744886 -335.962925 
L 277.126705 -335.962925 
L 280.508523 -335.962925 
L 283.890341 -335.962925 
L 287.272159 -336.638204 
L 290.653977 -336.638204 
L 294.035795 -336.638204 
L 297.417614 -337.448566 
L 300.799432 -337.733368 
L 304.18125 -337.733368 
L 307.563068 -338.169784 
L 310.944886 -338.404536 
L 314.326705 -339.577731 
L 317.708523 -339.577731 
L 321.090341 -341.546181 
L 324.472159 -341.546181 
L 327.853977 -341.546181 
L 331.235795 -341.546181 
L 334.617614 -344.133144 
L 337.999432 -344.133144 
L 341.38125 -346.158983 
L 344.763068 -348.184821 
L 348.144886 -348.184821 
L 351.526705 -348.184821 
L 354.908523 -348.184821 
L 358.290341 -348.184821 
L 361.672159 -348.184821 
L 365.053977 -348.184821 
L 368.435795 -348.184821 
L 371.817614 -348.184821 
L 375.199432 -348.184821 
L 378.58125 -348.184821 
L 378.58125 -348.184821 
L 378.58125 -348.184821 
L 375.199432 -348.184821 
L 371.817614 -348.184821 
L 368.435795 -348.184821 
L 365.053977 -348.184821 
L 361.672159 -348.184821 
L 358.290341 -348.184821 
L 354.908523 -348.184821 
L 351.526705 -348.184821 
L 348.144886 -348.184821 
L 344.763068 -348.184821 
L 341.38125 -348.184821 
L 337.999432 -348.184821 
L 334.617614 -348.184821 
L 331.235795 -348.184821 
L 327.853977 -348.184821 
L 324.472159 -348.184821 
L 321.090341 -348.184821 
L 317.708523 -348.184821 
L 314.326705 -348.184821 
L 310.944886 -348.184821 
L 307.563068 -346.044828 
L 304.18125 -345.130685 
L 300.799432 -345.130685 
L 297.417614 -344.064927 
L 294.035795 -343.524731 
L 290.653977 -343.524731 
L 287.272159 -343.524731 
L 283.890341 -342.849451 
L 280.508523 -342.849451 
L 277.126705 -342.849451 
L 273.744886 -342.849451 
L 270.363068 -342.849451 
L 266.98125 -342.849451 
L 263.599432 -342.849451 
L 260.217614 -342.668431 
L 256.835795 -342.668431 
L 253.453977 -342.668431 
L 250.072159 -342.668431 
L 246.690341 -342.668431 
L 243.308523 -341.075571 
L 239.926705 -340.148333 
L 236.544886 -339.473054 
L 233.163068 -339.833808 
L 229.78125 -339.833808 
L 226.399432 -339.833808 
L 223.017614 -339.833808 
L 219.635795 -339.833808 
L 216.253977 -339.833808 
L 212.872159 -339.454179 
L 209.490341 -339.454179 
L 206.108523 -339.454179 
L 202.726705 -339.812926 
L 199.344886 -339.812926 
L 195.963068 -338.814669 
L 192.58125 -339.269754 
L 189.199432 -339.269754 
L 185.817614 -339.269754 
L 182.435795 -338.525191 
L 179.053977 -336.904703 
L 175.672159 -336.904703 
L 172.290341 -336.904703 
L 168.908523 -335.148794 
L 165.526705 -335.323753 
L 162.144886 -335.323753 
L 158.763068 -335.323753 
L 155.38125 -335.323753 
L 151.999432 -336.02979 
L 148.617614 -333.354606 
L 145.235795 -331.899848 
L 141.853977 -332.178711 
L 138.472159 -328.52345 
L 135.090341 -326.601811 
L 131.708523 -324.003674 
L 128.326705 -324.773086 
L 124.944886 -321.396688 
L 121.563068 -320.301374 
L 118.18125 -318.72011 
L 114.799432 -318.889216 
L 111.417614 -319.268006 
L 108.035795 -312.676282 
L 104.653977 -310.756391 
L 101.272159 -305.779255 
L 97.890341 -297.79014 
L 94.508523 -283.908266 
L 91.126705 -278.518036 
L 87.744886 -269.771779 
L 84.363068 -256.977986 
L 80.98125 -251.361266 
L 77.599432 -236.946743 
L 74.217614 -220.848498 
L 70.835795 -217.956792 
L 67.453977 -208.888196 
L 64.072159 -199.852304 
L 60.690341 -189.542291 
L 57.308523 -186.050077 
L 53.926705 -171.341755 
L 50.544886 -145.780932 
L 47.163068 -122.299003 
L 43.78125 -62.051081 
z
" id="m60a592b698" style="stroke:#566cb3;stroke-opacity:0.2;"/>
    </defs>
    <g clip-path="url(#p3e47a117be)">
     <use style="fill:#566cb3;fill-opacity:0.2;stroke:#566cb3;stroke-opacity:0.2;" x="0" xlink:href="#m60a592b698" y="370.91625"/>
    </g>
   </g>
   <g id="PolyCollection_3">
    <defs>
     <path d="M 43.78125 -48.444483 
L 43.78125 -37.55625 
L 47.163068 -114.965806 
L 50.544886 -139.322857 
L 53.926705 -154.910912 
L 57.308523 -167.097756 
L 60.690341 -175.215473 
L 64.072159 -183.570627 
L 67.453977 -201.367895 
L 70.835795 -215.686067 
L 74.217614 -226.804399 
L 77.599432 -236.190099 
L 80.98125 -242.697247 
L 84.363068 -247.233397 
L 87.744886 -259.843359 
L 91.126705 -264.405194 
L 94.508523 -273.306887 
L 97.890341 -286.248155 
L 101.272159 -287.898793 
L 104.653977 -292.442364 
L 108.035795 -295.40099 
L 111.417614 -295.245557 
L 114.799432 -299.348265 
L 118.18125 -301.25772 
L 121.563068 -303.121259 
L 124.944886 -307.120137 
L 128.326705 -309.671405 
L 131.708523 -310.496535 
L 135.090341 -312.204 
L 138.472159 -313.507396 
L 141.853977 -313.507396 
L 145.235795 -314.714822 
L 148.617614 -315.241953 
L 151.999432 -315.241953 
L 155.38125 -317.20023 
L 158.763068 -318.871159 
L 162.144886 -318.871159 
L 165.526705 -320.227065 
L 168.908523 -320.227065 
L 172.290341 -320.227065 
L 175.672159 -320.78479 
L 179.053977 -320.78479 
L 182.435795 -320.78479 
L 185.817614 -320.78479 
L 189.199432 -320.842757 
L 192.58125 -320.842757 
L 195.963068 -320.842757 
L 199.344886 -320.842757 
L 202.726705 -322.07723 
L 206.108523 -322.07723 
L 209.490341 -322.07723 
L 212.872159 -325.26295 
L 216.253977 -326.575877 
L 219.635795 -326.575877 
L 223.017614 -326.575877 
L 226.399432 -326.575877 
L 229.78125 -326.575877 
L 233.163068 -328.275343 
L 236.544886 -328.194978 
L 239.926705 -329.904284 
L 243.308523 -330.875213 
L 246.690341 -330.875213 
L 250.072159 -330.976461 
L 253.453977 -331.651741 
L 256.835795 -332.418079 
L 260.217614 -332.405835 
L 263.599432 -334.826219 
L 266.98125 -335.354511 
L 270.363068 -335.354511 
L 273.744886 -336.298332 
L 277.126705 -338.404536 
L 280.508523 -338.404536 
L 283.890341 -338.404536 
L 287.272159 -340.195622 
L 290.653977 -340.195622 
L 294.035795 -340.195622 
L 297.417614 -340.195622 
L 300.799432 -340.195622 
L 304.18125 -340.195622 
L 307.563068 -341.109766 
L 310.944886 -341.109766 
L 314.326705 -341.109766 
L 317.708523 -341.109766 
L 321.090341 -341.109766 
L 324.472159 -342.957039 
L 327.853977 -342.957039 
L 331.235795 -342.957039 
L 334.617614 -342.957039 
L 337.999432 -342.957039 
L 341.38125 -342.957039 
L 344.763068 -342.957039 
L 348.144886 -342.957039 
L 351.526705 -342.957039 
L 354.908523 -342.957039 
L 358.290341 -342.957039 
L 361.672159 -344.504893 
L 365.053977 -344.504893 
L 368.435795 -346.158983 
L 371.817614 -348.184821 
L 375.199432 -348.184821 
L 378.58125 -348.184821 
L 378.58125 -348.184821 
L 378.58125 -348.184821 
L 375.199432 -348.184821 
L 371.817614 -348.184821 
L 368.435795 -348.184821 
L 365.053977 -347.813073 
L 361.672159 -347.813073 
L 358.290341 -348.010368 
L 354.908523 -348.010368 
L 351.526705 -348.010368 
L 348.144886 -348.010368 
L 344.763068 -348.010368 
L 341.38125 -348.010368 
L 337.999432 -348.010368 
L 334.617614 -348.010368 
L 331.235795 -348.010368 
L 327.853977 -348.010368 
L 324.472159 -348.010368 
L 321.090341 -348.184821 
L 317.708523 -348.184821 
L 314.326705 -348.184821 
L 310.944886 -348.184821 
L 307.563068 -348.184821 
L 304.18125 -348.070667 
L 300.799432 -348.070667 
L 297.417614 -348.070667 
L 294.035795 -348.070667 
L 290.653977 -348.070667 
L 287.272159 -348.070667 
L 283.890341 -348.184821 
L 280.508523 -348.184821 
L 277.126705 -348.184821 
L 273.744886 -347.91628 
L 270.363068 -346.158983 
L 266.98125 -346.158983 
L 263.599432 -343.986156 
L 260.217614 -343.705423 
L 256.835795 -342.34262 
L 253.453977 -341.758399 
L 250.072159 -341.083119 
L 246.690341 -339.833808 
L 243.308523 -339.833808 
L 239.926705 -339.454179 
L 236.544886 -339.812926 
L 233.163068 -338.382001 
L 229.78125 -337.380349 
L 226.399432 -337.380349 
L 223.017614 -337.380349 
L 219.635795 -337.380349 
L 216.253977 -337.380349 
L 212.872159 -337.342717 
L 209.490341 -337.827319 
L 206.108523 -337.827319 
L 202.726705 -337.827319 
L 199.344886 -337.711234 
L 195.963068 -337.711234 
L 192.58125 -337.711234 
L 189.199432 -337.711234 
L 185.817614 -336.418641 
L 182.435795 -336.418641 
L 179.053977 -336.418641 
L 175.672159 -336.418641 
L 172.290341 -335.625807 
L 168.908523 -335.625807 
L 165.526705 -335.625807 
L 162.144886 -335.631155 
L 158.763068 -335.631155 
L 155.38125 -334.600966 
L 151.999432 -333.858124 
L 148.617614 -333.858124 
L 145.235795 -333.034696 
L 141.853977 -332.891564 
L 138.472159 -332.891564 
L 135.090341 -331.493841 
L 131.708523 -331.850748 
L 128.326705 -329.974759 
L 124.944886 -328.47435 
L 121.563068 -325.720434 
L 118.18125 -324.882854 
L 114.799432 -322.740633 
L 111.417614 -322.791664 
L 108.035795 -319.935113 
L 104.653977 -317.491502 
L 101.272159 -312.58116 
L 97.890341 -310.180121 
L 94.508523 -308.26524 
L 91.126705 -305.011902 
L 87.744886 -301.470383 
L 84.363068 -287.069165 
L 80.98125 -271.34693 
L 77.599432 -262.997929 
L 74.217614 -253.475803 
L 70.835795 -244.33575 
L 67.453977 -235.694419 
L 64.072159 -227.831065 
L 60.690341 -217.278394 
L 57.308523 -199.735489 
L 53.926705 -183.560595 
L 50.544886 -159.982438 
L 47.163068 -146.523836 
L 43.78125 -48.444483 
z
" id="m98e9b92e4b" style="stroke:#ffa500;stroke-opacity:0.2;"/>
    </defs>
    <g clip-path="url(#p3e47a117be)">
     <use style="fill:#ffa500;fill-opacity:0.2;stroke:#ffa500;stroke-opacity:0.2;" x="0" xlink:href="#m98e9b92e4b" y="370.91625"/>
    </g>
   </g>
   <g id="matplotlib.axis_1">
    <g id="xtick_1">
     <g id="line2d_1">
      <defs>
       <path d="M 0 0 
L 0 3.5 
" id="m4365065539" style="stroke:#000000;stroke-width:0.8;"/>
      </defs>
      <g>
       <use style="stroke:#000000;stroke-width:0.8;" x="43.78125" xlink:href="#m4365065539" y="333.36"/>
      </g>
     </g>
     <g id="text_1">
      <!-- 0.0 -->
      <g transform="translate(35.829688 347.958438)scale(0.1 -0.1)">
       <defs>
        <path d="M 31.78125 66.40625 
Q 24.171875 66.40625 20.328125 58.90625 
Q 16.5 51.421875 16.5 36.375 
Q 16.5 21.390625 20.328125 13.890625 
Q 24.171875 6.390625 31.78125 6.390625 
Q 39.453125 6.390625 43.28125 13.890625 
Q 47.125 21.390625 47.125 36.375 
Q 47.125 51.421875 43.28125 58.90625 
Q 39.453125 66.40625 31.78125 66.40625 
z
M 31.78125 74.21875 
Q 44.046875 74.21875 50.515625 64.515625 
Q 56.984375 54.828125 56.984375 36.375 
Q 56.984375 17.96875 50.515625 8.265625 
Q 44.046875 -1.421875 31.78125 -1.421875 
Q 19.53125 -1.421875 13.0625 8.265625 
Q 6.59375 17.96875 6.59375 36.375 
Q 6.59375 54.828125 13.0625 64.515625 
Q 19.53125 74.21875 31.78125 74.21875 
z
" id="DejaVuSans-48"/>
        <path d="M 10.6875 12.40625 
L 21 12.40625 
L 21 0 
L 10.6875 0 
z
" id="DejaVuSans-46"/>
       </defs>
       <use xlink:href="#DejaVuSans-48"/>
       <use x="63.623047" xlink:href="#DejaVuSans-46"/>
       <use x="95.410156" xlink:href="#DejaVuSans-48"/>
      </g>
     </g>
    </g>
    <g id="xtick_2">
     <g id="line2d_2">
      <g>
       <use style="stroke:#000000;stroke-width:0.8;" x="110.74125" xlink:href="#m4365065539" y="333.36"/>
      </g>
     </g>
     <g id="text_2">
      <!-- 0.2 -->
      <g transform="translate(102.789688 347.958438)scale(0.1 -0.1)">
       <defs>
        <path d="M 19.1875 8.296875 
L 53.609375 8.296875 
L 53.609375 0 
L 7.328125 0 
L 7.328125 8.296875 
Q 12.9375 14.109375 22.625 23.890625 
Q 32.328125 33.6875 34.8125 36.53125 
Q 39.546875 41.84375 41.421875 45.53125 
Q 43.3125 49.21875 43.3125 52.78125 
Q 43.3125 58.59375 39.234375 62.25 
Q 35.15625 65.921875 28.609375 65.921875 
Q 23.96875 65.921875 18.8125 64.3125 
Q 13.671875 62.703125 7.8125 59.421875 
L 7.8125 69.390625 
Q 13.765625 71.78125 18.9375 73 
Q 24.125 74.21875 28.421875 74.21875 
Q 39.75 74.21875 46.484375 68.546875 
Q 53.21875 62.890625 53.21875 53.421875 
Q 53.21875 48.921875 51.53125 44.890625 
Q 49.859375 40.875 45.40625 35.40625 
Q 44.1875 33.984375 37.640625 27.21875 
Q 31.109375 20.453125 19.1875 8.296875 
z
" id="DejaVuSans-50"/>
       </defs>
       <use xlink:href="#DejaVuSans-48"/>
       <use x="63.623047" xlink:href="#DejaVuSans-46"/>
       <use x="95.410156" xlink:href="#DejaVuSans-50"/>
      </g>
     </g>
    </g>
    <g id="xtick_3">
     <g id="line2d_3">
      <g>
       <use style="stroke:#000000;stroke-width:0.8;" x="177.70125" xlink:href="#m4365065539" y="333.36"/>
      </g>
     </g>
     <g id="text_3">
      <!-- 0.4 -->
      <g transform="translate(169.749688 347.958438)scale(0.1 -0.1)">
       <defs>
        <path d="M 37.796875 64.3125 
L 12.890625 25.390625 
L 37.796875 25.390625 
z
M 35.203125 72.90625 
L 47.609375 72.90625 
L 47.609375 25.390625 
L 58.015625 25.390625 
L 58.015625 17.1875 
L 47.609375 17.1875 
L 47.609375 0 
L 37.796875 0 
L 37.796875 17.1875 
L 4.890625 17.1875 
L 4.890625 26.703125 
z
" id="DejaVuSans-52"/>
       </defs>
       <use xlink:href="#DejaVuSans-48"/>
       <use x="63.623047" xlink:href="#DejaVuSans-46"/>
       <use x="95.410156" xlink:href="#DejaVuSans-52"/>
      </g>
     </g>
    </g>
    <g id="xtick_4">
     <g id="line2d_4">
      <g>
       <use style="stroke:#000000;stroke-width:0.8;" x="244.66125" xlink:href="#m4365065539" y="333.36"/>
      </g>
     </g>
     <g id="text_4">
      <!-- 0.6 -->
      <g transform="translate(236.709688 347.958438)scale(0.1 -0.1)">
       <defs>
        <path d="M 33.015625 40.375 
Q 26.375 40.375 22.484375 35.828125 
Q 18.609375 31.296875 18.609375 23.390625 
Q 18.609375 15.53125 22.484375 10.953125 
Q 26.375 6.390625 33.015625 6.390625 
Q 39.65625 6.390625 43.53125 10.953125 
Q 47.40625 15.53125 47.40625 23.390625 
Q 47.40625 31.296875 43.53125 35.828125 
Q 39.65625 40.375 33.015625 40.375 
z
M 52.59375 71.296875 
L 52.59375 62.3125 
Q 48.875 64.0625 45.09375 64.984375 
Q 41.3125 65.921875 37.59375 65.921875 
Q 27.828125 65.921875 22.671875 59.328125 
Q 17.53125 52.734375 16.796875 39.40625 
Q 19.671875 43.65625 24.015625 45.921875 
Q 28.375 48.1875 33.59375 48.1875 
Q 44.578125 48.1875 50.953125 41.515625 
Q 57.328125 34.859375 57.328125 23.390625 
Q 57.328125 12.15625 50.6875 5.359375 
Q 44.046875 -1.421875 33.015625 -1.421875 
Q 20.359375 -1.421875 13.671875 8.265625 
Q 6.984375 17.96875 6.984375 36.375 
Q 6.984375 53.65625 15.1875 63.9375 
Q 23.390625 74.21875 37.203125 74.21875 
Q 40.921875 74.21875 44.703125 73.484375 
Q 48.484375 72.75 52.59375 71.296875 
z
" id="DejaVuSans-54"/>
       </defs>
       <use xlink:href="#DejaVuSans-48"/>
       <use x="63.623047" xlink:href="#DejaVuSans-46"/>
       <use x="95.410156" xlink:href="#DejaVuSans-54"/>
      </g>
     </g>
    </g>
    <g id="xtick_5">
     <g id="line2d_5">
      <g>
       <use style="stroke:#000000;stroke-width:0.8;" x="311.62125" xlink:href="#m4365065539" y="333.36"/>
      </g>
     </g>
     <g id="text_5">
      <!-- 0.8 -->
      <g transform="translate(303.669688 347.958438)scale(0.1 -0.1)">
       <defs>
        <path d="M 31.78125 34.625 
Q 24.75 34.625 20.71875 30.859375 
Q 16.703125 27.09375 16.703125 20.515625 
Q 16.703125 13.921875 20.71875 10.15625 
Q 24.75 6.390625 31.78125 6.390625 
Q 38.8125 6.390625 42.859375 10.171875 
Q 46.921875 13.96875 46.921875 20.515625 
Q 46.921875 27.09375 42.890625 30.859375 
Q 38.875 34.625 31.78125 34.625 
z
M 21.921875 38.8125 
Q 15.578125 40.375 12.03125 44.71875 
Q 8.5 49.078125 8.5 55.328125 
Q 8.5 64.0625 14.71875 69.140625 
Q 20.953125 74.21875 31.78125 74.21875 
Q 42.671875 74.21875 48.875 69.140625 
Q 55.078125 64.0625 55.078125 55.328125 
Q 55.078125 49.078125 51.53125 44.71875 
Q 48 40.375 41.703125 38.8125 
Q 48.828125 37.15625 52.796875 32.3125 
Q 56.78125 27.484375 56.78125 20.515625 
Q 56.78125 9.90625 50.3125 4.234375 
Q 43.84375 -1.421875 31.78125 -1.421875 
Q 19.734375 -1.421875 13.25 4.234375 
Q 6.78125 9.90625 6.78125 20.515625 
Q 6.78125 27.484375 10.78125 32.3125 
Q 14.796875 37.15625 21.921875 38.8125 
z
M 18.3125 54.390625 
Q 18.3125 48.734375 21.84375 45.5625 
Q 25.390625 42.390625 31.78125 42.390625 
Q 38.140625 42.390625 41.71875 45.5625 
Q 45.3125 48.734375 45.3125 54.390625 
Q 45.3125 60.0625 41.71875 63.234375 
Q 38.140625 66.40625 31.78125 66.40625 
Q 25.390625 66.40625 21.84375 63.234375 
Q 18.3125 60.0625 18.3125 54.390625 
z
" id="DejaVuSans-56"/>
       </defs>
       <use xlink:href="#DejaVuSans-48"/>
       <use x="63.623047" xlink:href="#DejaVuSans-46"/>
       <use x="95.410156" xlink:href="#DejaVuSans-56"/>
      </g>
     </g>
    </g>
    <g id="xtick_6">
     <g id="line2d_6">
      <g>
       <use style="stroke:#000000;stroke-width:0.8;" x="378.58125" xlink:href="#m4365065539" y="333.36"/>
      </g>
     </g>
     <g id="text_6">
      <!-- 1.0 -->
      <g transform="translate(370.629687 347.958438)scale(0.1 -0.1)">
       <defs>
        <path d="M 12.40625 8.296875 
L 28.515625 8.296875 
L 28.515625 63.921875 
L 10.984375 60.40625 
L 10.984375 69.390625 
L 28.421875 72.90625 
L 38.28125 72.90625 
L 38.28125 8.296875 
L 54.390625 8.296875 
L 54.390625 0 
L 12.40625 0 
z
" id="DejaVuSans-49"/>
       </defs>
       <use xlink:href="#DejaVuSans-49"/>
       <use x="63.623047" xlink:href="#DejaVuSans-46"/>
       <use x="95.410156" xlink:href="#DejaVuSans-48"/>
      </g>
     </g>
    </g>
    <g id="text_7">
     <!-- False Positive Rate -->
     <g transform="translate(164.714844 361.636562)scale(0.1 -0.1)">
      <defs>
       <path d="M 9.8125 72.90625 
L 51.703125 72.90625 
L 51.703125 64.59375 
L 19.671875 64.59375 
L 19.671875 43.109375 
L 48.578125 43.109375 
L 48.578125 34.8125 
L 19.671875 34.8125 
L 19.671875 0 
L 9.8125 0 
z
" id="DejaVuSans-70"/>
       <path d="M 34.28125 27.484375 
Q 23.390625 27.484375 19.1875 25 
Q 14.984375 22.515625 14.984375 16.5 
Q 14.984375 11.71875 18.140625 8.90625 
Q 21.296875 6.109375 26.703125 6.109375 
Q 34.1875 6.109375 38.703125 11.40625 
Q 43.21875 16.703125 43.21875 25.484375 
L 43.21875 27.484375 
z
M 52.203125 31.203125 
L 52.203125 0 
L 43.21875 0 
L 43.21875 8.296875 
Q 40.140625 3.328125 35.546875 0.953125 
Q 30.953125 -1.421875 24.3125 -1.421875 
Q 15.921875 -1.421875 10.953125 3.296875 
Q 6 8.015625 6 15.921875 
Q 6 25.140625 12.171875 29.828125 
Q 18.359375 34.515625 30.609375 34.515625 
L 43.21875 34.515625 
L 43.21875 35.40625 
Q 43.21875 41.609375 39.140625 45 
Q 35.0625 48.390625 27.6875 48.390625 
Q 23 48.390625 18.546875 47.265625 
Q 14.109375 46.140625 10.015625 43.890625 
L 10.015625 52.203125 
Q 14.9375 54.109375 19.578125 55.046875 
Q 24.21875 56 28.609375 56 
Q 40.484375 56 46.34375 49.84375 
Q 52.203125 43.703125 52.203125 31.203125 
z
" id="DejaVuSans-97"/>
       <path d="M 9.421875 75.984375 
L 18.40625 75.984375 
L 18.40625 0 
L 9.421875 0 
z
" id="DejaVuSans-108"/>
       <path d="M 44.28125 53.078125 
L 44.28125 44.578125 
Q 40.484375 46.53125 36.375 47.5 
Q 32.28125 48.484375 27.875 48.484375 
Q 21.1875 48.484375 17.84375 46.4375 
Q 14.5 44.390625 14.5 40.28125 
Q 14.5 37.15625 16.890625 35.375 
Q 19.28125 33.59375 26.515625 31.984375 
L 29.59375 31.296875 
Q 39.15625 29.25 43.1875 25.515625 
Q 47.21875 21.78125 47.21875 15.09375 
Q 47.21875 7.46875 41.1875 3.015625 
Q 35.15625 -1.421875 24.609375 -1.421875 
Q 20.21875 -1.421875 15.453125 -0.5625 
Q 10.6875 0.296875 5.421875 2 
L 5.421875 11.28125 
Q 10.40625 8.6875 15.234375 7.390625 
Q 20.0625 6.109375 24.8125 6.109375 
Q 31.15625 6.109375 34.5625 8.28125 
Q 37.984375 10.453125 37.984375 14.40625 
Q 37.984375 18.0625 35.515625 20.015625 
Q 33.0625 21.96875 24.703125 23.78125 
L 21.578125 24.515625 
Q 13.234375 26.265625 9.515625 29.90625 
Q 5.8125 33.546875 5.8125 39.890625 
Q 5.8125 47.609375 11.28125 51.796875 
Q 16.75 56 26.8125 56 
Q 31.78125 56 36.171875 55.265625 
Q 40.578125 54.546875 44.28125 53.078125 
z
" id="DejaVuSans-115"/>
       <path d="M 56.203125 29.59375 
L 56.203125 25.203125 
L 14.890625 25.203125 
Q 15.484375 15.921875 20.484375 11.0625 
Q 25.484375 6.203125 34.421875 6.203125 
Q 39.59375 6.203125 44.453125 7.46875 
Q 49.3125 8.734375 54.109375 11.28125 
L 54.109375 2.78125 
Q 49.265625 0.734375 44.1875 -0.34375 
Q 39.109375 -1.421875 33.890625 -1.421875 
Q 20.796875 -1.421875 13.15625 6.1875 
Q 5.515625 13.8125 5.515625 26.8125 
Q 5.515625 40.234375 12.765625 48.109375 
Q 20.015625 56 32.328125 56 
Q 43.359375 56 49.78125 48.890625 
Q 56.203125 41.796875 56.203125 29.59375 
z
M 47.21875 32.234375 
Q 47.125 39.59375 43.09375 43.984375 
Q 39.0625 48.390625 32.421875 48.390625 
Q 24.90625 48.390625 20.390625 44.140625 
Q 15.875 39.890625 15.1875 32.171875 
z
" id="DejaVuSans-101"/>
       <path id="DejaVuSans-32"/>
       <path d="M 19.671875 64.796875 
L 19.671875 37.40625 
L 32.078125 37.40625 
Q 38.96875 37.40625 42.71875 40.96875 
Q 46.484375 44.53125 46.484375 51.125 
Q 46.484375 57.671875 42.71875 61.234375 
Q 38.96875 64.796875 32.078125 64.796875 
z
M 9.8125 72.90625 
L 32.078125 72.90625 
Q 44.34375 72.90625 50.609375 67.359375 
Q 56.890625 61.8125 56.890625 51.125 
Q 56.890625 40.328125 50.609375 34.8125 
Q 44.34375 29.296875 32.078125 29.296875 
L 19.671875 29.296875 
L 19.671875 0 
L 9.8125 0 
z
" id="DejaVuSans-80"/>
       <path d="M 30.609375 48.390625 
Q 23.390625 48.390625 19.1875 42.75 
Q 14.984375 37.109375 14.984375 27.296875 
Q 14.984375 17.484375 19.15625 11.84375 
Q 23.34375 6.203125 30.609375 6.203125 
Q 37.796875 6.203125 41.984375 11.859375 
Q 46.1875 17.53125 46.1875 27.296875 
Q 46.1875 37.015625 41.984375 42.703125 
Q 37.796875 48.390625 30.609375 48.390625 
z
M 30.609375 56 
Q 42.328125 56 49.015625 48.375 
Q 55.71875 40.765625 55.71875 27.296875 
Q 55.71875 13.875 49.015625 6.21875 
Q 42.328125 -1.421875 30.609375 -1.421875 
Q 18.84375 -1.421875 12.171875 6.21875 
Q 5.515625 13.875 5.515625 27.296875 
Q 5.515625 40.765625 12.171875 48.375 
Q 18.84375 56 30.609375 56 
z
" id="DejaVuSans-111"/>
       <path d="M 9.421875 54.6875 
L 18.40625 54.6875 
L 18.40625 0 
L 9.421875 0 
z
M 9.421875 75.984375 
L 18.40625 75.984375 
L 18.40625 64.59375 
L 9.421875 64.59375 
z
" id="DejaVuSans-105"/>
       <path d="M 18.3125 70.21875 
L 18.3125 54.6875 
L 36.8125 54.6875 
L 36.8125 47.703125 
L 18.3125 47.703125 
L 18.3125 18.015625 
Q 18.3125 11.328125 20.140625 9.421875 
Q 21.96875 7.515625 27.59375 7.515625 
L 36.8125 7.515625 
L 36.8125 0 
L 27.59375 0 
Q 17.1875 0 13.234375 3.875 
Q 9.28125 7.765625 9.28125 18.015625 
L 9.28125 47.703125 
L 2.6875 47.703125 
L 2.6875 54.6875 
L 9.28125 54.6875 
L 9.28125 70.21875 
z
" id="DejaVuSans-116"/>
       <path d="M 2.984375 54.6875 
L 12.5 54.6875 
L 29.59375 8.796875 
L 46.6875 54.6875 
L 56.203125 54.6875 
L 35.6875 0 
L 23.484375 0 
z
" id="DejaVuSans-118"/>
       <path d="M 44.390625 34.1875 
Q 47.5625 33.109375 50.5625 29.59375 
Q 53.5625 26.078125 56.59375 19.921875 
L 66.609375 0 
L 56 0 
L 46.6875 18.703125 
Q 43.0625 26.03125 39.671875 28.421875 
Q 36.28125 30.8125 30.421875 30.8125 
L 19.671875 30.8125 
L 19.671875 0 
L 9.8125 0 
L 9.8125 72.90625 
L 32.078125 72.90625 
Q 44.578125 72.90625 50.734375 67.671875 
Q 56.890625 62.453125 56.890625 51.90625 
Q 56.890625 45.015625 53.6875 40.46875 
Q 50.484375 35.9375 44.390625 34.1875 
z
M 19.671875 64.796875 
L 19.671875 38.921875 
L 32.078125 38.921875 
Q 39.203125 38.921875 42.84375 42.21875 
Q 46.484375 45.515625 46.484375 51.90625 
Q 46.484375 58.296875 42.84375 61.546875 
Q 39.203125 64.796875 32.078125 64.796875 
z
" id="DejaVuSans-82"/>
      </defs>
      <use xlink:href="#DejaVuSans-70"/>
      <use x="48.394531" xlink:href="#DejaVuSans-97"/>
      <use x="109.673828" xlink:href="#DejaVuSans-108"/>
      <use x="137.457031" xlink:href="#DejaVuSans-115"/>
      <use x="189.556641" xlink:href="#DejaVuSans-101"/>
      <use x="251.080078" xlink:href="#DejaVuSans-32"/>
      <use x="282.867188" xlink:href="#DejaVuSans-80"/>
      <use x="339.544922" xlink:href="#DejaVuSans-111"/>
      <use x="400.726562" xlink:href="#DejaVuSans-115"/>
      <use x="452.826172" xlink:href="#DejaVuSans-105"/>
      <use x="480.609375" xlink:href="#DejaVuSans-116"/>
      <use x="519.818359" xlink:href="#DejaVuSans-105"/>
      <use x="547.601562" xlink:href="#DejaVuSans-118"/>
      <use x="606.78125" xlink:href="#DejaVuSans-101"/>
      <use x="668.304688" xlink:href="#DejaVuSans-32"/>
      <use x="700.091797" xlink:href="#DejaVuSans-82"/>
      <use x="767.324219" xlink:href="#DejaVuSans-97"/>
      <use x="828.603516" xlink:href="#DejaVuSans-116"/>
      <use x="867.8125" xlink:href="#DejaVuSans-101"/>
     </g>
    </g>
   </g>
   <g id="matplotlib.axis_2">
    <g id="ytick_1">
     <g id="line2d_7">
      <defs>
       <path d="M 0 0 
L -3.5 0 
" id="ma56f215891" style="stroke:#000000;stroke-width:0.8;"/>
      </defs>
      <g>
       <use style="stroke:#000000;stroke-width:0.8;" x="43.78125" xlink:href="#ma56f215891" y="333.36"/>
      </g>
     </g>
     <g id="text_8">
      <!-- 0.0 -->
      <g transform="translate(20.878125 337.159219)scale(0.1 -0.1)">
       <use xlink:href="#DejaVuSans-48"/>
       <use x="63.623047" xlink:href="#DejaVuSans-46"/>
       <use x="95.410156" xlink:href="#DejaVuSans-48"/>
      </g>
     </g>
    </g>
    <g id="ytick_2">
     <g id="line2d_8">
      <g>
       <use style="stroke:#000000;stroke-width:0.8;" x="43.78125" xlink:href="#ma56f215891" y="271.234286"/>
      </g>
     </g>
     <g id="text_9">
      <!-- 0.2 -->
      <g transform="translate(20.878125 275.033504)scale(0.1 -0.1)">
       <use xlink:href="#DejaVuSans-48"/>
       <use x="63.623047" xlink:href="#DejaVuSans-46"/>
       <use x="95.410156" xlink:href="#DejaVuSans-50"/>
      </g>
     </g>
    </g>
    <g id="ytick_3">
     <g id="line2d_9">
      <g>
       <use style="stroke:#000000;stroke-width:0.8;" x="43.78125" xlink:href="#ma56f215891" y="209.108571"/>
      </g>
     </g>
     <g id="text_10">
      <!-- 0.4 -->
      <g transform="translate(20.878125 212.90779)scale(0.1 -0.1)">
       <use xlink:href="#DejaVuSans-48"/>
       <use x="63.623047" xlink:href="#DejaVuSans-46"/>
       <use x="95.410156" xlink:href="#DejaVuSans-52"/>
      </g>
     </g>
    </g>
    <g id="ytick_4">
     <g id="line2d_10">
      <g>
       <use style="stroke:#000000;stroke-width:0.8;" x="43.78125" xlink:href="#ma56f215891" y="146.982857"/>
      </g>
     </g>
     <g id="text_11">
      <!-- 0.6 -->
      <g transform="translate(20.878125 150.782076)scale(0.1 -0.1)">
       <use xlink:href="#DejaVuSans-48"/>
       <use x="63.623047" xlink:href="#DejaVuSans-46"/>
       <use x="95.410156" xlink:href="#DejaVuSans-54"/>
      </g>
     </g>
    </g>
    <g id="ytick_5">
     <g id="line2d_11">
      <g>
       <use style="stroke:#000000;stroke-width:0.8;" x="43.78125" xlink:href="#ma56f215891" y="84.857143"/>
      </g>
     </g>
     <g id="text_12">
      <!-- 0.8 -->
      <g transform="translate(20.878125 88.656362)scale(0.1 -0.1)">
       <use xlink:href="#DejaVuSans-48"/>
       <use x="63.623047" xlink:href="#DejaVuSans-46"/>
       <use x="95.410156" xlink:href="#DejaVuSans-56"/>
      </g>
     </g>
    </g>
    <g id="ytick_6">
     <g id="line2d_12">
      <g>
       <use style="stroke:#000000;stroke-width:0.8;" x="43.78125" xlink:href="#ma56f215891" y="22.731429"/>
      </g>
     </g>
     <g id="text_13">
      <!-- 1.0 -->
      <g transform="translate(20.878125 26.530647)scale(0.1 -0.1)">
       <use xlink:href="#DejaVuSans-49"/>
       <use x="63.623047" xlink:href="#DejaVuSans-46"/>
       <use x="95.410156" xlink:href="#DejaVuSans-48"/>
      </g>
     </g>
    </g>
    <g id="text_14">
     <!-- True Positive Rate -->
     <g transform="translate(14.798438 214.809687)rotate(-90)scale(0.1 -0.1)">
      <defs>
       <path d="M -0.296875 72.90625 
L 61.375 72.90625 
L 61.375 64.59375 
L 35.5 64.59375 
L 35.5 0 
L 25.59375 0 
L 25.59375 64.59375 
L -0.296875 64.59375 
z
" id="DejaVuSans-84"/>
       <path d="M 41.109375 46.296875 
Q 39.59375 47.171875 37.8125 47.578125 
Q 36.03125 48 33.890625 48 
Q 26.265625 48 22.1875 43.046875 
Q 18.109375 38.09375 18.109375 28.8125 
L 18.109375 0 
L 9.078125 0 
L 9.078125 54.6875 
L 18.109375 54.6875 
L 18.109375 46.1875 
Q 20.953125 51.171875 25.484375 53.578125 
Q 30.03125 56 36.53125 56 
Q 37.453125 56 38.578125 55.875 
Q 39.703125 55.765625 41.0625 55.515625 
z
" id="DejaVuSans-114"/>
       <path d="M 8.5 21.578125 
L 8.5 54.6875 
L 17.484375 54.6875 
L 17.484375 21.921875 
Q 17.484375 14.15625 20.5 10.265625 
Q 23.53125 6.390625 29.59375 6.390625 
Q 36.859375 6.390625 41.078125 11.03125 
Q 45.3125 15.671875 45.3125 23.6875 
L 45.3125 54.6875 
L 54.296875 54.6875 
L 54.296875 0 
L 45.3125 0 
L 45.3125 8.40625 
Q 42.046875 3.421875 37.71875 1 
Q 33.40625 -1.421875 27.6875 -1.421875 
Q 18.265625 -1.421875 13.375 4.4375 
Q 8.5 10.296875 8.5 21.578125 
z
M 31.109375 56 
z
" id="DejaVuSans-117"/>
      </defs>
      <use xlink:href="#DejaVuSans-84"/>
      <use x="46.333984" xlink:href="#DejaVuSans-114"/>
      <use x="87.447266" xlink:href="#DejaVuSans-117"/>
      <use x="150.826172" xlink:href="#DejaVuSans-101"/>
      <use x="212.349609" xlink:href="#DejaVuSans-32"/>
      <use x="244.136719" xlink:href="#DejaVuSans-80"/>
      <use x="300.814453" xlink:href="#DejaVuSans-111"/>
      <use x="361.996094" xlink:href="#DejaVuSans-115"/>
      <use x="414.095703" xlink:href="#DejaVuSans-105"/>
      <use x="441.878906" xlink:href="#DejaVuSans-116"/>
      <use x="481.087891" xlink:href="#DejaVuSans-105"/>
      <use x="508.871094" xlink:href="#DejaVuSans-118"/>
      <use x="568.050781" xlink:href="#DejaVuSans-101"/>
      <use x="629.574219" xlink:href="#DejaVuSans-32"/>
      <use x="661.361328" xlink:href="#DejaVuSans-82"/>
      <use x="728.59375" xlink:href="#DejaVuSans-97"/>
      <use x="789.873047" xlink:href="#DejaVuSans-116"/>
      <use x="829.082031" xlink:href="#DejaVuSans-101"/>
     </g>
    </g>
   </g>
   <g id="line2d_13">
    <path clip-path="url(#p3e47a117be)" d="M 43.78125 325.931925 
L 47.163068 220.588323 
L 50.544886 196.278261 
L 53.926705 179.396273 
L 57.308523 164.540124 
L 60.690341 153.060373 
L 64.072159 137.528944 
L 67.453977 130.10087 
L 70.835795 119.971677 
L 74.217614 110.517764 
L 77.599432 102.41441 
L 80.98125 95.661615 
L 84.363068 90.934658 
L 87.744886 84.181863 
L 91.126705 78.779627 
L 94.508523 74.052671 
L 97.890341 70.000994 
L 101.272159 67.975155 
L 104.653977 64.598758 
L 108.035795 62.572919 
L 111.417614 61.89764 
L 114.799432 59.871801 
L 118.18125 59.196522 
L 121.563068 57.845963 
L 124.944886 56.495404 
L 128.326705 54.469565 
L 131.708523 51.768447 
L 135.090341 50.417888 
L 138.472159 50.417888 
L 141.853977 49.067329 
L 145.235795 48.39205 
L 148.617614 48.39205 
L 151.999432 47.71677 
L 155.38125 45.690932 
L 158.763068 44.340373 
L 162.144886 43.665093 
L 165.526705 43.665093 
L 168.908523 42.989814 
L 172.290341 41.639255 
L 175.672159 41.639255 
L 179.053977 41.639255 
L 182.435795 41.639255 
L 185.817614 40.963975 
L 189.199432 40.288696 
L 192.58125 40.288696 
L 195.963068 40.288696 
L 199.344886 39.613416 
L 202.726705 38.938137 
L 206.108523 38.262857 
L 209.490341 38.262857 
L 212.872159 37.587578 
L 216.253977 37.587578 
L 219.635795 37.587578 
L 223.017614 37.587578 
L 226.399432 36.237019 
L 229.78125 36.237019 
L 233.163068 35.561739 
L 236.544886 34.21118 
L 239.926705 33.535901 
L 243.308523 33.535901 
L 246.690341 32.860621 
L 250.072159 32.860621 
L 253.453977 32.185342 
L 256.835795 32.185342 
L 260.217614 32.185342 
L 263.599432 31.510062 
L 266.98125 31.510062 
L 270.363068 31.510062 
L 273.744886 30.834783 
L 277.126705 30.834783 
L 280.508523 30.834783 
L 283.890341 30.834783 
L 287.272159 30.834783 
L 290.653977 30.834783 
L 294.035795 30.834783 
L 297.417614 30.159503 
L 300.799432 30.159503 
L 304.18125 30.159503 
L 307.563068 30.159503 
L 310.944886 30.159503 
L 314.326705 28.808944 
L 317.708523 28.808944 
L 321.090341 28.808944 
L 324.472159 28.808944 
L 327.853977 28.808944 
L 331.235795 28.133665 
L 334.617614 26.783106 
L 337.999432 26.107826 
L 341.38125 26.107826 
L 344.763068 26.107826 
L 348.144886 26.107826 
L 351.526705 25.432547 
L 354.908523 25.432547 
L 358.290341 25.432547 
L 361.672159 25.432547 
L 365.053977 24.757267 
L 368.435795 24.081988 
L 371.817614 23.406708 
L 375.199432 23.406708 
L 378.58125 22.731429 
" style="fill:none;stroke:#ef8191;stroke-linecap:square;stroke-width:2;"/>
   </g>
   <g id="line2d_14">
    <path clip-path="url(#p3e47a117be)" d="M 43.78125 315.127453 
L 47.163068 260.429814 
L 50.544886 234.093913 
L 53.926705 213.835528 
L 57.308523 201.680497 
L 60.690341 195.602981 
L 64.072159 184.12323 
L 67.453977 173.994037 
L 70.835795 166.565963 
L 74.217614 161.163727 
L 77.599432 149.008696 
L 80.98125 136.178385 
L 84.363068 129.42559 
L 87.744886 115.24472 
L 91.126705 106.466087 
L 94.508523 99.713292 
L 97.890341 89.584099 
L 101.272159 83.506584 
L 104.653977 77.429068 
L 108.035795 75.40323 
L 111.417614 70.676273 
L 114.799432 68.650435 
L 118.18125 67.975155 
L 121.563068 63.248199 
L 124.944886 61.89764 
L 128.326705 58.521242 
L 131.708523 55.820124 
L 135.090341 53.119006 
L 138.472159 51.093168 
L 141.853977 49.067329 
L 145.235795 47.71677 
L 148.617614 46.366211 
L 151.999432 44.340373 
L 155.38125 42.989814 
L 158.763068 42.989814 
L 162.144886 42.989814 
L 165.526705 42.989814 
L 168.908523 42.314534 
L 172.290341 40.963975 
L 175.672159 40.963975 
L 179.053977 40.963975 
L 182.435795 38.938137 
L 185.817614 38.262857 
L 189.199432 38.262857 
L 192.58125 38.262857 
L 195.963068 37.587578 
L 199.344886 36.912298 
L 202.726705 36.912298 
L 206.108523 36.237019 
L 209.490341 36.237019 
L 212.872159 36.237019 
L 216.253977 35.561739 
L 219.635795 35.561739 
L 223.017614 35.561739 
L 226.399432 35.561739 
L 229.78125 35.561739 
L 233.163068 35.561739 
L 236.544886 34.88646 
L 239.926705 34.21118 
L 243.308523 32.860621 
L 246.690341 32.185342 
L 250.072159 32.185342 
L 253.453977 32.185342 
L 256.835795 32.185342 
L 260.217614 32.185342 
L 263.599432 31.510062 
L 266.98125 31.510062 
L 270.363068 31.510062 
L 273.744886 31.510062 
L 277.126705 31.510062 
L 280.508523 31.510062 
L 283.890341 31.510062 
L 287.272159 30.834783 
L 290.653977 30.834783 
L 294.035795 30.834783 
L 297.417614 30.159503 
L 300.799432 29.484224 
L 304.18125 29.484224 
L 307.563068 28.808944 
L 310.944886 27.458385 
L 314.326705 26.107826 
L 317.708523 26.107826 
L 321.090341 25.432547 
L 324.472159 25.432547 
L 327.853977 25.432547 
L 331.235795 25.432547 
L 334.617614 24.081988 
L 337.999432 24.081988 
L 341.38125 23.406708 
L 344.763068 22.731429 
L 348.144886 22.731429 
L 351.526705 22.731429 
L 354.908523 22.731429 
L 358.290341 22.731429 
L 361.672159 22.731429 
L 365.053977 22.731429 
L 368.435795 22.731429 
L 371.817614 22.731429 
L 375.199432 22.731429 
L 378.58125 22.731429 
" style="fill:none;stroke:#566cb3;stroke-linecap:square;stroke-width:2;"/>
   </g>
   <g id="line2d_15">
    <path clip-path="url(#p3e47a117be)" d="M 43.78125 327.957764 
L 47.163068 240.171429 
L 50.544886 221.263602 
L 53.926705 201.680497 
L 57.308523 187.499627 
L 60.690341 174.669317 
L 64.072159 165.215404 
L 67.453977 152.385093 
L 70.835795 140.905342 
L 74.217614 130.776149 
L 77.599432 121.322236 
L 80.98125 113.894161 
L 84.363068 103.764969 
L 87.744886 90.259379 
L 91.126705 86.207702 
L 94.508523 80.130186 
L 97.890341 72.702112 
L 101.272159 70.676273 
L 104.653977 65.949317 
L 108.035795 63.248199 
L 111.417614 61.89764 
L 114.799432 59.871801 
L 118.18125 57.845963 
L 121.563068 56.495404 
L 124.944886 53.119006 
L 128.326705 51.093168 
L 131.708523 49.742609 
L 135.090341 49.067329 
L 138.472159 47.71677 
L 141.853977 47.71677 
L 145.235795 47.041491 
L 148.617614 46.366211 
L 151.999432 46.366211 
L 155.38125 45.015652 
L 158.763068 43.665093 
L 162.144886 43.665093 
L 165.526705 42.989814 
L 168.908523 42.989814 
L 172.290341 42.989814 
L 175.672159 42.314534 
L 179.053977 42.314534 
L 182.435795 42.314534 
L 185.817614 42.314534 
L 189.199432 41.639255 
L 192.58125 41.639255 
L 195.963068 41.639255 
L 199.344886 41.639255 
L 202.726705 40.963975 
L 206.108523 40.963975 
L 209.490341 40.963975 
L 212.872159 39.613416 
L 216.253977 38.938137 
L 219.635795 38.938137 
L 223.017614 38.938137 
L 226.399432 38.938137 
L 229.78125 38.938137 
L 233.163068 37.587578 
L 236.544886 36.912298 
L 239.926705 36.237019 
L 243.308523 35.561739 
L 246.690341 35.561739 
L 250.072159 34.88646 
L 253.453977 34.21118 
L 256.835795 33.535901 
L 260.217614 32.860621 
L 263.599432 31.510062 
L 266.98125 30.159503 
L 270.363068 30.159503 
L 273.744886 28.808944 
L 277.126705 27.458385 
L 280.508523 27.458385 
L 283.890341 27.458385 
L 287.272159 26.783106 
L 290.653977 26.783106 
L 294.035795 26.783106 
L 297.417614 26.783106 
L 300.799432 26.783106 
L 304.18125 26.783106 
L 307.563068 26.107826 
L 310.944886 26.107826 
L 314.326705 26.107826 
L 317.708523 26.107826 
L 321.090341 26.107826 
L 324.472159 25.432547 
L 327.853977 25.432547 
L 331.235795 25.432547 
L 334.617614 25.432547 
L 337.999432 25.432547 
L 341.38125 25.432547 
L 344.763068 25.432547 
L 348.144886 25.432547 
L 351.526705 25.432547 
L 354.908523 25.432547 
L 358.290341 25.432547 
L 361.672159 24.757267 
L 365.053977 24.757267 
L 368.435795 23.406708 
L 371.817614 22.731429 
L 375.199432 22.731429 
L 378.58125 22.731429 
" style="fill:none;stroke:#ffa500;stroke-linecap:square;stroke-width:2;"/>
   </g>
   <g id="line2d_16">
    <path clip-path="url(#p3e47a117be)" d="M 43.78125 333.36 
L 378.58125 22.731429 
" style="fill:none;stroke:#000000;stroke-dasharray:7.4,3.2;stroke-dashoffset:0;stroke-width:2;"/>
   </g>
   <g id="patch_3">
    <path d="M 43.78125 333.36 
L 43.78125 7.2 
" style="fill:none;stroke:#000000;stroke-linecap:square;stroke-linejoin:miter;stroke-width:0.8;"/>
   </g>
   <g id="patch_4">
    <path d="M 378.58125 333.36 
L 378.58125 7.2 
" style="fill:none;stroke:#000000;stroke-linecap:square;stroke-linejoin:miter;stroke-width:0.8;"/>
   </g>
   <g id="patch_5">
    <path d="M 43.78125 333.36 
L 378.58125 333.36 
" style="fill:none;stroke:#000000;stroke-linecap:square;stroke-linejoin:miter;stroke-width:0.8;"/>
   </g>
   <g id="patch_6">
    <path d="M 43.78125 7.2 
L 378.58125 7.2 
" style="fill:none;stroke:#000000;stroke-linecap:square;stroke-linejoin:miter;stroke-width:0.8;"/>
   </g>
   <g id="legend_1">
    <g id="patch_7">
     <path d="M 121.27125 328.86 
L 372.28125 328.86 
Q 374.08125 328.86 374.08125 327.06 
L 374.08125 288.329062 
Q 374.08125 286.529063 372.28125 286.529063 
L 121.27125 286.529063 
Q 119.47125 286.529063 119.47125 288.329062 
L 119.47125 327.06 
Q 119.47125 328.86 121.27125 328.86 
z
" style="fill:#ffffff;opacity:0.8;stroke:#cccccc;stroke-linejoin:miter;"/>
    </g>
    <g id="line2d_17">
     <path d="M 123.07125 293.817656 
L 141.07125 293.817656 
" style="fill:none;stroke:#ef8191;stroke-linecap:square;stroke-width:2;"/>
    </g>
    <g id="line2d_18"/>
    <g id="text_15">
     <!-- BNNR  (auc = 0.90 $\pm$ 0.02) -->
     <g transform="translate(148.27125 296.967656)scale(0.09 -0.09)">
      <defs>
       <path d="M 19.671875 34.8125 
L 19.671875 8.109375 
L 35.5 8.109375 
Q 43.453125 8.109375 47.28125 11.40625 
Q 51.125 14.703125 51.125 21.484375 
Q 51.125 28.328125 47.28125 31.5625 
Q 43.453125 34.8125 35.5 34.8125 
z
M 19.671875 64.796875 
L 19.671875 42.828125 
L 34.28125 42.828125 
Q 41.5 42.828125 45.03125 45.53125 
Q 48.578125 48.25 48.578125 53.8125 
Q 48.578125 59.328125 45.03125 62.0625 
Q 41.5 64.796875 34.28125 64.796875 
z
M 9.8125 72.90625 
L 35.015625 72.90625 
Q 46.296875 72.90625 52.390625 68.21875 
Q 58.5 63.53125 58.5 54.890625 
Q 58.5 48.1875 55.375 44.234375 
Q 52.25 40.28125 46.1875 39.3125 
Q 53.46875 37.75 57.5 32.78125 
Q 61.53125 27.828125 61.53125 20.40625 
Q 61.53125 10.640625 54.890625 5.3125 
Q 48.25 0 35.984375 0 
L 9.8125 0 
z
" id="DejaVuSans-66"/>
       <path d="M 9.8125 72.90625 
L 23.09375 72.90625 
L 55.421875 11.921875 
L 55.421875 72.90625 
L 64.984375 72.90625 
L 64.984375 0 
L 51.703125 0 
L 19.390625 60.984375 
L 19.390625 0 
L 9.8125 0 
z
" id="DejaVuSans-78"/>
       <path d="M 31 75.875 
Q 24.46875 64.65625 21.28125 53.65625 
Q 18.109375 42.671875 18.109375 31.390625 
Q 18.109375 20.125 21.3125 9.0625 
Q 24.515625 -2 31 -13.1875 
L 23.1875 -13.1875 
Q 15.875 -1.703125 12.234375 9.375 
Q 8.59375 20.453125 8.59375 31.390625 
Q 8.59375 42.28125 12.203125 53.3125 
Q 15.828125 64.359375 23.1875 75.875 
z
" id="DejaVuSans-40"/>
       <path d="M 48.78125 52.59375 
L 48.78125 44.1875 
Q 44.96875 46.296875 41.140625 47.34375 
Q 37.3125 48.390625 33.40625 48.390625 
Q 24.65625 48.390625 19.8125 42.84375 
Q 14.984375 37.3125 14.984375 27.296875 
Q 14.984375 17.28125 19.8125 11.734375 
Q 24.65625 6.203125 33.40625 6.203125 
Q 37.3125 6.203125 41.140625 7.25 
Q 44.96875 8.296875 48.78125 10.40625 
L 48.78125 2.09375 
Q 45.015625 0.34375 40.984375 -0.53125 
Q 36.96875 -1.421875 32.421875 -1.421875 
Q 20.0625 -1.421875 12.78125 6.34375 
Q 5.515625 14.109375 5.515625 27.296875 
Q 5.515625 40.671875 12.859375 48.328125 
Q 20.21875 56 33.015625 56 
Q 37.15625 56 41.109375 55.140625 
Q 45.0625 54.296875 48.78125 52.59375 
z
" id="DejaVuSans-99"/>
       <path d="M 10.59375 45.40625 
L 73.1875 45.40625 
L 73.1875 37.203125 
L 10.59375 37.203125 
z
M 10.59375 25.484375 
L 73.1875 25.484375 
L 73.1875 17.1875 
L 10.59375 17.1875 
z
" id="DejaVuSans-61"/>
       <path d="M 10.984375 1.515625 
L 10.984375 10.5 
Q 14.703125 8.734375 18.5 7.8125 
Q 22.3125 6.890625 25.984375 6.890625 
Q 35.75 6.890625 40.890625 13.453125 
Q 46.046875 20.015625 46.78125 33.40625 
Q 43.953125 29.203125 39.59375 26.953125 
Q 35.25 24.703125 29.984375 24.703125 
Q 19.046875 24.703125 12.671875 31.3125 
Q 6.296875 37.9375 6.296875 49.421875 
Q 6.296875 60.640625 12.9375 67.421875 
Q 19.578125 74.21875 30.609375 74.21875 
Q 43.265625 74.21875 49.921875 64.515625 
Q 56.59375 54.828125 56.59375 36.375 
Q 56.59375 19.140625 48.40625 8.859375 
Q 40.234375 -1.421875 26.421875 -1.421875 
Q 22.703125 -1.421875 18.890625 -0.6875 
Q 15.09375 0.046875 10.984375 1.515625 
z
M 30.609375 32.421875 
Q 37.25 32.421875 41.125 36.953125 
Q 45.015625 41.5 45.015625 49.421875 
Q 45.015625 57.28125 41.125 61.84375 
Q 37.25 66.40625 30.609375 66.40625 
Q 23.96875 66.40625 20.09375 61.84375 
Q 16.21875 57.28125 16.21875 49.421875 
Q 16.21875 41.5 20.09375 36.953125 
Q 23.96875 32.421875 30.609375 32.421875 
z
" id="DejaVuSans-57"/>
       <path d="M 46 62.703125 
L 46 43.796875 
L 73.1875 43.796875 
L 73.1875 35.5 
L 46 35.5 
L 46 16.609375 
L 37.796875 16.609375 
L 37.796875 35.5 
L 10.59375 35.5 
L 10.59375 43.796875 
L 37.796875 43.796875 
L 37.796875 62.703125 
z
M 10.59375 8.296875 
L 73.1875 8.296875 
L 73.1875 0 
L 10.59375 0 
z
" id="DejaVuSans-177"/>
       <path d="M 8.015625 75.875 
L 15.828125 75.875 
Q 23.140625 64.359375 26.78125 53.3125 
Q 30.421875 42.28125 30.421875 31.390625 
Q 30.421875 20.453125 26.78125 9.375 
Q 23.140625 -1.703125 15.828125 -13.1875 
L 8.015625 -13.1875 
Q 14.5 -2 17.703125 9.0625 
Q 20.90625 20.125 20.90625 31.390625 
Q 20.90625 42.671875 17.703125 53.65625 
Q 14.5 64.65625 8.015625 75.875 
z
" id="DejaVuSans-41"/>
      </defs>
      <use transform="translate(0 0.125)" xlink:href="#DejaVuSans-66"/>
      <use transform="translate(68.603516 0.125)" xlink:href="#DejaVuSans-78"/>
      <use transform="translate(143.408203 0.125)" xlink:href="#DejaVuSans-78"/>
      <use transform="translate(214.587891 0.125)" xlink:href="#DejaVuSans-82"/>
      <use transform="translate(284.070312 0.125)" xlink:href="#DejaVuSans-32"/>
      <use transform="translate(315.857422 0.125)" xlink:href="#DejaVuSans-32"/>
      <use transform="translate(347.644531 0.125)" xlink:href="#DejaVuSans-40"/>
      <use transform="translate(386.658203 0.125)" xlink:href="#DejaVuSans-97"/>
      <use transform="translate(447.9375 0.125)" xlink:href="#DejaVuSans-117"/>
      <use transform="translate(511.316406 0.125)" xlink:href="#DejaVuSans-99"/>
      <use transform="translate(566.296875 0.125)" xlink:href="#DejaVuSans-32"/>
      <use transform="translate(598.083984 0.125)" xlink:href="#DejaVuSans-61"/>
      <use transform="translate(681.873047 0.125)" xlink:href="#DejaVuSans-32"/>
      <use transform="translate(713.660156 0.125)" xlink:href="#DejaVuSans-48"/>
      <use transform="translate(777.283203 0.125)" xlink:href="#DejaVuSans-46"/>
      <use transform="translate(809.070312 0.125)" xlink:href="#DejaVuSans-57"/>
      <use transform="translate(872.693359 0.125)" xlink:href="#DejaVuSans-48"/>
      <use transform="translate(936.316406 0.125)" xlink:href="#DejaVuSans-32"/>
      <use transform="translate(968.103516 0.125)" xlink:href="#DejaVuSans-177"/>
      <use transform="translate(1051.892578 0.125)" xlink:href="#DejaVuSans-32"/>
      <use transform="translate(1083.679688 0.125)" xlink:href="#DejaVuSans-48"/>
      <use transform="translate(1147.302734 0.125)" xlink:href="#DejaVuSans-46"/>
      <use transform="translate(1179.089844 0.125)" xlink:href="#DejaVuSans-48"/>
      <use transform="translate(1242.712891 0.125)" xlink:href="#DejaVuSans-50"/>
      <use transform="translate(1306.335938 0.125)" xlink:href="#DejaVuSans-41"/>
     </g>
    </g>
    <g id="line2d_19">
     <path d="M 123.07125 307.027969 
L 141.07125 307.027969 
" style="fill:none;stroke:#566cb3;stroke-linecap:square;stroke-width:2;"/>
    </g>
    <g id="line2d_20"/>
    <g id="text_16">
     <!-- SVT  (auc = 0.88 $\pm$ 0.02) -->
     <g transform="translate(148.27125 310.177969)scale(0.09 -0.09)">
      <defs>
       <path d="M 53.515625 70.515625 
L 53.515625 60.890625 
Q 47.90625 63.578125 42.921875 64.890625 
Q 37.9375 66.21875 33.296875 66.21875 
Q 25.25 66.21875 20.875 63.09375 
Q 16.5 59.96875 16.5 54.203125 
Q 16.5 49.359375 19.40625 46.890625 
Q 22.3125 44.4375 30.421875 42.921875 
L 36.375 41.703125 
Q 47.40625 39.59375 52.65625 34.296875 
Q 57.90625 29 57.90625 20.125 
Q 57.90625 9.515625 50.796875 4.046875 
Q 43.703125 -1.421875 29.984375 -1.421875 
Q 24.8125 -1.421875 18.96875 -0.25 
Q 13.140625 0.921875 6.890625 3.21875 
L 6.890625 13.375 
Q 12.890625 10.015625 18.65625 8.296875 
Q 24.421875 6.59375 29.984375 6.59375 
Q 38.421875 6.59375 43.015625 9.90625 
Q 47.609375 13.234375 47.609375 19.390625 
Q 47.609375 24.75 44.3125 27.78125 
Q 41.015625 30.8125 33.5 32.328125 
L 27.484375 33.5 
Q 16.453125 35.6875 11.515625 40.375 
Q 6.59375 45.0625 6.59375 53.421875 
Q 6.59375 63.09375 13.40625 68.65625 
Q 20.21875 74.21875 32.171875 74.21875 
Q 37.3125 74.21875 42.625 73.28125 
Q 47.953125 72.359375 53.515625 70.515625 
z
" id="DejaVuSans-83"/>
       <path d="M 28.609375 0 
L 0.78125 72.90625 
L 11.078125 72.90625 
L 34.1875 11.53125 
L 57.328125 72.90625 
L 67.578125 72.90625 
L 39.796875 0 
z
" id="DejaVuSans-86"/>
      </defs>
      <use transform="translate(0 0.125)" xlink:href="#DejaVuSans-83"/>
      <use transform="translate(63.476562 0.125)" xlink:href="#DejaVuSans-86"/>
      <use transform="translate(131.884766 0.125)" xlink:href="#DejaVuSans-84"/>
      <use transform="translate(192.96875 0.125)" xlink:href="#DejaVuSans-32"/>
      <use transform="translate(224.755859 0.125)" xlink:href="#DejaVuSans-32"/>
      <use transform="translate(256.542969 0.125)" xlink:href="#DejaVuSans-40"/>
      <use transform="translate(295.556641 0.125)" xlink:href="#DejaVuSans-97"/>
      <use transform="translate(356.835938 0.125)" xlink:href="#DejaVuSans-117"/>
      <use transform="translate(420.214844 0.125)" xlink:href="#DejaVuSans-99"/>
      <use transform="translate(475.195312 0.125)" xlink:href="#DejaVuSans-32"/>
      <use transform="translate(506.982422 0.125)" xlink:href="#DejaVuSans-61"/>
      <use transform="translate(590.771484 0.125)" xlink:href="#DejaVuSans-32"/>
      <use transform="translate(622.558594 0.125)" xlink:href="#DejaVuSans-48"/>
      <use transform="translate(686.181641 0.125)" xlink:href="#DejaVuSans-46"/>
      <use transform="translate(715.34375 0.125)" xlink:href="#DejaVuSans-56"/>
      <use transform="translate(778.966797 0.125)" xlink:href="#DejaVuSans-56"/>
      <use transform="translate(842.589844 0.125)" xlink:href="#DejaVuSans-32"/>
      <use transform="translate(874.376953 0.125)" xlink:href="#DejaVuSans-177"/>
      <use transform="translate(958.166016 0.125)" xlink:href="#DejaVuSans-32"/>
      <use transform="translate(989.953125 0.125)" xlink:href="#DejaVuSans-48"/>
      <use transform="translate(1053.576172 0.125)" xlink:href="#DejaVuSans-46"/>
      <use transform="translate(1085.363281 0.125)" xlink:href="#DejaVuSans-48"/>
      <use transform="translate(1148.986328 0.125)" xlink:href="#DejaVuSans-50"/>
      <use transform="translate(1212.609375 0.125)" xlink:href="#DejaVuSans-41"/>
     </g>
    </g>
    <g id="line2d_21">
     <path d="M 123.07125 320.238281 
L 141.07125 320.238281 
" style="fill:none;stroke:#ffa500;stroke-linecap:square;stroke-width:2;"/>
    </g>
    <g id="line2d_22"/>
    <g id="text_17">
     <!-- Cands and Recht's method  (auc = 0.89 $\pm$ 0.02) -->
     <g transform="translate(148.27125 323.388281)scale(0.09 -0.09)">
      <defs>
       <path d="M 64.40625 67.28125 
L 64.40625 56.890625 
Q 59.421875 61.53125 53.78125 63.8125 
Q 48.140625 66.109375 41.796875 66.109375 
Q 29.296875 66.109375 22.65625 58.46875 
Q 16.015625 50.828125 16.015625 36.375 
Q 16.015625 21.96875 22.65625 14.328125 
Q 29.296875 6.6875 41.796875 6.6875 
Q 48.140625 6.6875 53.78125 8.984375 
Q 59.421875 11.28125 64.40625 15.921875 
L 64.40625 5.609375 
Q 59.234375 2.09375 53.4375 0.328125 
Q 47.65625 -1.421875 41.21875 -1.421875 
Q 24.65625 -1.421875 15.125 8.703125 
Q 5.609375 18.84375 5.609375 36.375 
Q 5.609375 53.953125 15.125 64.078125 
Q 24.65625 74.21875 41.21875 74.21875 
Q 47.75 74.21875 53.53125 72.484375 
Q 59.328125 70.75 64.40625 67.28125 
z
" id="DejaVuSans-67"/>
       <path d="M 54.890625 33.015625 
L 54.890625 0 
L 45.90625 0 
L 45.90625 32.71875 
Q 45.90625 40.484375 42.875 44.328125 
Q 39.84375 48.1875 33.796875 48.1875 
Q 26.515625 48.1875 22.3125 43.546875 
Q 18.109375 38.921875 18.109375 30.90625 
L 18.109375 0 
L 9.078125 0 
L 9.078125 54.6875 
L 18.109375 54.6875 
L 18.109375 46.1875 
Q 21.34375 51.125 25.703125 53.5625 
Q 30.078125 56 35.796875 56 
Q 45.21875 56 50.046875 50.171875 
Q 54.890625 44.34375 54.890625 33.015625 
z
" id="DejaVuSans-110"/>
       <path d="M 45.40625 46.390625 
L 45.40625 75.984375 
L 54.390625 75.984375 
L 54.390625 0 
L 45.40625 0 
L 45.40625 8.203125 
Q 42.578125 3.328125 38.25 0.953125 
Q 33.9375 -1.421875 27.875 -1.421875 
Q 17.96875 -1.421875 11.734375 6.484375 
Q 5.515625 14.40625 5.515625 27.296875 
Q 5.515625 40.1875 11.734375 48.09375 
Q 17.96875 56 27.875 56 
Q 33.9375 56 38.25 53.625 
Q 42.578125 51.265625 45.40625 46.390625 
z
M 14.796875 27.296875 
Q 14.796875 17.390625 18.875 11.75 
Q 22.953125 6.109375 30.078125 6.109375 
Q 37.203125 6.109375 41.296875 11.75 
Q 45.40625 17.390625 45.40625 27.296875 
Q 45.40625 37.203125 41.296875 42.84375 
Q 37.203125 48.484375 30.078125 48.484375 
Q 22.953125 48.484375 18.875 42.84375 
Q 14.796875 37.203125 14.796875 27.296875 
z
" id="DejaVuSans-100"/>
       <path d="M 56.203125 29.59375 
L 56.203125 25.203125 
L 14.890625 25.203125 
Q 15.484375 15.921875 20.484375 11.0625 
Q 25.484375 6.203125 34.421875 6.203125 
Q 39.59375 6.203125 44.453125 7.46875 
Q 49.3125 8.734375 54.109375 11.28125 
L 54.109375 2.78125 
Q 49.265625 0.734375 44.1875 -0.34375 
Q 39.109375 -1.421875 33.890625 -1.421875 
Q 20.796875 -1.421875 13.15625 6.1875 
Q 5.515625 13.8125 5.515625 26.8125 
Q 5.515625 40.234375 12.765625 48.109375 
Q 20.015625 56 32.328125 56 
Q 43.359375 56 49.78125 48.890625 
Q 56.203125 41.796875 56.203125 29.59375 
z
M 47.21875 32.234375 
Q 47.125 39.59375 43.09375 43.984375 
Q 39.0625 48.390625 32.421875 48.390625 
Q 24.90625 48.390625 20.390625 44.140625 
Q 15.875 39.890625 15.1875 32.171875 
z
M 24.703125 79.984375 
L 38.484375 61.71875 
L 31 61.71875 
L 15.09375 79.984375 
z
" id="DejaVuSans-232"/>
       <path d="M 54.890625 33.015625 
L 54.890625 0 
L 45.90625 0 
L 45.90625 32.71875 
Q 45.90625 40.484375 42.875 44.328125 
Q 39.84375 48.1875 33.796875 48.1875 
Q 26.515625 48.1875 22.3125 43.546875 
Q 18.109375 38.921875 18.109375 30.90625 
L 18.109375 0 
L 9.078125 0 
L 9.078125 75.984375 
L 18.109375 75.984375 
L 18.109375 46.1875 
Q 21.34375 51.125 25.703125 53.5625 
Q 30.078125 56 35.796875 56 
Q 45.21875 56 50.046875 50.171875 
Q 54.890625 44.34375 54.890625 33.015625 
z
" id="DejaVuSans-104"/>
       <path d="M 17.921875 72.90625 
L 17.921875 45.796875 
L 9.625 45.796875 
L 9.625 72.90625 
z
" id="DejaVuSans-39"/>
       <path d="M 52 44.1875 
Q 55.375 50.25 60.0625 53.125 
Q 64.75 56 71.09375 56 
Q 79.640625 56 84.28125 50.015625 
Q 88.921875 44.046875 88.921875 33.015625 
L 88.921875 0 
L 79.890625 0 
L 79.890625 32.71875 
Q 79.890625 40.578125 77.09375 44.375 
Q 74.3125 48.1875 68.609375 48.1875 
Q 61.625 48.1875 57.5625 43.546875 
Q 53.515625 38.921875 53.515625 30.90625 
L 53.515625 0 
L 44.484375 0 
L 44.484375 32.71875 
Q 44.484375 40.625 41.703125 44.40625 
Q 38.921875 48.1875 33.109375 48.1875 
Q 26.21875 48.1875 22.15625 43.53125 
Q 18.109375 38.875 18.109375 30.90625 
L 18.109375 0 
L 9.078125 0 
L 9.078125 54.6875 
L 18.109375 54.6875 
L 18.109375 46.1875 
Q 21.1875 51.21875 25.484375 53.609375 
Q 29.78125 56 35.6875 56 
Q 41.65625 56 45.828125 52.96875 
Q 50 49.953125 52 44.1875 
z
" id="DejaVuSans-109"/>
      </defs>
      <use transform="translate(0 0.015625)" xlink:href="#DejaVuSans-67"/>
      <use transform="translate(69.824219 0.015625)" xlink:href="#DejaVuSans-97"/>
      <use transform="translate(131.103516 0.015625)" xlink:href="#DejaVuSans-110"/>
      <use transform="translate(194.482422 0.015625)" xlink:href="#DejaVuSans-100"/>
      <use transform="translate(257.958984 0.015625)" xlink:href="#DejaVuSans-232"/>
      <use transform="translate(319.482422 0.015625)" xlink:href="#DejaVuSans-115"/>
      <use transform="translate(371.582031 0.015625)" xlink:href="#DejaVuSans-32"/>
      <use transform="translate(403.369141 0.015625)" xlink:href="#DejaVuSans-97"/>
      <use transform="translate(464.648438 0.015625)" xlink:href="#DejaVuSans-110"/>
      <use transform="translate(528.027344 0.015625)" xlink:href="#DejaVuSans-100"/>
      <use transform="translate(591.503906 0.015625)" xlink:href="#DejaVuSans-32"/>
      <use transform="translate(623.291016 0.015625)" xlink:href="#DejaVuSans-82"/>
      <use transform="translate(692.773438 0.015625)" xlink:href="#DejaVuSans-101"/>
      <use transform="translate(754.296875 0.015625)" xlink:href="#DejaVuSans-99"/>
      <use transform="translate(809.277344 0.015625)" xlink:href="#DejaVuSans-104"/>
      <use transform="translate(872.65625 0.015625)" xlink:href="#DejaVuSans-116"/>
      <use transform="translate(911.865234 0.015625)" xlink:href="#DejaVuSans-39"/>
      <use transform="translate(939.355469 0.015625)" xlink:href="#DejaVuSans-115"/>
      <use transform="translate(991.455078 0.015625)" xlink:href="#DejaVuSans-32"/>
      <use transform="translate(1023.242188 0.015625)" xlink:href="#DejaVuSans-109"/>
      <use transform="translate(1120.654297 0.015625)" xlink:href="#DejaVuSans-101"/>
      <use transform="translate(1182.177734 0.015625)" xlink:href="#DejaVuSans-116"/>
      <use transform="translate(1221.386719 0.015625)" xlink:href="#DejaVuSans-104"/>
      <use transform="translate(1284.765625 0.015625)" xlink:href="#DejaVuSans-111"/>
      <use transform="translate(1345.947266 0.015625)" xlink:href="#DejaVuSans-100"/>
      <use transform="translate(1409.423828 0.015625)" xlink:href="#DejaVuSans-32"/>
      <use transform="translate(1441.210938 0.015625)" xlink:href="#DejaVuSans-32"/>
      <use transform="translate(1472.998047 0.015625)" xlink:href="#DejaVuSans-40"/>
      <use transform="translate(1512.011719 0.015625)" xlink:href="#DejaVuSans-97"/>
      <use transform="translate(1573.291016 0.015625)" xlink:href="#DejaVuSans-117"/>
      <use transform="translate(1636.669922 0.015625)" xlink:href="#DejaVuSans-99"/>
      <use transform="translate(1691.650391 0.015625)" xlink:href="#DejaVuSans-32"/>
      <use transform="translate(1723.4375 0.015625)" xlink:href="#DejaVuSans-61"/>
      <use transform="translate(1807.226562 0.015625)" xlink:href="#DejaVuSans-32"/>
      <use transform="translate(1839.013672 0.015625)" xlink:href="#DejaVuSans-48"/>
      <use transform="translate(1902.636719 0.015625)" xlink:href="#DejaVuSans-46"/>
      <use transform="translate(1931.798828 0.015625)" xlink:href="#DejaVuSans-56"/>
      <use transform="translate(1995.421875 0.015625)" xlink:href="#DejaVuSans-57"/>
      <use transform="translate(2059.044922 0.015625)" xlink:href="#DejaVuSans-32"/>
      <use transform="translate(2090.832031 0.015625)" xlink:href="#DejaVuSans-177"/>
      <use transform="translate(2174.621094 0.015625)" xlink:href="#DejaVuSans-32"/>
      <use transform="translate(2206.408203 0.015625)" xlink:href="#DejaVuSans-48"/>
      <use transform="translate(2270.03125 0.015625)" xlink:href="#DejaVuSans-46"/>
      <use transform="translate(2301.818359 0.015625)" xlink:href="#DejaVuSans-48"/>
      <use transform="translate(2365.441406 0.015625)" xlink:href="#DejaVuSans-50"/>
      <use transform="translate(2429.064453 0.015625)" xlink:href="#DejaVuSans-41"/>
     </g>
    </g>
   </g>
  </g>
 </g>
 <defs>
  <clipPath id="p3e47a117be">
   <rect height="326.16" width="334.8" x="43.78125" y="7.2"/>
  </clipPath>
 </defs>
</svg>
